SplineFontDB: 3.0
FontName: Overlock-BlackItalic
FullName: Overlock-BlackItalic
FamilyName: Overlock
Weight: Black
Copyright: Copyright (c) 2011, Dario Manuel Muhafara (http://www.tipo.net.ar), with Reserved Font Name "Overlock".
Version: 1.001
ItalicAngle: 0
UnderlinePosition: -113
UnderlineWidth: 20
Ascent: 800
Descent: 200
sfntRevision: 0x00010042
LayerCount: 2
Layer: 0 1 "Back"  1
Layer: 1 1 "Fore"  0
XUID: [1021 288 713564382 12238939]
FSType: 0
OS2Version: 2
OS2_WeightWidthSlopeOnly: 0
OS2_UseTypoMetrics: 1
CreationTime: 1324052781
ModificationTime: 1324081834
PfmFamily: 17
TTFWeight: 900
TTFWidth: 5
LineGap: 0
VLineGap: 0
Panose: 2 0 5 3 4 0 0 9 0 2
OS2TypoAscent: 166
OS2TypoAOffset: 1
OS2TypoDescent: -54
OS2TypoDOffset: 1
OS2TypoLinegap: 0
OS2WinAscent: 0
OS2WinAOffset: 1
OS2WinDescent: 0
OS2WinDOffset: 1
HheadAscent: 0
HheadAOffset: 1
HheadDescent: 0
HheadDOffset: 1
OS2SubXSize: 700
OS2SubYSize: 650
OS2SubXOff: 0
OS2SubYOff: 140
OS2SupXSize: 700
OS2SupYSize: 650
OS2SupXOff: 0
OS2SupYOff: 477
OS2StrikeYSize: 50
OS2StrikeYPos: 250
OS2Vendor: 'pyrs'
OS2CodePages: 20000001.00000000
OS2UnicodeRanges: 800000af.4000204b.00000000.00000000
Lookup: 258 0 0 "'kern' Horizontal Kerning in Latin lookup 0"  {"'kern' Horizontal Kerning in Latin lookup 0 subtable"  } ['kern' ('DFLT' <'dflt' > 'latn' <'dflt' > ) ]
MarkAttachClasses: 1
DEI: 91125
TtTable: prep
PUSHW_1
 511
SCANCTRL
PUSHB_1
 4
SCANTYPE
EndTTInstrs
ShortTable: maxp 16
  1
  0
  283
  98
  7
  0
  0
  2
  0
  1
  1
  0
  64
  0
  0
  0
EndShort
LangName: 1033 "" "" "Black Italic" "DarioManuelMuhafara: Overlock Black Italic: 2011" "" "Version 1.001" "" "Overlock is a trademark of Dario Manuel Muhafara." "Dario Manuel Muhafara" "Dario Muhafara" "" "www.tipo.net.ar" "www.tipo.net.ar" "This Font Software is licensed under the SIL Open Font License,+AA0A-Version 1.1. This license is available with a FAQ at:+AA0A-http://scripts.sil.org/OFL" "http://scripts.sil.org/OFL" 
GaspTable: 1 65535 15
Encoding: UnicodeBmp

StartChar: exclam
Encoding: 33 33 4
Width: 296
GlyphClass: 2
Flags: W
LayerCount: 2
Fore
SplineSet
123 640 m 0,0,1
 123 671 123 671 121 683 c 1,2,3
 165 694 165 694 201 694 c 0,4,5
 281 694 281 694 281 635 c 0,6,7
 281 613 281 613 252 486.5 c 128,-1,8
 223 360 223 360 223 279 c 0,9,10
 223 257 223 257 225 248 c 1,11,12
 189 229 189 229 154 229 c 0,13,14
 123 229 123 229 103.5 242.5 c 128,-1,15
 84 256 84 256 84 281 c 0,16,17
 84 287 84 287 94 352.5 c 128,-1,18
 104 418 104 418 113.5 502.5 c 128,-1,19
 123 587 123 587 123 640 c 0,0,1
119 -10 m 0,20,21
 87 -10 87 -10 66 11 c 128,-1,22
 45 32 45 32 45 65 c 0,23,24
 45 104 45 104 74 136 c 128,-1,25
 103 168 103 168 144 168 c 0,26,27
 175 168 175 168 196.5 145.5 c 128,-1,28
 218 123 218 123 218 90 c 0,29,30
 218 52 218 52 188 21 c 128,-1,31
 158 -10 158 -10 119 -10 c 0,20,21
EndSplineSet
EndChar

StartChar: quotedbl
Encoding: 34 34 5
Width: 426
GlyphClass: 2
Flags: W
LayerCount: 2
Fore
SplineSet
176 737 m 0,0,1
 236 737 236 737 236 692 c 0,2,3
 236 652 236 652 192 504 c 1,4,5
 176 455 176 455 123 455 c 0,6,7
 97 455 97 455 76 463 c 1,8,9
 89 507 89 507 91 587.5 c 128,-1,10
 93 668 93 668 95 682 c 0,11,12
 98 709 98 709 115.5 723 c 128,-1,13
 133 737 133 737 176 737 c 0,0,1
388 737 m 0,14,15
 448 737 448 737 448 692 c 0,16,17
 448 652 448 652 404 504 c 1,18,19
 388 455 388 455 335 455 c 0,20,21
 309 455 309 455 288 463 c 1,22,23
 301 507 301 507 303 587.5 c 128,-1,24
 305 668 305 668 307 682 c 0,25,26
 310 709 310 709 327.5 723 c 128,-1,27
 345 737 345 737 388 737 c 0,14,15
EndSplineSet
EndChar

StartChar: numbersign
Encoding: 35 35 6
Width: 574
GlyphClass: 2
Flags: W
LayerCount: 2
Fore
SplineSet
215 266 m 1,0,1
 289 266 289 266 324 268 c 1,2,3
 330 287 330 287 355 388 c 1,4,5
 325 390 325 390 286 390 c 2,6,-1
 250 390 l 1,7,8
 227 317 227 317 215 266 c 1,0,1
449 463 m 1,9,10
 476 464 476 464 583 473 c 1,11,12
 581 429 581 429 566 404 c 128,-1,13
 551 379 551 379 509 379 c 0,14,15
 503 379 503 379 472.5 382 c 128,-1,16
 442 385 442 385 426 385 c 1,17,18
 410 339 410 339 391 268 c 1,19,20
 418 269 418 269 525 278 c 1,21,22
 523 234 523 234 508 209 c 128,-1,23
 493 184 493 184 451 184 c 0,24,25
 445 184 445 184 415.5 187.5 c 128,-1,26
 386 191 386 191 370 191 c 1,27,28
 340 54 340 54 340 24 c 1,29,30
 320 13 320 13 296 13 c 0,31,32
 261 13 261 13 261 45 c 0,33,34
 261 54 261 54 264.5 70 c 128,-1,35
 268 86 268 86 272.5 100.5 c 128,-1,36
 277 115 277 115 286.5 145.5 c 128,-1,37
 296 176 296 176 301 194 c 1,38,39
 264 195 264 195 235 195 c 2,40,-1
 196 195 l 1,41,42
 165 54 165 54 165 24 c 1,43,44
 145 13 145 13 121 13 c 0,45,46
 86 13 86 13 86 45 c 0,47,48
 86 62 86 62 127 194 c 1,49,50
 53 190 53 190 -7 170 c 1,51,52
 -9 188 -9 188 -9 195 c 0,53,54
 -9 234 -9 234 13 251.5 c 128,-1,55
 35 269 35 269 84 269 c 0,56,57
 91 269 91 269 112.5 268.5 c 128,-1,58
 134 268 134 268 149 268 c 1,59,-1
 179 388 l 1,60,61
 101 384 101 384 42 364 c 1,62,63
 40 382 40 382 40 389 c 0,64,65
 40 428 40 428 62 445.5 c 128,-1,66
 84 463 84 463 133 463 c 0,67,68
 140 463 140 463 161 462.5 c 128,-1,69
 182 462 182 462 198 462 c 1,70,71
 232 595 232 595 240 637 c 1,72,73
 259 641 259 641 276 641 c 0,74,75
 315 641 315 641 315 606 c 0,76,77
 315 599 315 599 311.5 585.5 c 128,-1,78
 308 572 308 572 303.5 558 c 128,-1,79
 299 544 299 544 289.5 514.5 c 128,-1,80
 280 485 280 485 272 460 c 1,81,-1
 373 460 l 1,82,83
 409 604 409 604 416 637 c 1,84,85
 435 641 435 641 452 641 c 0,86,87
 491 641 491 641 491 606 c 0,88,89
 491 599 491 599 488 586 c 128,-1,90
 485 573 485 573 480.5 559.5 c 128,-1,91
 476 546 476 546 466.5 517 c 128,-1,92
 457 488 457 488 449 463 c 1,9,10
EndSplineSet
EndChar

StartChar: dollar
Encoding: 36 36 7
Width: 574
GlyphClass: 2
Flags: W
LayerCount: 2
Fore
SplineSet
431 502 m 1,0,1
 423 527 423 527 401 546 c 128,-1,2
 379 565 379 565 346 569 c 1,3,-1
 321 397 l 1,4,5
 352 387 352 387 365.5 382.5 c 128,-1,6
 379 378 379 378 405.5 364 c 128,-1,7
 432 350 432 350 445 335.5 c 128,-1,8
 458 321 458 321 469 296 c 128,-1,9
 480 271 480 271 480 239 c 0,10,11
 480 140 480 140 424 74 c 128,-1,12
 368 8 368 8 266 -5 c 1,13,14
 261 -47 261 -47 261 -76 c 1,15,-1
 239 -79 l 1,16,17
 203 -79 203 -79 203 -49 c 0,18,19
 203 -45 203 -45 208 -9 c 1,20,21
 138 -7 138 -7 86.5 22.5 c 128,-1,22
 35 52 35 52 35 92 c 0,23,24
 35 119 35 119 54.5 135 c 128,-1,25
 74 151 74 151 111 165 c 1,26,27
 119 135 119 135 148.5 113 c 128,-1,28
 178 91 178 91 221 89 c 1,29,-1
 224 107 l 2,30,31
 230 149 230 149 235 191 c 128,-1,32
 240 233 240 233 245 270 c 1,33,34
 210 282 210 282 191 290.5 c 128,-1,35
 172 299 172 299 145.5 318.5 c 128,-1,36
 119 338 119 338 106.5 369 c 128,-1,37
 94 400 94 400 94 444 c 0,38,39
 94 530 94 530 148.5 591 c 128,-1,40
 203 652 203 652 299 667 c 1,41,42
 301 681 301 681 303 705.5 c 128,-1,43
 305 730 305 730 305 734 c 1,44,45
 323 739 323 739 330 739 c 0,46,47
 365 739 365 739 365 710 c 1,48,-1
 364 706 l 2,49,50
 364 702 364 702 362.5 692 c 128,-1,51
 361 682 361 682 360 671 c 1,52,53
 418 668 418 668 465 641.5 c 128,-1,54
 512 615 512 615 512 571 c 0,55,56
 512 516 512 516 431 502 c 1,0,1
266 420 m 1,57,-1
 285 558 l 1,58,59
 233 531 233 531 233 472 c 0,60,61
 233 440 233 440 266 420 c 1,57,-1
300 247 m 1,62,-1
 281 106 l 1,63,64
 332 139 332 139 332 199 c 0,65,66
 332 228 332 228 300 247 c 1,62,-1
EndSplineSet
EndChar

StartChar: percent
Encoding: 37 37 8
Width: 854
GlyphClass: 2
Flags: W
LayerCount: 2
Fore
SplineSet
214 407 m 0,0,1
 245 407 245 407 260.5 442 c 128,-1,2
 276 477 276 477 276 517 c 0,3,4
 276 592 276 592 239 592 c 0,5,6
 206 592 206 592 190.5 556.5 c 128,-1,7
 175 521 175 521 175 481 c 0,8,9
 175 407 175 407 214 407 c 0,0,1
205 333 m 0,10,11
 139 333 139 333 101 370 c 128,-1,12
 63 407 63 407 63 470 c 0,13,14
 63 553 63 553 114 609 c 128,-1,15
 165 665 165 665 248 665 c 0,16,17
 314 665 314 665 351.5 628.5 c 128,-1,18
 389 592 389 592 389 528 c 0,19,20
 389 445 389 445 338.5 389 c 128,-1,21
 288 333 288 333 205 333 c 0,10,11
616 64 m 0,22,23
 647 64 647 64 662.5 99 c 128,-1,24
 678 134 678 134 678 174 c 0,25,26
 678 249 678 249 641 249 c 0,27,28
 608 249 608 249 592.5 213.5 c 128,-1,29
 577 178 577 178 577 138 c 0,30,31
 577 64 577 64 616 64 c 0,22,23
607 -10 m 0,32,33
 541 -10 541 -10 503 27 c 128,-1,34
 465 64 465 64 465 127 c 0,35,36
 465 210 465 210 516 266 c 128,-1,37
 567 322 567 322 650 322 c 0,38,39
 716 322 716 322 753.5 285.5 c 128,-1,40
 791 249 791 249 791 185 c 0,41,42
 791 102 791 102 740.5 46 c 128,-1,43
 690 -10 690 -10 607 -10 c 0,32,33
181 48 m 0,44,45
 577 594 577 594 647 700 c 1,46,47
 700 689 700 689 700 659 c 0,48,49
 700 642 700 642 685 622 c 0,50,51
 292 77 292 77 219 -32 c 1,52,53
 166 -16 166 -16 166 12 c 0,54,55
 166 28 166 28 181 48 c 0,44,45
EndSplineSet
EndChar

StartChar: ampersand
Encoding: 38 38 9
Width: 757
GlyphClass: 2
Flags: W
LayerCount: 2
Fore
SplineSet
789 403 m 0,0,1
 789 358 789 358 748.5 315 c 128,-1,2
 708 272 708 272 648 272 c 0,3,4
 629 272 629 272 621 273 c 1,5,6
 578 119 578 119 493 54 c 128,-1,7
 408 -11 408 -11 280 -11 c 0,8,9
 168 -11 168 -11 101.5 45 c 128,-1,10
 35 101 35 101 35 179 c 0,11,12
 35 240 35 240 69 292.5 c 128,-1,13
 103 345 103 345 175 375 c 1,14,15
 105 410 105 410 105 492 c 0,16,17
 105 566 105 566 175.5 620.5 c 128,-1,18
 246 675 246 675 348 675 c 0,19,20
 398 675 398 675 450 650 c 128,-1,21
 502 625 502 625 502 579 c 0,22,23
 502 556 502 556 480 538.5 c 128,-1,24
 458 521 458 521 410 517 c 1,25,26
 390 576 390 576 336 576 c 0,27,28
 302 576 302 576 279 555 c 128,-1,29
 256 534 256 534 256 499 c 0,30,31
 256 474 256 474 274.5 455.5 c 128,-1,32
 293 437 293 437 340 437 c 0,33,34
 350 437 350 437 356 438 c 1,35,36
 361 418 361 418 361 402 c 0,37,38
 361 353 361 353 315 344 c 0,39,40
 260 333 260 333 232 294 c 128,-1,41
 204 255 204 255 204 206 c 0,42,43
 204 158 204 158 235 123 c 128,-1,44
 266 88 266 88 319 88 c 0,45,46
 386 88 386 88 426 136.5 c 128,-1,47
 466 185 466 185 482 303 c 1,48,-1
 476 303 l 2,49,50
 436 303 436 303 410 281 c 1,51,52
 397 306 397 306 397 334 c 0,53,54
 397 363 397 363 414 380.5 c 128,-1,55
 431 398 431 398 459 398 c 0,56,57
 483 398 483 398 540 384 c 128,-1,58
 597 370 597 370 613 370 c 0,59,60
 656 370 656 370 656 402 c 0,61,62
 656 418 656 418 642 437 c 1,63,64
 671 468 671 468 723 468 c 0,65,66
 756 468 756 468 772.5 450 c 128,-1,67
 789 432 789 432 789 403 c 0,0,1
EndSplineSet
EndChar

StartChar: quotesingle
Encoding: 39 39 10
Width: 214
GlyphClass: 2
Flags: W
LayerCount: 2
Fore
SplineSet
176 737 m 0,0,1
 236 737 236 737 236 692 c 0,2,3
 236 652 236 652 192 504 c 1,4,5
 176 455 176 455 123 455 c 0,6,7
 97 455 97 455 76 463 c 1,8,9
 89 507 89 507 91 587.5 c 128,-1,10
 93 668 93 668 95 682 c 0,11,12
 98 709 98 709 115.5 723 c 128,-1,13
 133 737 133 737 176 737 c 0,0,1
EndSplineSet
EndChar

StartChar: parenleft
Encoding: 40 40 11
Width: 343
GlyphClass: 2
Flags: W
LayerCount: 2
Fore
SplineSet
74 178 m 0,0,1
 74 275 74 275 106 379 c 128,-1,2
 138 483 138 483 182 558 c 128,-1,3
 226 633 226 633 270.5 682 c 128,-1,4
 315 731 315 731 341 731 c 0,5,6
 359 731 359 731 375 708 c 1,7,8
 291 601 291 601 245.5 433.5 c 128,-1,9
 200 266 200 266 200 122 c 0,10,11
 200 -78 200 -78 257 -180 c 1,12,13
 237 -203 237 -203 218 -203 c 0,14,15
 198 -203 198 -203 173 -171.5 c 128,-1,16
 148 -140 148 -140 126 -89.5 c 128,-1,17
 104 -39 104 -39 89 33.5 c 128,-1,18
 74 106 74 106 74 178 c 0,0,1
EndSplineSet
EndChar

StartChar: parenright
Encoding: 41 41 12
Width: 343
GlyphClass: 2
Flags: W
LayerCount: 2
Fore
SplineSet
268 350 m 0,0,1
 268 251 268 251 235.5 146 c 128,-1,2
 203 41 203 41 158.5 -33 c 128,-1,3
 114 -107 114 -107 70 -155 c 128,-1,4
 26 -203 26 -203 1 -203 c 0,5,6
 -18 -203 -18 -203 -32 -180 c 1,7,8
 52 -70 52 -70 97 94 c 128,-1,9
 142 258 142 258 142 408 c 0,10,11
 142 606 142 606 85 708 c 1,12,13
 105 731 105 731 124 731 c 0,14,15
 144 731 144 731 169 699.5 c 128,-1,16
 194 668 194 668 216 617.5 c 128,-1,17
 238 567 238 567 253 494.5 c 128,-1,18
 268 422 268 422 268 350 c 0,0,1
EndSplineSet
EndChar

StartChar: asterisk
Encoding: 42 42 13
Width: 464
GlyphClass: 2
Flags: W
LayerCount: 2
Fore
SplineSet
339 703 m 0,0,1
 339 680 339 680 318 621 c 1,2,3
 398 674 398 674 411 686 c 1,4,5
 446 656 446 656 446 624 c 0,6,7
 446 579 446 579 317 548 c 1,8,9
 367 492 367 492 409 457 c 1,10,11
 396 437 396 437 374.5 423 c 128,-1,12
 353 409 353 409 331 409 c 0,13,14
 307 409 307 409 290.5 431.5 c 128,-1,15
 274 454 274 454 255 503 c 1,16,17
 243 486 243 486 175 392 c 1,18,19
 147 402 147 402 128.5 418 c 128,-1,20
 110 434 110 434 110 452 c 1,21,22
 113 489 113 489 208 552 c 1,23,24
 139 578 139 578 89 593 c 1,25,26
 97 623 97 623 116.5 643.5 c 128,-1,27
 136 664 136 664 162 664 c 0,28,29
 201 664 201 664 233 624 c 1,30,31
 233 634 233 634 234 657.5 c 128,-1,32
 235 681 235 681 235 695 c 0,33,34
 235 708 235 708 233 734 c 1,35,36
 265 743 265 743 283 743 c 0,37,38
 339 743 339 743 339 703 c 0,0,1
EndSplineSet
EndChar

StartChar: plus
Encoding: 43 43 14
Width: 574
GlyphClass: 2
Flags: W
LayerCount: 2
Fore
SplineSet
328 292 m 1,0,1
 433 292 433 292 536 303 c 1,2,3
 540 291 540 291 540 261 c 0,4,5
 540 236 540 236 525.5 218.5 c 128,-1,6
 511 201 511 201 488 201 c 0,7,8
 464 201 464 201 413 206 c 128,-1,9
 362 211 362 211 327 211 c 1,10,11
 327 132 327 132 338 9 c 1,12,13
 317 5 317 5 295 5 c 0,14,15
 271 5 271 5 253 18 c 128,-1,16
 235 31 235 31 235 56 c 0,17,18
 235 64 235 64 239 105.5 c 128,-1,19
 243 147 243 147 245 212 c 1,20,21
 199 212 199 212 39 201 c 1,22,23
 35 222 35 222 35 243 c 0,24,25
 35 266 35 266 47.5 284.5 c 128,-1,26
 60 303 60 303 87 303 c 0,27,28
 95 303 95 303 140.5 299 c 128,-1,29
 186 295 186 295 247 293 c 1,30,31
 247 396 247 396 235 495 c 1,32,33
 248 499 248 499 278 499 c 0,34,35
 303 499 303 499 320.5 485 c 128,-1,36
 338 471 338 471 338 448 c 0,37,38
 338 424 338 424 333 376 c 128,-1,39
 328 328 328 328 328 292 c 1,0,1
EndSplineSet
EndChar

StartChar: comma
Encoding: 44 44 15
Width: 248
GlyphClass: 2
Flags: W
LayerCount: 2
Fore
SplineSet
29 12 m 1,0,1
 23 27 23 27 23 43 c 0,2,3
 23 80 23 80 50.5 108 c 128,-1,4
 78 136 78 136 120 136 c 0,5,6
 157 136 157 136 175.5 111.5 c 128,-1,7
 194 87 194 87 194 47 c 0,8,9
 194 -25 194 -25 143.5 -94 c 128,-1,10
 93 -163 93 -163 24 -163 c 0,11,12
 -16 -163 -16 -163 -16 -130 c 0,13,14
 -16 -118 -16 -118 -11 -103 c 1,15,-1
 -7 -103 l 2,16,17
 20 -103 20 -103 42.5 -79 c 128,-1,18
 65 -55 65 -55 65 -29 c 0,19,20
 65 4 65 4 29 12 c 1,0,1
EndSplineSet
EndChar

StartChar: hyphen
Encoding: 45 45 16
Width: 275
GlyphClass: 2
Flags: W
LayerCount: 2
Fore
SplineSet
270 291 m 0,0,1
 270 250 270 250 249 226.5 c 128,-1,2
 228 203 228 203 188 203 c 0,3,4
 179 203 179 203 152 206.5 c 128,-1,5
 125 210 125 210 109 210 c 0,6,7
 74 210 74 210 27 194 c 1,8,9
 25 212 25 212 25 221 c 0,10,11
 25 317 25 317 108 317 c 0,12,13
 114 317 114 317 140.5 314 c 128,-1,14
 167 311 167 311 183 311 c 2,15,-1
 190 311 l 2,16,17
 230 311 230 311 266 326 c 1,18,19
 270 306 270 306 270 291 c 0,0,1
EndSplineSet
EndChar

StartChar: period
Encoding: 46 46 17
Width: 255
GlyphClass: 2
Flags: W
LayerCount: 2
Fore
SplineSet
103 -10 m 0,0,1
 64 -10 64 -10 43 13.5 c 128,-1,2
 22 37 22 37 22 71 c 0,3,4
 22 112 22 112 50.5 144.5 c 128,-1,5
 79 177 79 177 126 177 c 0,6,7
 164 177 164 177 185.5 151.5 c 128,-1,8
 207 126 207 126 207 91 c 0,9,10
 207 51 207 51 179.5 20.5 c 128,-1,11
 152 -10 152 -10 103 -10 c 0,0,1
EndSplineSet
EndChar

StartChar: slash
Encoding: 47 47 18
Width: 254
GlyphClass: 2
Flags: W
LayerCount: 2
Fore
SplineSet
247 742 m 1,0,1
 293 742 293 742 293 712 c 0,2,3
 293 692 293 692 176 296.5 c 128,-1,4
 59 -99 59 -99 59 -117 c 1,5,6
 37 -122 37 -122 25 -122 c 0,7,8
 -15 -122 -15 -122 -15 -89 c 0,9,10
 -15 -76 -15 -76 98 310 c 128,-1,11
 211 696 211 696 217 737 c 1,12,-1
 247 742 l 1,0,1
EndSplineSet
EndChar

StartChar: zero
Encoding: 48 48 19
Width: 574
GlyphClass: 2
Flags: W
LayerCount: 2
Fore
SplineSet
192 283 m 0,0,1
 192 200 192 200 211 144.5 c 128,-1,2
 230 89 230 89 267 89 c 0,3,4
 315 89 315 89 348 179 c 128,-1,5
 381 269 381 269 381 382 c 0,6,7
 381 463 381 463 362 518.5 c 128,-1,8
 343 574 343 574 306 574 c 0,9,10
 260 574 260 574 226 488 c 128,-1,11
 192 402 192 402 192 283 c 0,0,1
236 -10 m 0,12,13
 140 -10 140 -10 86 58.5 c 128,-1,14
 32 127 32 127 32 246 c 0,15,16
 32 358 32 358 68 454.5 c 128,-1,17
 104 551 104 551 174.5 612 c 128,-1,18
 245 673 245 673 336 673 c 0,19,20
 432 673 432 673 486.5 604.5 c 128,-1,21
 541 536 541 536 541 417 c 0,22,23
 541 306 541 306 505 210 c 128,-1,24
 469 114 469 114 398 52 c 128,-1,25
 327 -10 327 -10 236 -10 c 0,12,13
EndSplineSet
EndChar

StartChar: one
Encoding: 49 49 20
Width: 574
GlyphClass: 2
Flags: W
LayerCount: 2
Fore
SplineSet
357 93 m 1,0,1
 420 93 420 93 453 97 c 1,2,3
 455 85 455 85 455 73 c 0,4,5
 455 -2 455 -2 412 -2 c 0,6,7
 405 -2 405 -2 373.5 -1.5 c 128,-1,8
 342 -1 342 -1 291 -0.5 c 128,-1,9
 240 0 240 0 186 0 c 0,10,11
 114 0 114 0 85 -1 c 1,12,13
 83 19 83 19 83 26 c 0,14,15
 83 97 83 97 145 97 c 2,16,-1
 208 97 l 1,17,18
 211 122 211 122 224 208 c 128,-1,19
 237 294 237 294 245 351 c 0,20,21
 262 472 262 472 271 566 c 1,22,23
 175 555 175 555 159 552 c 1,24,25
 158 557 158 557 158 569 c 0,26,27
 158 646 158 646 219 657 c 1,28,29
 361 673 361 673 386 673 c 0,30,31
 404 673 404 673 417.5 661.5 c 128,-1,32
 431 650 431 650 431 623 c 0,33,34
 431 615 431 615 423.5 573.5 c 128,-1,35
 416 532 416 532 404 460.5 c 128,-1,36
 392 389 392 389 383 325 c 2,37,-1
 375 269 l 2,38,39
 360 160 360 160 357 93 c 1,0,1
EndSplineSet
EndChar

StartChar: two
Encoding: 50 50 21
Width: 574
GlyphClass: 2
Flags: W
LayerCount: 2
Fore
SplineSet
167 491 m 1,0,1
 135 494 135 494 111 515 c 128,-1,2
 87 536 87 536 87 561 c 0,3,4
 87 609 87 609 150 640.5 c 128,-1,5
 213 672 213 672 294 672 c 0,6,7
 389 672 389 672 448 629.5 c 128,-1,8
 507 587 507 587 507 492 c 0,9,10
 507 429 507 429 484 374.5 c 128,-1,11
 461 320 461 320 414.5 272.5 c 128,-1,12
 368 225 368 225 328 193 c 128,-1,13
 288 161 288 161 225 117 c 0,14,15
 217 112 217 112 213 109 c 1,16,17
 239 106 239 106 275 106 c 0,18,19
 401 106 401 106 473 135 c 1,20,21
 486 102 486 102 486 76 c 0,22,23
 486 57 486 57 480 43.5 c 128,-1,24
 474 30 474 30 460 22 c 128,-1,25
 446 14 446 14 431.5 9 c 128,-1,26
 417 4 417 4 390 1.5 c 128,-1,27
 363 -1 363 -1 342.5 -1.5 c 128,-1,28
 322 -2 322 -2 285 -2 c 0,29,30
 231 -2 231 -2 151 -1 c 128,-1,31
 71 0 71 0 43 0 c 0,32,33
 0 0 0 0 0 62 c 0,34,35
 0 82 0 82 5 102 c 1,36,37
 45 136 45 136 108.5 184 c 128,-1,38
 172 232 172 232 207 260.5 c 128,-1,39
 242 289 242 289 280.5 326.5 c 128,-1,40
 319 364 319 364 336 400 c 128,-1,41
 353 436 353 436 353 475 c 0,42,43
 353 521 353 521 330.5 547.5 c 128,-1,44
 308 574 308 574 274 574 c 0,45,46
 211 574 211 574 167 491 c 1,0,1
EndSplineSet
EndChar

StartChar: three
Encoding: 51 51 22
Width: 574
GlyphClass: 2
Flags: W
LayerCount: 2
Fore
SplineSet
349 364 m 1,0,1
 407 343 407 343 435.5 305 c 128,-1,2
 464 267 464 267 464 219 c 0,3,4
 464 117 464 117 377.5 53.5 c 128,-1,5
 291 -10 291 -10 173 -10 c 0,6,7
 99 -10 99 -10 61 13 c 128,-1,8
 23 36 23 36 23 66 c 0,9,10
 23 104 23 104 87 126 c 1,11,12
 113 89 113 89 181 89 c 0,13,14
 240 89 240 89 276 126.5 c 128,-1,15
 312 164 312 164 312 211 c 0,16,17
 312 251 312 251 279 279 c 128,-1,18
 246 307 246 307 189 307 c 0,19,20
 149 307 149 307 149 356 c 0,21,22
 149 374 149 374 154 396 c 1,23,24
 234 396 234 396 280 429.5 c 128,-1,25
 326 463 326 463 326 508 c 0,26,27
 326 536 326 536 309 555 c 128,-1,28
 292 574 292 574 263 574 c 0,29,30
 239 574 239 574 215 557 c 128,-1,31
 191 540 191 540 175 507 c 1,32,33
 139 507 139 507 119 523.5 c 128,-1,34
 99 540 99 540 99 564 c 0,35,36
 99 600 99 600 167 636.5 c 128,-1,37
 235 673 235 673 313 673 c 0,38,39
 396 673 396 673 441 635 c 128,-1,40
 486 597 486 597 486 541 c 0,41,42
 486 424 486 424 349 364 c 1,0,1
EndSplineSet
EndChar

StartChar: four
Encoding: 52 52 23
Width: 574
GlyphClass: 2
Flags: W
LayerCount: 2
Fore
SplineSet
334 653 m 0,0,1
 358 674 358 674 442 674 c 0,2,3
 479 674 479 674 500 671 c 1,4,5
 498 660 498 660 483.5 578 c 128,-1,6
 469 496 469 496 459.5 433.5 c 128,-1,7
 450 371 450 371 441 296 c 1,8,9
 512 302 512 302 534 312 c 1,10,11
 541 290 541 290 541 265 c 0,12,13
 541 219 541 219 514 204 c 0,14,15
 493 193 493 193 429 190 c 1,16,17
 418 80 418 80 418 54 c 0,18,19
 418 24 418 24 422 1 c 1,20,21
 387 -10 387 -10 342 -10 c 128,-1,22
 297 -10 297 -10 280 3.5 c 128,-1,23
 263 17 263 17 263 48 c 0,24,25
 263 53 263 53 284 189 c 1,26,27
 106 189 106 189 49 193 c 0,28,29
 24 194 24 194 24 241 c 0,30,31
 24 268 24 268 32 294 c 1,32,33
 79 363 79 363 183 487.5 c 128,-1,34
 287 612 287 612 334 653 c 0,0,1
183 292 m 1,35,36
 210 289 210 289 239 289 c 0,37,38
 275 289 275 289 299 293 c 1,39,40
 304 337 304 337 310 377.5 c 128,-1,41
 316 418 316 418 320.5 450 c 128,-1,42
 325 482 325 482 327 493 c 1,43,44
 306 468 306 468 281 433 c 128,-1,45
 256 398 256 398 226 354 c 128,-1,46
 196 310 196 310 183 292 c 1,35,36
EndSplineSet
EndChar

StartChar: five
Encoding: 53 53 24
Width: 574
GlyphClass: 2
Flags: W
LayerCount: 2
Fore
SplineSet
441 553 m 0,0,1
 374 553 374 553 278 559 c 1,2,-1
 256 447 l 1,3,4
 282 450 282 450 304 450 c 0,5,6
 395 450 395 450 443.5 404 c 128,-1,7
 492 358 492 358 492 271 c 0,8,9
 492 156 492 156 409 73 c 128,-1,10
 326 -10 326 -10 193 -10 c 0,11,12
 36 -10 36 -10 36 60 c 0,13,14
 36 100 36 100 78 128 c 1,15,16
 110 90 110 90 173 90 c 0,17,18
 235 90 235 90 282.5 130 c 128,-1,19
 330 170 330 170 330 239 c 0,20,21
 330 287 330 287 293.5 320 c 128,-1,22
 257 353 257 353 191 353 c 0,23,24
 150 353 150 353 118 347 c 1,25,26
 112 355 112 355 112 376 c 0,27,28
 112 382 112 382 162 664 c 1,29,30
 195 662 195 662 389 662 c 0,31,32
 470 662 470 662 519 670 c 1,33,34
 525 647 525 647 525 627 c 0,35,36
 525 553 525 553 441 553 c 0,0,1
EndSplineSet
EndChar

StartChar: six
Encoding: 54 54 25
Width: 574
GlyphClass: 2
Flags: W
LayerCount: 2
Fore
SplineSet
235 -10 m 0,0,1
 137 -10 137 -10 94.5 47 c 128,-1,2
 52 104 52 104 52 198 c 0,3,4
 52 262 52 262 69 329 c 128,-1,5
 86 396 86 396 120 457.5 c 128,-1,6
 154 519 154 519 199.5 567 c 128,-1,7
 245 615 245 615 307 644 c 128,-1,8
 369 673 369 673 437 673 c 0,9,10
 493 673 493 673 493 630 c 0,11,12
 493 603 493 603 479 580 c 1,13,14
 459 584 459 584 432 584 c 0,15,16
 349 584 349 584 293.5 518 c 128,-1,17
 238 452 238 452 218 350 c 1,18,19
 283 412 283 412 358 412 c 0,20,21
 417 412 417 412 456.5 369.5 c 128,-1,22
 496 327 496 327 496 247 c 0,23,24
 496 150 496 150 421.5 70 c 128,-1,25
 347 -10 347 -10 235 -10 c 0,0,1
279 314 m 0,26,27
 249 314 249 314 211 267 c 1,28,29
 207 241 207 241 207 209 c 0,30,31
 207 90 207 90 268 90 c 0,32,33
 297 90 297 90 316.5 131 c 128,-1,34
 336 172 336 172 336 223 c 0,35,36
 336 265 336 265 320.5 289.5 c 128,-1,37
 305 314 305 314 279 314 c 0,26,27
EndSplineSet
EndChar

StartChar: seven
Encoding: 55 55 26
Width: 574
GlyphClass: 2
Flags: W
LayerCount: 2
Fore
SplineSet
391 556 m 1,0,1
 259 551 259 551 145 551 c 0,2,3
 85 551 85 551 85 609 c 0,4,5
 85 640 85 640 98 670 c 1,6,7
 153 662 153 662 223 662 c 0,8,9
 495 662 495 662 552 664 c 1,10,11
 557 644 557 644 557 630 c 0,12,13
 557 600 557 600 535 549 c 1,14,15
 496 464 496 464 233 60 c 0,16,17
 188 -10 188 -10 138 -10 c 0,18,19
 93 -10 93 -10 45 48 c 1,20,21
 127 127 127 127 234 289 c 128,-1,22
 341 451 341 451 391 556 c 1,0,1
EndSplineSet
EndChar

StartChar: eight
Encoding: 56 56 27
Width: 574
GlyphClass: 2
Flags: W
LayerCount: 2
Fore
SplineSet
238 -10 m 0,0,1
 140 -10 140 -10 89 34.5 c 128,-1,2
 38 79 38 79 38 145 c 0,3,4
 38 225 38 225 82 280.5 c 128,-1,5
 126 336 126 336 193 367 c 1,6,7
 110 417 110 417 110 502 c 0,8,9
 110 577 110 577 175 625 c 128,-1,10
 240 673 240 673 334 673 c 0,11,12
 411 673 411 673 463 639 c 128,-1,13
 515 605 515 605 515 549 c 0,14,15
 515 430 515 430 389 367 c 1,16,17
 439 339 439 339 466.5 301 c 128,-1,18
 494 263 494 263 494 204 c 0,19,20
 494 117 494 117 427 53.5 c 128,-1,21
 360 -10 360 -10 238 -10 c 0,0,1
261 89 m 0,22,23
 294 89 294 89 316 124.5 c 128,-1,24
 338 160 338 160 338 205 c 0,25,26
 338 244 338 244 320.5 268 c 128,-1,27
 303 292 303 292 267 317 c 1,28,29
 195 264 195 264 195 175 c 0,30,31
 195 139 195 139 212.5 114 c 128,-1,32
 230 89 230 89 261 89 c 0,22,23
313 574 m 0,33,34
 294 574 294 574 278.5 554 c 128,-1,35
 263 534 263 534 263 505 c 0,36,37
 263 453 263 453 315 418 c 1,38,39
 362 459 362 459 362 522 c 0,40,41
 362 545 362 545 348 559.5 c 128,-1,42
 334 574 334 574 313 574 c 0,33,34
EndSplineSet
EndChar

StartChar: nine
Encoding: 57 57 28
Width: 574
GlyphClass: 2
Flags: W
LayerCount: 2
Fore
SplineSet
334 674 m 0,0,1
 519 674 519 674 519 468 c 0,2,3
 519 407 519 407 502 341 c 128,-1,4
 485 275 485 275 451 212.5 c 128,-1,5
 417 150 417 150 371.5 100.5 c 128,-1,6
 326 51 326 51 264 20.5 c 128,-1,7
 202 -10 202 -10 134 -10 c 0,8,9
 105 -10 105 -10 94 0.5 c 128,-1,10
 83 11 83 11 83 33 c 0,11,12
 83 44 83 44 89 84 c 1,13,14
 108 81 108 81 126 81 c 0,15,16
 212 81 212 81 270.5 149 c 128,-1,17
 329 217 329 217 350 314 c 1,18,19
 282 253 282 253 211 253 c 0,20,21
 152 253 152 253 113 297.5 c 128,-1,22
 74 342 74 342 74 417 c 0,23,24
 74 514 74 514 148 594 c 128,-1,25
 222 674 222 674 334 674 c 0,0,1
293 349 m 0,26,27
 324 349 324 349 362 397 c 1,28,29
 365 427 365 427 365 457 c 0,30,31
 365 576 365 576 305 576 c 0,32,33
 274 576 274 576 254.5 534.5 c 128,-1,34
 235 493 235 493 235 441 c 0,35,36
 235 398 235 398 250.5 373.5 c 128,-1,37
 266 349 266 349 293 349 c 0,26,27
EndSplineSet
EndChar

StartChar: colon
Encoding: 58 58 29
Width: 269
GlyphClass: 2
Flags: W
LayerCount: 2
Fore
SplineSet
103 -10 m 0,0,1
 64 -10 64 -10 43 13.5 c 128,-1,2
 22 37 22 37 22 71 c 0,3,4
 22 112 22 112 50.5 144.5 c 128,-1,5
 79 177 79 177 126 177 c 0,6,7
 164 177 164 177 185.5 151.5 c 128,-1,8
 207 126 207 126 207 91 c 0,9,10
 207 51 207 51 179.5 20.5 c 128,-1,11
 152 -10 152 -10 103 -10 c 0,0,1
141 298 m 0,12,13
 102 298 102 298 81 321.5 c 128,-1,14
 60 345 60 345 60 379 c 0,15,16
 60 420 60 420 88.5 452.5 c 128,-1,17
 117 485 117 485 164 485 c 0,18,19
 202 485 202 485 223.5 459.5 c 128,-1,20
 245 434 245 434 245 399 c 0,21,22
 245 359 245 359 217.5 328.5 c 128,-1,23
 190 298 190 298 141 298 c 0,12,13
EndSplineSet
EndChar

StartChar: semicolon
Encoding: 59 59 30
Width: 298
GlyphClass: 2
Flags: W
LayerCount: 2
Fore
SplineSet
156 298 m 0,0,1
 117 298 117 298 96 321.5 c 128,-1,2
 75 345 75 345 75 379 c 0,3,4
 75 420 75 420 103.5 452.5 c 128,-1,5
 132 485 132 485 179 485 c 0,6,7
 217 485 217 485 238.5 459.5 c 128,-1,8
 260 434 260 434 260 399 c 0,9,10
 260 359 260 359 232.5 328.5 c 128,-1,11
 205 298 205 298 156 298 c 0,0,1
29 12 m 1,12,13
 23 27 23 27 23 43 c 0,14,15
 23 80 23 80 50.5 108 c 128,-1,16
 78 136 78 136 120 136 c 0,17,18
 157 136 157 136 175.5 111.5 c 128,-1,19
 194 87 194 87 194 47 c 0,20,21
 194 -25 194 -25 143.5 -94 c 128,-1,22
 93 -163 93 -163 24 -163 c 0,23,24
 -16 -163 -16 -163 -16 -130 c 0,25,26
 -16 -118 -16 -118 -11 -103 c 1,27,-1
 -7 -103 l 2,28,29
 20 -103 20 -103 42.5 -79 c 128,-1,30
 65 -55 65 -55 65 -29 c 0,31,32
 65 4 65 4 29 12 c 1,12,13
EndSplineSet
EndChar

StartChar: less
Encoding: 60 60 31
Width: 574
GlyphClass: 2
Flags: W
LayerCount: 2
Fore
SplineSet
198 254 m 1,0,1
 217 235 217 235 258 198.5 c 128,-1,2
 299 162 299 162 350.5 117 c 128,-1,3
 402 72 402 72 420 56 c 1,4,5
 409 35 409 35 389.5 21 c 128,-1,6
 370 7 370 7 350 7 c 0,7,8
 331 7 331 7 314 23 c 1,9,-1
 89 254 l 1,10,-1
 316 470 l 1,11,12
 335 486 335 486 352 486 c 0,13,14
 373 486 373 486 393 471 c 128,-1,15
 413 456 413 456 422 437 c 1,16,17
 397 415 397 415 343.5 371.5 c 128,-1,18
 290 328 290 328 246 293 c 128,-1,19
 202 258 202 258 198 254 c 1,0,1
EndSplineSet
EndChar

StartChar: equal
Encoding: 61 61 32
Width: 574
GlyphClass: 2
Flags: W
LayerCount: 2
Fore
SplineSet
514 361 m 0,0,1
 514 336 514 336 500 318.5 c 128,-1,2
 486 301 486 301 463 301 c 0,3,4
 446 301 446 301 385 306.5 c 128,-1,5
 324 312 324 312 294 312 c 0,6,7
 181 312 181 312 78 301 c 1,8,9
 74 322 74 322 74 343 c 0,10,11
 74 366 74 366 86.5 384.5 c 128,-1,12
 99 403 99 403 125 403 c 0,13,14
 129 403 129 403 193 398 c 128,-1,15
 257 393 257 393 304 393 c 0,16,17
 440 393 440 393 509 403 c 1,18,19
 514 383 514 383 514 361 c 0,0,1
514 165 m 0,20,21
 514 140 514 140 500 122.5 c 128,-1,22
 486 105 486 105 463 105 c 0,23,24
 446 105 446 105 385 110.5 c 128,-1,25
 324 116 324 116 294 116 c 0,26,27
 181 116 181 116 78 105 c 1,28,29
 74 126 74 126 74 147 c 0,30,31
 74 170 74 170 86.5 188.5 c 128,-1,32
 99 207 99 207 125 207 c 0,33,34
 129 207 129 207 193 202 c 128,-1,35
 257 197 257 197 304 197 c 0,36,37
 440 197 440 197 509 207 c 1,38,39
 514 187 514 187 514 165 c 0,20,21
EndSplineSet
EndChar

StartChar: greater
Encoding: 62 62 33
Width: 574
GlyphClass: 2
Flags: W
LayerCount: 2
Fore
SplineSet
352 254 m 1,0,1
 351 255 351 255 272 331 c 128,-1,2
 193 407 193 407 165 437 c 1,3,4
 177 456 177 456 197 471 c 128,-1,5
 217 486 217 486 237 486 c 0,6,7
 253 486 253 486 269 470 c 1,8,-1
 454 254 l 1,9,-1
 212 23 l 2,10,11
 195 7 195 7 176 7 c 0,12,13
 158 7 158 7 141.5 21 c 128,-1,14
 125 35 125 35 118 56 c 1,15,16
 137 72 137 72 231.5 150.5 c 128,-1,17
 326 229 326 229 352 254 c 1,0,1
EndSplineSet
EndChar

StartChar: question
Encoding: 63 63 34
Width: 407
GlyphClass: 2
Flags: W
LayerCount: 2
Fore
SplineSet
244 250 m 1,0,1
 201 229 201 229 171 229 c 0,2,3
 97 229 97 229 97 282 c 0,4,5
 97 312 97 312 114 342.5 c 128,-1,6
 131 373 131 373 155.5 398.5 c 128,-1,7
 180 424 180 424 205 449.5 c 128,-1,8
 230 475 230 475 247 505 c 128,-1,9
 264 535 264 535 264 565 c 0,10,11
 264 608 264 608 217 608 c 0,12,13
 193 608 193 608 169 587.5 c 128,-1,14
 145 567 145 567 135 533 c 1,15,16
 54 543 54 543 54 591 c 0,17,18
 54 638 54 638 109.5 666.5 c 128,-1,19
 165 695 165 695 238 695 c 0,20,21
 304 695 304 695 357 666.5 c 128,-1,22
 410 638 410 638 410 576 c 0,23,24
 410 533 410 533 392.5 497.5 c 128,-1,25
 375 462 375 462 350.5 437 c 128,-1,26
 326 412 326 412 301 389 c 128,-1,27
 276 366 276 366 258.5 337.5 c 128,-1,28
 241 309 241 309 241 278 c 0,29,30
 241 265 241 265 244 250 c 1,0,1
138 -10 m 0,31,32
 106 -10 106 -10 85 11 c 128,-1,33
 64 32 64 32 64 65 c 0,34,35
 64 104 64 104 93 136 c 128,-1,36
 122 168 122 168 163 168 c 0,37,38
 194 168 194 168 215.5 145.5 c 128,-1,39
 237 123 237 123 237 90 c 0,40,41
 237 52 237 52 207 21 c 128,-1,42
 177 -10 177 -10 138 -10 c 0,31,32
EndSplineSet
EndChar

StartChar: at
Encoding: 64 64 35
Width: 847
GlyphClass: 2
Flags: W
LayerCount: 2
Fore
SplineSet
448 204 m 1,0,1
 455 227 455 227 469.5 281 c 128,-1,2
 484 335 484 335 486 341 c 1,3,4
 467 354 467 354 446 354 c 0,5,6
 420 354 420 354 400 324 c 128,-1,7
 380 294 380 294 371 259.5 c 128,-1,8
 362 225 362 225 362 197 c 0,9,10
 362 149 362 149 388 149 c 0,11,12
 418 149 418 149 448 204 c 1,0,1
323 54 m 0,13,14
 285 54 285 54 263 81 c 128,-1,15
 241 108 241 108 241 161 c 0,16,17
 241 225 241 225 268 288.5 c 128,-1,18
 295 352 295 352 348.5 397.5 c 128,-1,19
 402 443 402 443 468 443 c 0,20,21
 561 443 561 443 623 397 c 1,22,23
 557 221 557 221 557 150 c 0,24,25
 557 117 557 117 575 117 c 0,26,27
 604 117 604 117 638.5 193.5 c 128,-1,28
 673 270 673 270 673 354 c 0,29,30
 673 514 673 514 505 514 c 0,31,32
 420 514 420 514 343 457.5 c 128,-1,33
 266 401 266 401 222 315 c 128,-1,34
 178 229 178 229 178 143 c 0,35,36
 178 53 178 53 231.5 12 c 128,-1,37
 285 -29 285 -29 362 -29 c 0,38,39
 415 -29 415 -29 458.5 -12 c 128,-1,40
 502 5 502 5 514 30 c 1,41,42
 566 10 566 10 566 -22 c 0,43,44
 566 -62 566 -62 510.5 -88 c 128,-1,45
 455 -114 455 -114 377 -114 c 0,46,47
 323 -114 323 -114 272.5 -100 c 128,-1,48
 222 -86 222 -86 178 -57.5 c 128,-1,49
 134 -29 134 -29 107 21 c 128,-1,50
 80 71 80 71 80 136 c 0,51,52
 80 246 80 246 140 350.5 c 128,-1,53
 200 455 200 455 305.5 522.5 c 128,-1,54
 411 590 411 590 529 590 c 0,55,56
 649 590 649 590 716.5 530 c 128,-1,57
 784 470 784 470 784 373 c 0,58,59
 784 305 784 305 754 236 c 128,-1,60
 724 167 724 167 664 118 c 128,-1,61
 604 69 604 69 529 69 c 0,62,63
 457 69 457 69 447 146 c 1,64,65
 390 54 390 54 323 54 c 0,13,14
EndSplineSet
EndChar

StartChar: A
Encoding: 65 65 36
Width: 593
GlyphClass: 2
Flags: W
LayerCount: 2
Fore
SplineSet
405 30 m 0,0,1
 392 84 392 84 374 191 c 1,2,3
 333 188 333 188 290 188 c 0,4,5
 248 188 248 188 205 191 c 1,6,7
 131 13 131 13 122 -13 c 1,8,9
 -10 -10 -10 -10 -10 50 c 0,10,11
 -10 65 -10 65 3 92.5 c 128,-1,12
 16 120 16 120 55 196 c 128,-1,13
 94 272 94 272 130 349 c 0,14,15
 246 597 246 597 267 670 c 1,16,17
 317 676 317 676 349 676 c 0,18,19
 432 676 432 676 444 611 c 0,20,21
 486 382 486 382 507 293 c 0,22,23
 553 92 553 92 577 14 c 1,24,25
 517 -10 517 -10 470 -10 c 0,26,27
 414 -10 414 -10 405 30 c 0,0,1
335 549 m 1,28,29
 297 424 297 424 243 287 c 1,30,31
 275 285 275 285 309 285 c 0,32,33
 347 285 347 285 361 287 c 1,34,35
 345 419 345 419 335 549 c 1,28,29
EndSplineSet
EndChar

StartChar: B
Encoding: 66 66 37
Width: 566
GlyphClass: 2
Flags: W
LayerCount: 2
Fore
SplineSet
46 56 m 1,0,1
 74 167 74 167 102 387 c 0,2,3
 126 572 126 572 126 660 c 1,4,5
 208 673 208 673 301 673 c 0,6,7
 542 673 542 673 542 527 c 0,8,9
 542 464 542 464 509.5 420 c 128,-1,10
 477 376 477 376 426 362 c 1,11,12
 474 337 474 337 500 305.5 c 128,-1,13
 526 274 526 274 526 227 c 0,14,15
 526 120 526 120 451 55 c 128,-1,16
 376 -10 376 -10 270 -10 c 0,17,18
 116 -10 116 -10 46 56 c 1,0,1
280 91 m 0,19,20
 319 91 319 91 346.5 124 c 128,-1,21
 374 157 374 157 374 211 c 0,22,23
 374 311 374 311 282 311 c 0,24,25
 266 311 266 311 246 308 c 1,26,27
 231 200 231 200 211 111 c 1,28,29
 235 91 235 91 280 91 c 0,19,20
277 566 m 1,30,31
 268 470 268 470 259 402 c 1,32,33
 277 400 277 400 288 400 c 0,34,35
 391 400 391 400 391 499 c 0,36,37
 391 534 391 534 370 553 c 128,-1,38
 349 572 349 572 316 572 c 0,39,40
 296 572 296 572 277 566 c 1,30,31
EndSplineSet
EndChar

StartChar: C
Encoding: 67 67 38
Width: 568
GlyphClass: 2
Flags: W
LayerCount: 2
Fore
SplineSet
456 170 m 1,0,1
 530 143 530 143 530 102 c 0,2,3
 530 60 530 60 465 25 c 128,-1,4
 400 -10 400 -10 311 -10 c 0,5,6
 187 -10 187 -10 115.5 64.5 c 128,-1,7
 44 139 44 139 44 264 c 0,8,9
 44 368 44 368 78.5 450 c 128,-1,10
 113 532 113 532 168 579 c 128,-1,11
 223 626 223 626 284.5 649.5 c 128,-1,12
 346 673 346 673 408 673 c 0,13,14
 483 673 483 673 533 641 c 128,-1,15
 583 609 583 609 583 555 c 0,16,17
 583 526 583 526 557 507.5 c 128,-1,18
 531 489 531 489 489 484 c 1,19,20
 480 528 480 528 452.5 550 c 128,-1,21
 425 572 425 572 390 572 c 0,22,23
 310 572 310 572 261 486.5 c 128,-1,24
 212 401 212 401 212 287 c 0,25,26
 212 200 212 200 245 145.5 c 128,-1,27
 278 91 278 91 345 91 c 0,28,29
 411 91 411 91 456 170 c 1,0,1
EndSplineSet
EndChar

StartChar: D
Encoding: 68 68 39
Width: 669
GlyphClass: 2
Flags: W
LayerCount: 2
Fore
SplineSet
279 570 m 1,0,1
 259 327 259 327 215 116 c 1,2,3
 251 91 251 91 307 91 c 0,4,5
 356 91 356 91 393.5 119.5 c 128,-1,6
 431 148 431 148 450.5 193.5 c 128,-1,7
 470 239 470 239 479 286.5 c 128,-1,8
 488 334 488 334 488 382 c 0,9,10
 488 477 488 477 444.5 524.5 c 128,-1,11
 401 572 401 572 320 572 c 0,12,13
 305 572 305 572 279 570 c 1,0,1
46 53 m 1,14,15
 75 184 75 184 98.5 357.5 c 128,-1,16
 122 531 122 531 125 661 c 1,17,18
 191 673 191 673 298 673 c 0,19,20
 652 673 652 673 652 404 c 0,21,22
 652 324 652 324 626 250.5 c 128,-1,23
 600 177 600 177 552.5 118.5 c 128,-1,24
 505 60 505 60 430 25 c 128,-1,25
 355 -10 355 -10 264 -10 c 0,26,27
 117 -10 117 -10 46 53 c 1,14,15
EndSplineSet
EndChar

StartChar: E
Encoding: 69 69 40
Width: 521
GlyphClass: 2
Flags: W
LayerCount: 2
Fore
SplineSet
517 540 m 1,0,1
 471 561 471 561 358 561 c 0,2,3
 326 561 326 561 276 558 c 1,4,5
 274 524 274 524 258 406 c 1,6,7
 391 406 391 406 423 410 c 1,8,9
 425 390 425 390 425 375 c 0,10,11
 425 310 425 310 381 305 c 0,12,13
 357 303 357 303 243 303 c 1,14,15
 223 140 223 140 223 101 c 1,16,17
 251 99 251 99 287 99 c 0,18,19
 340 99 340 99 395.5 105.5 c 128,-1,20
 451 112 451 112 468 121 c 1,21,22
 476 83 476 83 476 65 c 0,23,24
 476 17 476 17 441 7 c 128,-1,25
 406 -3 406 -3 283 -3 c 0,26,27
 130 -3 130 -3 98 -1 c 0,28,29
 74 0 74 0 64 8 c 128,-1,30
 54 16 54 16 54 34 c 0,31,32
 54 62 54 62 87.5 306 c 128,-1,33
 121 550 121 550 121 631 c 0,34,35
 121 649 121 649 120 656 c 1,36,37
 238 665 238 665 356 665 c 0,38,39
 509 665 509 665 528 646 c 0,40,41
 536 638 536 638 536 618 c 0,42,43
 536 578 536 578 517 540 c 1,0,1
EndSplineSet
EndChar

StartChar: F
Encoding: 70 70 41
Width: 497
GlyphClass: 2
Flags: W
LayerCount: 2
Fore
SplineSet
104 437 m 0,0,1
 121 568 121 568 121 631 c 0,2,3
 121 649 121 649 120 656 c 1,4,5
 238 665 238 665 361 665 c 0,6,7
 514 665 514 665 533 646 c 0,8,9
 541 638 541 638 541 618 c 0,10,11
 541 578 541 578 522 540 c 1,12,13
 476 561 476 561 363 561 c 0,14,15
 326 561 326 561 276 558 c 1,16,17
 274 524 274 524 258 406 c 1,18,19
 391 406 391 406 423 410 c 1,20,21
 425 390 425 390 425 375 c 0,22,23
 425 310 425 310 381 305 c 0,24,25
 357 303 357 303 243 303 c 1,26,-1
 230 199 l 1,27,28
 218 113 218 113 218 67 c 0,29,30
 218 33 218 33 222 8 c 1,31,32
 189 -3 189 -3 131 -3 c 0,33,34
 89 -3 89 -3 71.5 12 c 128,-1,35
 54 27 54 27 54 59 c 0,36,37
 54 65 54 65 59 100.5 c 128,-1,38
 64 136 64 136 77 231.5 c 128,-1,39
 90 327 90 327 104 437 c 0,0,1
EndSplineSet
EndChar

StartChar: G
Encoding: 71 71 42
Width: 600
GlyphClass: 2
Flags: W
LayerCount: 2
Fore
SplineSet
409 295 m 1,0,1
 445 304 445 304 482 304 c 0,2,3
 566 304 566 304 566 253 c 0,4,5
 566 248 566 248 560 223.5 c 128,-1,6
 554 199 554 199 545.5 157.5 c 128,-1,7
 537 116 537 116 532 78 c 1,8,9
 524 40 524 40 460.5 15 c 128,-1,10
 397 -10 397 -10 310 -10 c 0,11,12
 186 -10 186 -10 115 64.5 c 128,-1,13
 44 139 44 139 44 264 c 0,14,15
 44 447 44 447 148 560 c 128,-1,16
 252 673 252 673 415 673 c 0,17,18
 487 673 487 673 535 640 c 128,-1,19
 583 607 583 607 583 556 c 0,20,21
 583 527 583 527 557 508 c 128,-1,22
 531 489 531 489 489 484 c 1,23,24
 480 528 480 528 453 550 c 128,-1,25
 426 572 426 572 392 572 c 0,26,27
 314 572 314 572 263 490 c 128,-1,28
 212 408 212 408 212 293 c 0,29,30
 212 203 212 203 240 147 c 128,-1,31
 268 91 268 91 323 91 c 0,32,33
 367 91 367 91 396 123 c 1,34,35
 403 208 403 208 409 295 c 1,0,1
EndSplineSet
EndChar

StartChar: H
Encoding: 72 72 43
Width: 668
GlyphClass: 2
Flags: W
LayerCount: 2
Fore
SplineSet
570 666 m 0,0,1
 652 666 652 666 652 613 c 0,2,3
 652 608 652 608 647.5 581 c 128,-1,4
 643 554 643 554 634.5 501 c 128,-1,5
 626 448 626 448 619 392 c 2,6,-1
 594 199 l 2,7,8
 582 113 582 113 582 67 c 0,9,10
 582 33 582 33 586 8 c 1,11,12
 553 -3 553 -3 495 -3 c 0,13,14
 453 -3 453 -3 435.5 12 c 128,-1,15
 418 27 418 27 418 59 c 0,16,17
 418 65 418 65 421 88 c 128,-1,18
 424 111 424 111 433 177.5 c 128,-1,19
 442 244 442 244 451 309 c 1,20,21
 437 309 437 309 409 308.5 c 128,-1,22
 381 308 381 308 366 308 c 0,23,24
 326 308 326 308 244 310 c 1,25,-1
 230 199 l 1,26,27
 218 113 218 113 218 67 c 0,28,29
 218 33 218 33 222 8 c 1,30,31
 189 -3 189 -3 131 -3 c 0,32,33
 89 -3 89 -3 71.5 12 c 128,-1,34
 54 27 54 27 54 59 c 0,35,36
 54 65 54 65 59 100.5 c 128,-1,37
 64 136 64 136 77 231.5 c 128,-1,38
 90 327 90 327 104 437 c 0,39,40
 123 590 123 590 126 660 c 1,41,42
 157 666 157 666 206 666 c 0,43,44
 288 666 288 666 288 613 c 0,45,46
 288 608 288 608 283.5 583.5 c 128,-1,47
 279 559 279 559 271 509.5 c 128,-1,48
 263 460 263 460 257 409 c 1,49,50
 296 408 296 408 376 408 c 0,51,52
 434 408 434 408 464 409 c 1,53,-1
 468 437 l 1,54,55
 487 590 487 590 490 660 c 1,56,57
 521 666 521 666 570 666 c 0,0,1
EndSplineSet
EndChar

StartChar: I
Encoding: 73 73 44
Width: 304
GlyphClass: 2
Flags: W
LayerCount: 2
Fore
SplineSet
206 666 m 0,0,1
 288 666 288 666 288 613 c 0,2,3
 288 608 288 608 283.5 581 c 128,-1,4
 279 554 279 554 270.5 501 c 128,-1,5
 262 448 262 448 255 392 c 2,6,-1
 230 199 l 2,7,8
 218 113 218 113 218 67 c 0,9,10
 218 33 218 33 222 8 c 1,11,12
 189 -3 189 -3 131 -3 c 0,13,14
 89 -3 89 -3 71.5 12 c 128,-1,15
 54 27 54 27 54 59 c 0,16,17
 54 65 54 65 59 100.5 c 128,-1,18
 64 136 64 136 77 231.5 c 128,-1,19
 90 327 90 327 104 437 c 0,20,21
 123 590 123 590 126 660 c 1,22,23
 157 666 157 666 206 666 c 0,0,1
EndSplineSet
EndChar

StartChar: J
Encoding: 74 74 45
Width: 378
GlyphClass: 2
Flags: W
LayerCount: 2
Fore
SplineSet
1 -16 m 1,0,1
 77 -10 77 -10 103 28.5 c 128,-1,2
 129 67 129 67 142 164 c 2,3,-1
 179 441 l 2,4,5
 192 536 192 536 200 660 c 1,6,7
 234 666 234 666 280 666 c 0,8,9
 362 666 362 666 362 613 c 0,10,11
 362 607 362 607 357.5 579 c 128,-1,12
 353 551 353 551 344.5 500 c 128,-1,13
 336 449 336 449 330 407 c 2,14,-1
 289 122 l 2,15,16
 273 16 273 16 207.5 -51.5 c 128,-1,17
 142 -119 142 -119 59 -119 c 0,18,19
 0 -119 0 -119 0 -45 c 0,20,21
 0 -26 0 -26 1 -16 c 1,0,1
EndSplineSet
EndChar

StartChar: K
Encoding: 75 75 46
Width: 577
GlyphClass: 2
Flags: W
LayerCount: 2
Fore
SplineSet
206 666 m 0,0,1
 288 666 288 666 288 613 c 0,2,3
 288 608 288 608 283.5 583.5 c 128,-1,4
 279 559 279 559 271 511 c 128,-1,5
 263 463 263 463 257 413 c 1,6,7
 366 500 366 500 412.5 558 c 128,-1,8
 459 616 459 616 476 668 c 1,9,10
 573 652 573 652 573 606 c 0,11,12
 573 566 573 566 531.5 522.5 c 128,-1,13
 490 479 490 479 365 379 c 1,14,15
 412 276 412 276 498 126 c 0,16,17
 508 107 508 107 520 102.5 c 128,-1,18
 532 98 532 98 555 98 c 0,19,20
 564 98 564 98 574 101 c 1,21,22
 577 85 577 85 577 70 c 0,23,24
 577 -10 577 -10 489 -10 c 0,25,26
 455 -10 455 -10 432 2 c 128,-1,27
 409 14 409 14 385 47 c 0,28,29
 355 88 355 88 317 160.5 c 128,-1,30
 279 233 279 233 256 298 c 1,31,-1
 241 288 l 1,32,-1
 230 199 l 1,33,34
 218 113 218 113 218 67 c 0,35,36
 218 33 218 33 222 8 c 1,37,38
 189 -3 189 -3 131 -3 c 0,39,40
 89 -3 89 -3 71.5 12 c 128,-1,41
 54 27 54 27 54 59 c 0,42,43
 54 65 54 65 59 100.5 c 128,-1,44
 64 136 64 136 77 231.5 c 128,-1,45
 90 327 90 327 104 437 c 0,46,47
 123 590 123 590 126 660 c 1,48,49
 157 666 157 666 206 666 c 0,0,1
EndSplineSet
EndChar

StartChar: L
Encoding: 76 76 47
Width: 454
GlyphClass: 2
Flags: W
LayerCount: 2
Fore
SplineSet
107 454 m 1,0,1
 119 547 119 547 126 660 c 1,2,3
 155 666 155 666 203 666 c 0,4,5
 288 666 288 666 288 614 c 0,6,7
 288 608 288 608 282.5 578.5 c 128,-1,8
 277 549 277 549 268.5 499 c 128,-1,9
 260 449 260 449 254 408 c 0,10,11
 250 382 250 382 245.5 348 c 128,-1,12
 241 314 241 314 238.5 296.5 c 128,-1,13
 236 279 236 279 232.5 255.5 c 128,-1,14
 229 232 229 232 227.5 220.5 c 128,-1,15
 226 209 226 209 224 193 c 128,-1,16
 222 177 222 177 221 169 c 128,-1,17
 220 161 220 161 219 150 c 128,-1,18
 218 139 218 139 218 132 c 128,-1,19
 218 125 218 125 217.5 117 c 128,-1,20
 217 109 217 109 217 101 c 1,21,22
 231 100 231 100 265 100 c 0,23,24
 317 100 317 100 371.5 106.5 c 128,-1,25
 426 113 426 113 443 122 c 1,26,27
 454 93 454 93 454 63 c 0,28,29
 454 47 454 47 449 36 c 128,-1,30
 444 25 444 25 432 18 c 128,-1,31
 420 11 420 11 408.5 6.5 c 128,-1,32
 397 2 397 2 375 0.5 c 128,-1,33
 353 -1 353 -1 337 -1.5 c 128,-1,34
 321 -2 321 -2 292 -2 c 0,35,36
 151 -2 151 -2 106 1 c 1,37,38
 54 6 54 6 54 55 c 0,39,40
 54 95 54 95 107 454 c 1,0,1
EndSplineSet
EndChar

StartChar: M
Encoding: 77 77 48
Width: 830
GlyphClass: 2
Flags: W
LayerCount: 2
Fore
SplineSet
770 436 m 1,0,-1
 737 203 l 2,1,2
 723 111 723 111 723 59 c 0,3,4
 723 33 723 33 727 8 c 1,5,6
 691 -3 691 -3 632 -3 c 0,7,8
 592 -3 592 -3 575.5 13 c 128,-1,9
 559 29 559 29 559 61 c 0,10,11
 559 97 559 97 633 463 c 1,12,13
 510 185 510 185 460 3 c 1,14,15
 427 -2 427 -2 401 -2 c 0,16,17
 323 -2 323 -2 312 46 c 0,18,19
 290 145 290 145 239 463 c 1,20,21
 207 146 207 146 207 59 c 0,22,23
 207 39 207 39 211 5 c 1,24,25
 176 -3 176 -3 126 -3 c 0,26,27
 54 -3 54 -3 54 55 c 0,28,29
 54 64 54 64 58 90 c 128,-1,30
 62 116 62 116 69 160 c 128,-1,31
 76 204 76 204 80 231 c 2,32,-1
 116 483 l 2,33,34
 126 555 126 555 126 610 c 0,35,36
 126 636 126 636 123 659 c 1,37,38
 171 667 171 667 222 667 c 0,39,40
 275 667 275 667 296.5 647 c 128,-1,41
 318 627 318 627 332 573 c 0,42,43
 345 523 345 523 357 462.5 c 128,-1,44
 369 402 369 402 375.5 363 c 128,-1,45
 382 324 382 324 394 248 c 128,-1,46
 406 172 406 172 411 142 c 1,47,48
 497 404 497 404 602 609 c 0,49,50
 633 670 633 670 722 670 c 0,51,52
 763 670 763 670 814 659 c 1,53,54
 790 594 790 594 770 436 c 1,0,-1
EndSplineSet
EndChar

StartChar: N
Encoding: 78 78 49
Width: 648
GlyphClass: 2
Flags: W
LayerCount: 2
Fore
SplineSet
554 5 m 1,0,1
 525 -3 525 -3 492 -3 c 0,2,3
 419 -3 419 -3 400 42 c 0,4,5
 375 98 375 98 325 235.5 c 128,-1,6
 275 373 275 373 248 436 c 1,7,8
 208 133 208 133 208 63 c 0,9,10
 208 43 208 43 212 9 c 1,11,12
 179 -3 179 -3 136 -3 c 0,13,14
 90 -3 90 -3 72 11.5 c 128,-1,15
 54 26 54 26 54 57 c 0,16,17
 54 66 54 66 58.5 96 c 128,-1,18
 63 126 63 126 69.5 170.5 c 128,-1,19
 76 215 76 215 80 243 c 0,20,21
 87 303 87 303 99 390.5 c 128,-1,22
 111 478 111 478 115.5 521 c 128,-1,23
 120 564 120 564 120 602 c 0,24,25
 120 634 120 634 116 655 c 1,26,27
 154 667 154 667 193 667 c 0,28,29
 262 667 262 667 292 618 c 0,30,31
 302 602 302 602 315.5 574 c 128,-1,32
 329 546 329 546 345.5 506 c 128,-1,33
 362 466 362 466 375.5 433 c 128,-1,34
 389 400 389 400 409.5 348 c 128,-1,35
 430 296 430 296 441 270 c 1,36,-1
 458 429 l 1,37,38
 477 589 477 589 481 660 c 1,39,40
 512 666 512 666 548 666 c 0,41,42
 632 666 632 666 632 607 c 0,43,44
 632 600 632 600 626 567 c 128,-1,45
 620 534 620 534 611.5 483.5 c 128,-1,46
 603 433 603 433 598 392 c 128,-1,47
 593 351 593 351 580.5 257.5 c 128,-1,48
 568 164 568 164 562.5 109.5 c 128,-1,49
 557 55 557 55 554 5 c 1,0,1
EndSplineSet
EndChar

StartChar: O
Encoding: 79 79 50
Width: 672
GlyphClass: 2
Flags: W
LayerCount: 2
Fore
SplineSet
368 572 m 0,0,1
 299 572 299 572 255.5 491 c 128,-1,2
 212 410 212 410 212 295 c 0,3,4
 212 207 212 207 240.5 149 c 128,-1,5
 269 91 269 91 329 91 c 0,6,7
 401 91 401 91 443.5 175 c 128,-1,8
 486 259 486 259 486 374 c 0,9,10
 486 459 486 459 457.5 515.5 c 128,-1,11
 429 572 429 572 368 572 c 0,0,1
301 -10 m 0,12,13
 180 -10 180 -10 112 63.5 c 128,-1,14
 44 137 44 137 44 263 c 0,15,16
 44 438 44 438 141.5 555.5 c 128,-1,17
 239 673 239 673 395 673 c 0,18,19
 517 673 517 673 586 601 c 128,-1,20
 655 529 655 529 655 402 c 0,21,22
 655 230 655 230 557 110 c 128,-1,23
 459 -10 459 -10 301 -10 c 0,12,13
EndSplineSet
EndChar

StartChar: P
Encoding: 80 80 51
Width: 550
GlyphClass: 2
Flags: W
LayerCount: 2
Fore
SplineSet
237 255 m 1,0,1
 218 100 218 100 218 67 c 0,2,3
 218 33 218 33 222 8 c 1,4,5
 189 -3 189 -3 131 -3 c 0,6,7
 89 -3 89 -3 71.5 12 c 128,-1,8
 54 27 54 27 54 59 c 0,9,10
 54 65 54 65 59.5 101 c 128,-1,11
 65 137 65 137 77.5 231 c 128,-1,12
 90 325 90 325 104 437 c 0,13,14
 122 592 122 592 122 661 c 1,15,16
 201 673 201 673 286 673 c 0,17,18
 338 673 338 673 380.5 664.5 c 128,-1,19
 423 656 423 656 460.5 636 c 128,-1,20
 498 616 498 616 519 578.5 c 128,-1,21
 540 541 540 541 540 488 c 0,22,23
 540 366 540 366 475.5 294.5 c 128,-1,24
 411 223 411 223 330 223 c 0,25,26
 274 223 274 223 237 255 c 1,0,1
313 573 m 0,27,28
 295 573 295 573 274 569 c 1,29,30
 264 458 264 458 257 408 c 2,31,-1
 247 342 l 1,32,33
 276 324 276 324 299 324 c 0,34,35
 338 324 338 324 362 366.5 c 128,-1,36
 386 409 386 409 386 477 c 0,37,38
 386 531 386 531 367 552 c 128,-1,39
 348 573 348 573 313 573 c 0,27,28
EndSplineSet
EndChar

StartChar: Q
Encoding: 81 81 52
Width: 672
GlyphClass: 2
Flags: W
LayerCount: 2
Fore
SplineSet
655 402 m 0,0,1
 655 245 655 245 573 130 c 128,-1,2
 491 15 491 15 354 -6 c 1,3,4
 377 -49 377 -49 429.5 -70 c 128,-1,5
 482 -91 482 -91 546 -91 c 0,6,7
 647 -91 647 -91 693 -2 c 1,8,9
 758 -33 758 -33 758 -81 c 0,10,11
 758 -124 758 -124 726 -152 c 128,-1,12
 694 -180 694 -180 656 -189 c 128,-1,13
 618 -198 618 -198 577 -198 c 0,14,15
 320 -198 320 -198 252 -6 c 1,16,17
 153 8 153 8 98.5 79 c 128,-1,18
 44 150 44 150 44 263 c 0,19,20
 44 438 44 438 141.5 556 c 128,-1,21
 239 674 239 674 395 674 c 0,22,23
 517 674 517 674 586 601.5 c 128,-1,24
 655 529 655 529 655 402 c 0,0,1
368 572 m 0,25,26
 299 572 299 572 255.5 491 c 128,-1,27
 212 410 212 410 212 295 c 0,28,29
 212 207 212 207 240.5 149 c 128,-1,30
 269 91 269 91 329 91 c 0,31,32
 401 91 401 91 443.5 175 c 128,-1,33
 486 259 486 259 486 374 c 0,34,35
 486 459 486 459 457.5 515.5 c 128,-1,36
 429 572 429 572 368 572 c 0,25,26
EndSplineSet
EndChar

StartChar: R
Encoding: 82 82 53
Width: 586
GlyphClass: 2
Flags: W
LayerCount: 2
Fore
SplineSet
491 123 m 0,0,1
 500 109 500 109 509.5 103.5 c 128,-1,2
 519 98 519 98 540 98 c 0,3,4
 554 98 554 98 565 101 c 1,5,6
 568 83 568 83 568 65 c 0,7,8
 568 27 568 27 543 8.5 c 128,-1,9
 518 -10 518 -10 480 -10 c 0,10,11
 419 -10 419 -10 392 17.5 c 128,-1,12
 365 45 365 45 340 115 c 0,13,14
 315 184 315 184 290 264 c 1,15,16
 282 273 282 273 282 292 c 0,17,18
 282 319 282 319 295 345 c 1,19,20
 299 344 299 344 307 344 c 0,21,22
 327 344 327 344 341.5 358 c 128,-1,23
 356 372 356 372 363 394 c 128,-1,24
 370 416 370 416 373 437.5 c 128,-1,25
 376 459 376 459 376 480 c 0,26,27
 376 536 376 536 360 555 c 128,-1,28
 344 574 344 574 308 574 c 0,29,30
 287 574 287 574 274 570 c 1,31,32
 269 506 269 506 256 402 c 2,33,-1
 230 199 l 2,34,35
 218 98 218 98 218 61 c 0,36,37
 218 29 218 29 222 8 c 1,38,39
 189 -3 189 -3 131 -3 c 0,40,41
 54 -3 54 -3 54 54 c 0,42,43
 54 65 54 65 57.5 92 c 128,-1,44
 61 119 61 119 67.5 162 c 128,-1,45
 74 205 74 205 77 231 c 2,46,-1
 103 431 l 2,47,48
 121 564 121 564 121 661 c 1,49,50
 200 673 200 673 286 673 c 0,51,52
 421 673 421 673 483 620 c 128,-1,53
 545 567 545 567 545 487 c 0,54,55
 545 412 545 412 510.5 356 c 128,-1,56
 476 300 476 300 424 288 c 1,57,58
 461 171 461 171 491 123 c 0,0,1
EndSplineSet
EndChar

StartChar: S
Encoding: 83 83 54
Width: 520
GlyphClass: 2
Flags: W
LayerCount: 2
Fore
SplineSet
432 490 m 1,0,1
 423 525 423 525 393 545.5 c 128,-1,2
 363 566 363 566 330 566 c 0,3,4
 291 566 291 566 263.5 541 c 128,-1,5
 236 516 236 516 236 470 c 0,6,7
 236 442 236 442 261.5 424.5 c 128,-1,8
 287 407 287 407 323.5 395.5 c 128,-1,9
 360 384 360 384 397 369 c 128,-1,10
 434 354 434 354 459.5 319.5 c 128,-1,11
 485 285 485 285 485 233 c 0,12,13
 485 118 485 118 411.5 54 c 128,-1,14
 338 -10 338 -10 213 -10 c 0,15,16
 139 -10 139 -10 81 20.5 c 128,-1,17
 23 51 23 51 23 94 c 0,18,19
 23 148 23 148 98 172 c 1,20,21
 113 136 113 136 148 114.5 c 128,-1,22
 183 93 183 93 221 93 c 0,23,24
 263 93 263 93 292.5 119.5 c 128,-1,25
 322 146 322 146 322 198 c 0,26,27
 322 219 322 219 309 234 c 128,-1,28
 296 249 296 249 274.5 257 c 128,-1,29
 253 265 253 265 227.5 273 c 128,-1,30
 202 281 202 281 177 293 c 128,-1,31
 152 305 152 305 130.5 322 c 128,-1,32
 109 339 109 339 96 371 c 128,-1,33
 83 403 83 403 83 446 c 0,34,35
 83 552 83 552 158 611.5 c 128,-1,36
 233 671 233 671 349 671 c 0,37,38
 411 671 411 671 465.5 644 c 128,-1,39
 520 617 520 617 520 570 c 0,40,41
 520 541 520 541 499 519 c 128,-1,42
 478 497 478 497 432 490 c 1,0,1
EndSplineSet
EndChar

StartChar: T
Encoding: 84 84 55
Width: 475
GlyphClass: 2
Flags: W
LayerCount: 2
Fore
SplineSet
43 558 m 1,0,1
 41 576 41 576 41 592 c 0,2,3
 41 658 41 658 91 660 c 0,4,5
 114 661 114 661 188 661 c 2,6,-1
 367 661 l 2,7,8
 506 661 506 661 538 664 c 1,9,10
 541 628 541 628 541 626 c 0,11,12
 541 564 541 564 492 563 c 0,13,14
 463 562 463 562 362 562 c 1,15,16
 356 521 356 521 344 436 c 128,-1,17
 332 351 332 351 326.5 310.5 c 128,-1,18
 321 270 321 270 314 214 c 128,-1,19
 307 158 307 158 304 123 c 128,-1,20
 301 88 301 88 301 65 c 0,21,22
 301 33 301 33 305 8 c 1,23,24
 272 -3 272 -3 215 -3 c 0,25,26
 173 -3 173 -3 155 12 c 128,-1,27
 137 27 137 27 137 59 c 0,28,29
 137 70 137 70 148 145.5 c 128,-1,30
 159 221 159 221 175 342 c 128,-1,31
 191 463 191 463 201 560 c 1,32,33
 86 560 86 560 43 558 c 1,0,1
EndSplineSet
EndChar

StartChar: U
Encoding: 85 85 56
Width: 664
GlyphClass: 2
Flags: W
LayerCount: 2
Fore
SplineSet
442 274 m 1,0,1
 482 576 482 576 486 660 c 1,2,3
 517 666 517 666 566 666 c 0,4,5
 648 666 648 666 648 613 c 0,6,7
 648 608 648 608 643.5 581 c 128,-1,8
 639 554 639 554 630.5 501 c 128,-1,9
 622 448 622 448 615 392 c 2,10,-1
 591 199 l 1,11,12
 579 113 579 113 579 67 c 0,13,14
 579 33 579 33 583 8 c 1,15,16
 547 -3 547 -3 491 -3 c 0,17,18
 444 -3 444 -3 429 13.5 c 128,-1,19
 414 30 414 30 414 65 c 0,20,21
 414 68 414 68 415.5 77 c 128,-1,22
 417 86 417 86 419 102 c 128,-1,23
 421 118 421 118 423 132 c 1,24,25
 380 64 380 64 323 27 c 128,-1,26
 266 -10 266 -10 211 -10 c 0,27,28
 144 -10 144 -10 107.5 38 c 128,-1,29
 71 86 71 86 71 157 c 0,30,31
 71 181 71 181 96 369 c 128,-1,32
 121 557 121 557 126 659 c 1,33,34
 157 666 157 666 206 666 c 0,35,36
 288 666 288 666 288 613 c 0,37,38
 288 610 288 610 284 586 c 128,-1,39
 280 562 280 562 272.5 513.5 c 128,-1,40
 265 465 265 465 259 421 c 0,41,42
 229 224 229 224 229 193 c 0,43,44
 229 102 229 102 288 102 c 0,45,46
 326 102 326 102 372 151 c 128,-1,47
 418 200 418 200 442 274 c 1,0,1
EndSplineSet
EndChar

StartChar: V
Encoding: 86 86 57
Width: 622
GlyphClass: 2
Flags: W
LayerCount: 2
Fore
SplineSet
105 521 m 0,0,1
 105 594 105 594 78 650 c 1,2,3
 114 674 114 674 174 674 c 0,4,5
 272 674 272 674 272 579 c 0,6,7
 272 532 272 532 251.5 405.5 c 128,-1,8
 231 279 231 279 231 220 c 0,9,10
 231 124 231 124 249 88 c 1,11,12
 301 95 301 95 343 146 c 128,-1,13
 385 197 385 197 408.5 268.5 c 128,-1,14
 432 340 432 340 444.5 412.5 c 128,-1,15
 457 485 457 485 457 547 c 128,-1,16
 457 609 457 609 440 653 c 1,17,18
 479 674 479 674 536 674 c 0,19,20
 632 674 632 674 632 594 c 0,21,22
 632 540 632 540 617 466.5 c 128,-1,23
 602 393 602 393 568 309 c 128,-1,24
 534 225 534 225 487 154.5 c 128,-1,25
 440 84 440 84 368 37 c 128,-1,26
 296 -10 296 -10 212 -10 c 0,27,28
 182 -10 182 -10 152 1 c 1,29,30
 72 67 72 67 72 191 c 0,31,32
 72 255 72 255 88.5 347 c 128,-1,33
 105 439 105 439 105 521 c 0,0,1
EndSplineSet
EndChar

StartChar: W
Encoding: 87 87 58
Width: 963
GlyphClass: 2
Flags: W
LayerCount: 2
Fore
SplineSet
105 521 m 0,0,1
 105 594 105 594 78 650 c 1,2,3
 114 674 114 674 174 674 c 0,4,5
 272 674 272 674 272 579 c 0,6,7
 272 532 272 532 251.5 405.5 c 128,-1,8
 231 279 231 279 231 220 c 0,9,10
 231 124 231 124 249 88 c 1,11,12
 299 95 299 95 338.5 146 c 128,-1,13
 378 197 378 197 401 268.5 c 128,-1,14
 424 340 424 340 435.5 412.5 c 128,-1,15
 447 485 447 485 447 547 c 128,-1,16
 447 609 447 609 430 653 c 1,17,18
 469 674 469 674 526 674 c 0,19,20
 622 674 622 674 622 594 c 0,21,22
 622 476 622 476 568 329 c 1,23,24
 566 297 566 297 566 280 c 0,25,26
 566 161 566 161 600 88 c 1,27,28
 650 95 650 95 689.5 146 c 128,-1,29
 729 197 729 197 752 268.5 c 128,-1,30
 775 340 775 340 786.5 412.5 c 128,-1,31
 798 485 798 485 798 547 c 128,-1,32
 798 609 798 609 781 653 c 1,33,34
 820 674 820 674 877 674 c 0,35,36
 973 674 973 674 973 594 c 0,37,38
 973 540 973 540 958.5 466.5 c 128,-1,39
 944 393 944 393 911 309 c 128,-1,40
 878 225 878 225 832 154.5 c 128,-1,41
 786 84 786 84 715 37 c 128,-1,42
 644 -10 644 -10 562 -10 c 0,43,44
 533 -10 533 -10 503 1 c 1,45,46
 459 28 459 28 443 106 c 1,47,48
 340 -10 340 -10 211 -10 c 0,49,50
 182 -10 182 -10 152 1 c 1,51,52
 72 67 72 67 72 191 c 0,53,54
 72 255 72 255 88.5 347 c 128,-1,55
 105 439 105 439 105 521 c 0,0,1
EndSplineSet
EndChar

StartChar: X
Encoding: 88 88 59
Width: 566
GlyphClass: 2
Flags: W
LayerCount: 2
Fore
SplineSet
565 76 m 1,0,1
 502 -10 502 -10 443 -10 c 0,2,3
 431 -10 431 -10 419.5 -5.5 c 128,-1,4
 408 -1 408 -1 397.5 9 c 128,-1,5
 387 19 387 19 378 29 c 128,-1,6
 369 39 369 39 359.5 57.5 c 128,-1,7
 350 76 350 76 343.5 89.5 c 128,-1,8
 337 103 337 103 327.5 127.5 c 128,-1,9
 318 152 318 152 312.5 167 c 128,-1,10
 307 182 307 182 296.5 210 c 128,-1,11
 286 238 286 238 281 253 c 1,12,13
 237 200 237 200 192.5 120.5 c 128,-1,14
 148 41 148 41 134 -10 c 1,15,16
 73 1 73 1 39.5 17.5 c 128,-1,17
 6 34 6 34 6 66 c 0,18,19
 6 84 6 84 20.5 110 c 128,-1,20
 35 136 35 136 68.5 173 c 128,-1,21
 102 210 102 210 122 231 c 128,-1,22
 142 252 142 252 188.5 297 c 128,-1,23
 235 342 235 342 240 347 c 1,24,25
 192 449 192 449 157 500.5 c 128,-1,26
 122 552 122 552 70 588 c 1,27,28
 136 673 136 673 191 673 c 0,29,30
 235 673 235 673 265 615 c 0,31,32
 296 553 296 553 333 435 c 1,33,34
 374 498 374 498 407.5 567 c 128,-1,35
 441 636 441 636 448 674 c 1,36,37
 489 666 489 666 513.5 659 c 128,-1,38
 538 652 538 652 559.5 635.5 c 128,-1,39
 581 619 581 619 581 596 c 0,40,41
 581 584 581 584 574 567.5 c 128,-1,42
 567 551 567 551 551.5 529.5 c 128,-1,43
 536 508 536 508 522.5 491 c 128,-1,44
 509 474 509 474 485 447.5 c 128,-1,45
 461 421 461 421 449 408 c 128,-1,46
 437 395 437 395 412 369 c 128,-1,47
 387 343 387 343 384 340 c 1,48,49
 420 250 420 250 462 182.5 c 128,-1,50
 504 115 504 115 565 76 c 1,0,1
EndSplineSet
EndChar

StartChar: Y
Encoding: 89 89 60
Width: 509
GlyphClass: 2
Flags: W
LayerCount: 2
Fore
SplineSet
188 282 m 1,0,1
 101 556 101 556 45 609 c 1,2,3
 79 642 79 642 102.5 655 c 128,-1,4
 126 668 126 668 154 668 c 0,5,6
 179 668 179 668 195.5 658.5 c 128,-1,7
 212 649 212 649 222 621 c 0,8,9
 265 509 265 509 302 389 c 1,10,11
 338 445 338 445 383 541 c 128,-1,12
 428 637 428 637 432 672 c 1,13,14
 565 672 565 672 565 609 c 0,15,16
 565 558 565 558 344 282 c 1,17,-1
 334 199 l 2,18,19
 322 96 322 96 322 67 c 0,20,21
 322 33 322 33 326 8 c 1,22,23
 293 -3 293 -3 235 -3 c 0,24,25
 193 -3 193 -3 175.5 12 c 128,-1,26
 158 27 158 27 158 59 c 0,27,28
 158 64 158 64 161 86.5 c 128,-1,29
 164 109 164 109 172 166.5 c 128,-1,30
 180 224 180 224 188 282 c 1,0,1
EndSplineSet
EndChar

StartChar: Z
Encoding: 90 90 61
Width: 586
GlyphClass: 2
Flags: W
LayerCount: 2
Fore
SplineSet
154 667 m 0,0,1
 188 667 188 667 306 653.5 c 128,-1,2
 424 640 424 640 481 640 c 0,3,4
 534 640 534 640 561 653 c 1,5,6
 584 630 584 630 584 590 c 0,7,8
 584 554 584 554 564 531 c 2,9,-1
 306 236 l 1,10,11
 254 175 254 175 219 123 c 1,12,13
 226 124 226 124 242 124 c 0,14,15
 275 124 275 124 345.5 111 c 128,-1,16
 416 98 416 98 447 98 c 0,17,18
 504 98 504 98 535 114 c 1,19,20
 550 80 550 80 550 56 c 0,21,22
 550 20 550 20 523 5 c 128,-1,23
 496 -10 496 -10 425 -10 c 0,24,25
 394 -10 394 -10 302 2.5 c 128,-1,26
 210 15 210 15 156 15 c 0,27,28
 101 15 101 15 63 3 c 1,29,30
 36 30 36 30 36 61 c 0,31,32
 36 84 36 84 52 114 c 0,33,34
 106 211 106 211 388 535 c 1,35,36
 353 535 353 535 278 546.5 c 128,-1,37
 203 558 203 558 164 558 c 128,-1,38
 125 558 125 558 87 539 c 1,39,40
 73 574 73 574 73 601 c 0,41,42
 73 667 73 667 154 667 c 0,0,1
EndSplineSet
EndChar

StartChar: bracketleft
Encoding: 91 91 62
Width: 412
GlyphClass: 2
Flags: W
LayerCount: 2
Fore
SplineSet
310 640 m 1,0,-1
 211 -109 l 1,1,2
 247 -107 247 -107 286 -107 c 0,3,4
 323 -107 323 -107 323 -141 c 0,5,6
 323 -160 323 -160 313 -190 c 1,7,-1
 77 -190 l 1,8,-1
 197 720 l 1,9,-1
 433 720 l 1,10,11
 434 713 434 713 434 699 c 0,12,13
 434 638 434 638 385 638 c 0,14,15
 344 638 344 638 310 640 c 1,0,-1
EndSplineSet
EndChar

StartChar: backslash
Encoding: 92 92 63
Width: 270
GlyphClass: 2
Flags: W
LayerCount: 2
Fore
SplineSet
108 214 m 1,0,1
 32 682 32 682 32 703 c 0,2,3
 32 742 32 742 84 742 c 0,4,5
 101 742 101 742 114 737 c 1,6,7
 126 600 126 600 168 330 c 0,8,9
 205 88 205 88 227 -51 c 0,10,11
 231 -72 231 -72 231.5 -76.5 c 128,-1,12
 232 -81 232 -81 232 -82 c 0,13,14
 232 -122 232 -122 185 -122 c 0,15,16
 172 -122 172 -122 150 -117 c 1,17,18
 141 -9 141 -9 108 214 c 1,0,1
EndSplineSet
EndChar

StartChar: bracketright
Encoding: 93 93 64
Width: 395
GlyphClass: 2
Flags: W
LayerCount: 2
Fore
SplineSet
102 -110 m 1,0,-1
 201 639 l 1,1,2
 165 637 165 637 126 637 c 0,3,4
 90 637 90 637 90 670 c 0,5,6
 90 690 90 690 99 720 c 1,7,-1
 335 720 l 1,8,-1
 215 -190 l 1,9,-1
 -21 -190 l 1,10,11
 -22 -183 -22 -183 -22 -170 c 0,12,13
 -22 -108 -22 -108 27 -108 c 0,14,15
 68 -108 68 -108 102 -110 c 1,0,-1
EndSplineSet
EndChar

StartChar: asciicircum
Encoding: 94 94 65
Width: 537
GlyphClass: 2
Flags: W
LayerCount: 2
Fore
SplineSet
270 543 m 1,0,1
 263 536 263 536 237 508 c 128,-1,2
 211 480 211 480 194.5 463 c 128,-1,3
 178 446 178 446 154 424 c 128,-1,4
 130 402 130 402 111 391 c 128,-1,5
 92 380 92 380 78 380 c 0,6,7
 52 380 52 380 19 413 c 1,8,9
 47 455 47 455 131.5 541.5 c 128,-1,10
 216 628 216 628 269 675 c 1,11,12
 323 626 323 626 406.5 540.5 c 128,-1,13
 490 455 490 455 518 413 c 1,14,15
 485 380 485 380 460 380 c 0,16,17
 451 380 451 380 438.5 386.5 c 128,-1,18
 426 393 426 393 410.5 405.5 c 128,-1,19
 395 418 395 418 380.5 430.5 c 128,-1,20
 366 443 366 443 348 461.5 c 128,-1,21
 330 480 330 480 318 492 c 128,-1,22
 306 504 306 504 290 521 c 128,-1,23
 274 538 274 538 270 543 c 1,0,1
EndSplineSet
EndChar

StartChar: underscore
Encoding: 95 95 66
Width: 535
GlyphClass: 2
Flags: W
LayerCount: 2
Fore
SplineSet
535 -110 m 0,0,1
 535 -128 535 -128 525 -140 c 128,-1,2
 515 -152 515 -152 499 -152 c 0,3,4
 484 -152 484 -152 430 -148 c 128,-1,5
 376 -144 376 -144 348 -144 c 2,6,-1
 205 -144 l 2,7,8
 91 -144 91 -144 3 -152 c 1,9,10
 0 -137 0 -137 0 -122 c 0,11,12
 0 -106 0 -106 9 -93 c 128,-1,13
 18 -80 18 -80 36 -80 c 0,14,15
 39 -80 39 -80 99 -83.5 c 128,-1,16
 159 -87 159 -87 203 -87 c 2,17,-1
 345 -87 l 2,18,19
 472 -87 472 -87 532 -80 c 1,20,21
 535 -89 535 -89 535 -110 c 0,0,1
EndSplineSet
EndChar

StartChar: grave
Encoding: 96 96 67
Width: 229
GlyphClass: 2
Flags: W
LayerCount: 2
Fore
SplineSet
10 755 m 1,0,1
 28 724 28 724 70.5 690 c 128,-1,2
 113 656 113 656 143.5 629 c 128,-1,3
 174 602 174 602 174 579 c 0,4,5
 174 561 174 561 166.5 549.5 c 128,-1,6
 159 538 159 538 139 523 c 1,7,8
 109 549 109 549 58 580 c 128,-1,9
 7 611 7 611 -20.5 633 c 128,-1,10
 -48 655 -48 655 -48 679 c 0,11,12
 -48 726 -48 726 10 755 c 1,0,1
EndSplineSet
EndChar

StartChar: a
Encoding: 97 97 68
Width: 534
GlyphClass: 2
Flags: W
LayerCount: 2
Fore
SplineSet
310 189 m 1,0,-1
 335 358 l 1,1,2
 305 394 305 394 274 394 c 0,3,4
 232 394 232 394 208 333 c 128,-1,5
 184 272 184 272 184 196 c 0,6,7
 184 146 184 146 195 112.5 c 128,-1,8
 206 79 206 79 227 79 c 0,9,10
 246 79 246 79 270 109.5 c 128,-1,11
 294 140 294 140 310 189 c 1,0,-1
303 104 m 1,12,13
 275 49 275 49 235 19.5 c 128,-1,14
 195 -10 195 -10 152 -10 c 0,15,16
 96 -10 96 -10 61 35.5 c 128,-1,17
 26 81 26 81 26 168 c 0,18,19
 26 246 26 246 55 316 c 128,-1,20
 84 386 84 386 146.5 434.5 c 128,-1,21
 209 483 209 483 293 483 c 0,22,23
 395 483 395 483 492 417 c 1,24,25
 447 205 447 205 447 124 c 0,26,27
 447 86 447 86 479 66 c 1,28,29
 453 -10 453 -10 379 -10 c 0,30,31
 338 -10 338 -10 320 12 c 128,-1,32
 302 34 302 34 302 79 c 0,33,34
 302 95 302 95 303 104 c 1,12,13
EndSplineSet
EndChar

StartChar: b
Encoding: 98 98 69
Width: 530
GlyphClass: 2
Flags: W
LayerCount: 2
Fore
SplineSet
223 286 m 1,0,1
 219 260 219 260 197 110 c 1,2,3
 227 79 227 79 258 79 c 0,4,5
 295 79 295 79 321 130.5 c 128,-1,6
 347 182 347 182 347 271 c 0,7,8
 347 320 347 320 333 356.5 c 128,-1,9
 319 393 319 393 294 393 c 0,10,11
 278 393 278 393 258 364 c 128,-1,12
 238 335 238 335 223 286 c 1,0,1
38 46 m 1,13,14
 57 155 57 155 87 365 c 128,-1,15
 117 575 117 575 117 609 c 0,16,17
 117 654 117 654 86 659 c 1,18,19
 93 697 93 697 123 719.5 c 128,-1,20
 153 742 153 742 193 742 c 0,21,22
 271 742 271 742 271 655 c 0,23,24
 271 600 271 600 239 399 c 1,25,26
 264 439 264 439 300.5 461.5 c 128,-1,27
 337 484 337 484 372 484 c 0,28,29
 430 484 430 484 467.5 434.5 c 128,-1,30
 505 385 505 385 505 296 c 0,31,32
 505 218 505 218 474 149 c 128,-1,33
 443 80 443 80 379.5 35 c 128,-1,34
 316 -10 316 -10 233 -10 c 0,35,36
 133 -10 133 -10 38 46 c 1,13,14
EndSplineSet
EndChar

StartChar: c
Encoding: 99 99 70
Width: 457
GlyphClass: 2
Flags: W
LayerCount: 2
Fore
SplineSet
344 314 m 1,0,1
 341 353 341 353 322.5 372 c 128,-1,2
 304 391 304 391 284 391 c 0,3,4
 238 391 238 391 210 336.5 c 128,-1,5
 182 282 182 282 182 207 c 0,6,7
 182 143 182 143 204.5 111.5 c 128,-1,8
 227 80 227 80 262 80 c 0,9,10
 283 80 283 80 306 97.5 c 128,-1,11
 329 115 329 115 344 143 c 1,12,13
 376 131 376 131 390.5 116.5 c 128,-1,14
 405 102 405 102 405 78 c 0,15,16
 405 41 405 41 364.5 15.5 c 128,-1,17
 324 -10 324 -10 247 -10 c 0,18,19
 148 -10 148 -10 86.5 38 c 128,-1,20
 25 86 25 86 25 184 c 0,21,22
 25 257 25 257 50.5 316 c 128,-1,23
 76 375 76 375 117 411 c 128,-1,24
 158 447 158 447 206.5 466 c 128,-1,25
 255 485 255 485 305 485 c 0,26,27
 334 485 334 485 364.5 477 c 128,-1,28
 395 469 395 469 421 447.5 c 128,-1,29
 447 426 447 426 447 395 c 0,30,31
 447 365 447 365 417.5 341.5 c 128,-1,32
 388 318 388 318 344 314 c 1,0,1
EndSplineSet
EndChar

StartChar: d
Encoding: 100 100 71
Width: 530
GlyphClass: 2
Flags: W
LayerCount: 2
Fore
SplineSet
311 189 m 1,0,-1
 335 358 l 1,1,2
 305 394 305 394 270 394 c 0,3,4
 234 394 234 394 208.5 339.5 c 128,-1,5
 183 285 183 285 183 201 c 0,6,7
 183 79 183 79 227 79 c 0,8,9
 245 79 245 79 270 110 c 128,-1,10
 295 141 295 141 311 189 c 1,0,-1
346 435 m 1,11,12
 353 475 353 475 359.5 537 c 128,-1,13
 366 599 366 599 366 610 c 0,14,15
 366 653 366 653 335 659 c 1,16,17
 339 694 339 694 370.5 718 c 128,-1,18
 402 742 402 742 443 742 c 0,19,20
 520 742 520 742 520 653 c 0,21,22
 520 618 520 618 488 383 c 128,-1,23
 456 148 456 148 456 126 c 0,24,25
 456 88 456 88 487 67 c 1,26,27
 461 -10 461 -10 386 -10 c 0,28,29
 301 -10 301 -10 301 82 c 0,30,31
 301 97 301 97 302 104 c 1,32,33
 274 49 274 49 234 19.5 c 128,-1,34
 194 -10 194 -10 151 -10 c 0,35,36
 95 -10 95 -10 60 35.5 c 128,-1,37
 25 81 25 81 25 168 c 0,38,39
 25 298 25 298 87 391 c 128,-1,40
 149 484 149 484 240 484 c 0,41,42
 290 484 290 484 346 435 c 1,11,12
EndSplineSet
EndChar

StartChar: e
Encoding: 101 101 72
Width: 467
GlyphClass: 2
Flags: W
LayerCount: 2
Fore
SplineSet
202 242 m 0,0,1
 242 242 242 242 265 275.5 c 128,-1,2
 288 309 288 309 288 353 c 0,3,4
 288 371 288 371 278 383 c 128,-1,5
 268 395 268 395 255 395 c 0,6,7
 231 395 231 395 211.5 353.5 c 128,-1,8
 192 312 192 312 187 243 c 1,9,10
 192 242 192 242 202 242 c 0,0,1
351 134 m 1,11,12
 373 123 373 123 388.5 106 c 128,-1,13
 404 89 404 89 404 72 c 0,14,15
 404 37 404 37 352.5 13.5 c 128,-1,16
 301 -10 301 -10 234 -10 c 0,17,18
 148 -10 148 -10 86.5 32.5 c 128,-1,19
 25 75 25 75 25 164 c 0,20,21
 25 290 25 290 105.5 387.5 c 128,-1,22
 186 485 186 485 311 485 c 0,23,24
 368 485 368 485 407.5 453 c 128,-1,25
 447 421 447 421 447 365 c 0,26,27
 447 276 447 276 380.5 226.5 c 128,-1,28
 314 177 314 177 213 177 c 0,29,30
 201 177 201 177 183 179 c 1,31,32
 183 80 183 80 262 80 c 0,33,34
 314 80 314 80 351 134 c 1,11,12
EndSplineSet
EndChar

StartChar: f
Encoding: 102 102 73
Width: 380
GlyphClass: 2
Flags: W
LayerCount: 2
Fore
SplineSet
397 568 m 1,0,1
 383 625 383 625 329 625 c 0,2,3
 305 625 305 625 288 601.5 c 128,-1,4
 271 578 271 578 263.5 545.5 c 128,-1,5
 256 513 256 513 253 473 c 1,6,7
 323 473 323 473 386 478 c 1,8,9
 392 463 392 463 392 442 c 0,10,11
 392 417 392 417 380.5 400 c 128,-1,12
 369 383 369 383 344 382 c 1,13,14
 321 380 321 380 243 380 c 1,15,16
 225 188 225 188 212 88 c 0,17,18
 208 56 208 56 206.5 44 c 128,-1,19
 205 32 205 32 199.5 2 c 128,-1,20
 194 -28 194 -28 189 -41 c 128,-1,21
 184 -54 184 -54 174 -75.5 c 128,-1,22
 164 -97 164 -97 152 -106.5 c 128,-1,23
 140 -116 140 -116 122.5 -124 c 128,-1,24
 105 -132 105 -132 83 -132 c 0,25,26
 54 -132 54 -132 31.5 -112.5 c 128,-1,27
 9 -93 9 -93 0 -54 c 1,28,29
 68 -34 68 -34 95 379 c 1,30,31
 65 378 65 378 35 374 c 1,32,33
 31 396 31 396 31 408 c 0,34,35
 31 475 31 475 88 475 c 2,36,-1
 104 475 l 1,37,38
 112 583 112 583 170.5 648.5 c 128,-1,39
 229 714 229 714 346 714 c 0,40,41
 397 714 397 714 438.5 693.5 c 128,-1,42
 480 673 480 673 480 630 c 0,43,44
 480 608 480 608 460 591 c 128,-1,45
 440 574 440 574 397 568 c 1,0,1
EndSplineSet
EndChar

StartChar: g
Encoding: 103 103 74
Width: 526
GlyphClass: 2
Flags: W
LayerCount: 2
Fore
SplineSet
286 483 m 0,0,1
 397 483 397 483 493 417 c 1,2,3
 461 282 461 282 444 150 c 0,4,5
 441 130 441 130 437.5 93.5 c 128,-1,6
 434 57 434 57 431.5 35 c 128,-1,7
 429 13 429 13 423.5 -20 c 128,-1,8
 418 -53 418 -53 411.5 -74 c 128,-1,9
 405 -95 405 -95 393.5 -122 c 128,-1,10
 382 -149 382 -149 367.5 -166 c 128,-1,11
 353 -183 353 -183 331 -201.5 c 128,-1,12
 309 -220 309 -220 282.5 -230 c 128,-1,13
 256 -240 256 -240 220 -246.5 c 128,-1,14
 184 -253 184 -253 141 -253 c 0,15,16
 78 -253 78 -253 36 -235.5 c 128,-1,17
 -6 -218 -6 -218 -6 -186 c 0,18,19
 -6 -160 -6 -160 15 -140.5 c 128,-1,20
 36 -121 36 -121 58 -112 c 1,21,22
 86 -163 86 -163 151 -163 c 0,23,24
 279 -163 279 -163 289 80 c 1,25,26
 260 33 260 33 223 11.5 c 128,-1,27
 186 -10 186 -10 153 -10 c 0,28,29
 90 -10 90 -10 58.5 42.5 c 128,-1,30
 27 95 27 95 27 170 c 0,31,32
 27 297 27 297 101.5 390 c 128,-1,33
 176 483 176 483 286 483 c 0,0,1
228 79 m 0,34,35
 245 79 245 79 270 108.5 c 128,-1,36
 295 138 295 138 311 189 c 1,37,38
 316 217 316 217 324 277 c 128,-1,39
 332 337 332 337 336 358 c 1,40,41
 308 394 308 394 275 394 c 0,42,43
 236 394 236 394 210.5 337 c 128,-1,44
 185 280 185 280 185 198 c 0,45,46
 185 145 185 145 196.5 112 c 128,-1,47
 208 79 208 79 228 79 c 0,34,35
EndSplineSet
EndChar

StartChar: h
Encoding: 104 104 75
Width: 549
GlyphClass: 2
Flags: W
LayerCount: 2
Fore
SplineSet
197 742 m 0,0,1
 273 742 273 742 273 652 c 0,2,3
 273 577 273 577 241 385 c 1,4,5
 272 432 272 432 314.5 457.5 c 128,-1,6
 357 483 357 483 396 483 c 0,7,8
 449 483 449 483 478 450.5 c 128,-1,9
 507 418 507 418 507 366 c 0,10,11
 507 348 507 348 486.5 248.5 c 128,-1,12
 466 149 466 149 466 126 c 0,13,14
 466 86 466 86 500 66 c 1,15,16
 488 30 488 30 459 10 c 128,-1,17
 430 -10 430 -10 396 -10 c 0,18,19
 360 -10 360 -10 335 12.5 c 128,-1,20
 310 35 310 35 310 74 c 0,21,22
 310 106 310 106 329 202.5 c 128,-1,23
 348 299 348 299 348 336 c 0,24,25
 348 392 348 392 315 392 c 0,26,27
 291 392 291 392 262 350.5 c 128,-1,28
 233 309 233 309 220 255 c 1,29,-1
 218 245 l 1,30,31
 199 104 199 104 199 72 c 0,32,33
 199 49 199 49 203 15 c 1,34,35
 165 -2 165 -2 119 -2 c 0,36,37
 42 -2 42 -2 42 54 c 0,38,39
 42 83 42 83 80.5 327.5 c 128,-1,40
 119 572 119 572 119 612 c 0,41,42
 119 655 119 655 88 659 c 1,43,44
 93 694 93 694 123.5 718 c 128,-1,45
 154 742 154 742 197 742 c 0,0,1
EndSplineSet
EndChar

StartChar: i
Encoding: 105 105 76
Width: 283
GlyphClass: 2
Flags: W
LayerCount: 2
Fore
SplineSet
161 485 m 0,0,1
 237 485 237 485 237 395 c 0,2,3
 237 355 237 355 215 253 c 128,-1,4
 193 151 193 151 193 127 c 0,5,6
 193 87 193 87 225 67 c 1,7,8
 211 29 211 29 183.5 9.5 c 128,-1,9
 156 -10 156 -10 123 -10 c 0,10,11
 38 -10 38 -10 38 81 c 0,12,13
 38 128 38 128 60.5 229 c 128,-1,14
 83 330 83 330 83 355 c 0,15,16
 83 398 83 398 52 402 c 1,17,18
 57 437 57 437 87.5 461 c 128,-1,19
 118 485 118 485 161 485 c 0,0,1
175 531 m 0,20,21
 137 531 137 531 117.5 553.5 c 128,-1,22
 98 576 98 576 98 608 c 0,23,24
 98 647 98 647 124.5 677.5 c 128,-1,25
 151 708 151 708 196 708 c 0,26,27
 233 708 233 708 253 684 c 128,-1,28
 273 660 273 660 273 627 c 0,29,30
 273 588 273 588 247.5 559.5 c 128,-1,31
 222 531 222 531 175 531 c 0,20,21
EndSplineSet
EndChar

StartChar: j
Encoding: 106 106 77
Width: 317
GlyphClass: 2
Flags: W
LayerCount: 2
Fore
SplineSet
192 485 m 0,0,1
 268 485 268 485 268 392 c 0,2,3
 268 310 268 310 213 -20 c 0,4,5
 196 -128 196 -128 132.5 -190.5 c 128,-1,6
 69 -253 69 -253 -40 -253 c 0,7,8
 -66 -253 -66 -253 -94.5 -248.5 c 128,-1,9
 -123 -244 -123 -244 -151.5 -228 c 128,-1,10
 -180 -212 -180 -212 -180 -186 c 0,11,12
 -180 -165 -180 -165 -161.5 -144 c 128,-1,13
 -143 -123 -143 -123 -116 -112 c 1,14,15
 -105 -133 -105 -133 -84 -148 c 128,-1,16
 -63 -163 -63 -163 -40 -163 c 0,17,18
 -9 -163 -9 -163 18 -130.5 c 128,-1,19
 45 -98 45 -98 57 -25 c 0,20,21
 114 321 114 321 114 355 c 0,22,23
 114 398 114 398 83 402 c 1,24,25
 88 437 88 437 118.5 461 c 128,-1,26
 149 485 149 485 192 485 c 0,0,1
200 531 m 0,27,28
 162 531 162 531 142.5 553.5 c 128,-1,29
 123 576 123 576 123 608 c 0,30,31
 123 647 123 647 149.5 677.5 c 128,-1,32
 176 708 176 708 221 708 c 0,33,34
 258 708 258 708 278 684 c 128,-1,35
 298 660 298 660 298 627 c 0,36,37
 298 588 298 588 272.5 559.5 c 128,-1,38
 247 531 247 531 200 531 c 0,27,28
EndSplineSet
EndChar

StartChar: k
Encoding: 107 107 78
Width: 525
GlyphClass: 2
Flags: W
LayerCount: 2
Fore
SplineSet
318 388 m 0,0,1
 306 388 306 388 291.5 380 c 128,-1,2
 277 372 277 372 255.5 341 c 128,-1,3
 234 310 234 310 220 260 c 1,4,-1
 218 248 l 2,5,6
 199 130 199 130 199 65 c 0,7,8
 199 42 199 42 203 8 c 1,9,10
 165 -9 165 -9 119 -9 c 0,11,12
 42 -9 42 -9 42 47 c 0,13,14
 42 76 42 76 80.5 320.5 c 128,-1,15
 119 565 119 565 119 605 c 0,16,17
 119 648 119 648 88 652 c 1,18,19
 93 687 93 687 123.5 711 c 128,-1,20
 154 735 154 735 197 735 c 0,21,22
 273 735 273 735 273 645 c 0,23,24
 273 572 273 572 241 382 c 1,25,26
 283 436 283 436 317.5 459.5 c 128,-1,27
 352 483 352 483 393 483 c 0,28,29
 437 483 437 483 466.5 454 c 128,-1,30
 496 425 496 425 496 379 c 0,31,32
 496 317 496 317 457 267 c 128,-1,33
 418 217 418 217 360 207 c 1,34,35
 364 196 364 196 370 180 c 128,-1,36
 376 164 376 164 379 156 c 128,-1,37
 382 148 382 148 387 136.5 c 128,-1,38
 392 125 392 125 395 119.5 c 128,-1,39
 398 114 398 114 402 106 c 128,-1,40
 406 98 406 98 410 95 c 128,-1,41
 414 92 414 92 419 88 c 128,-1,42
 424 84 424 84 429.5 83 c 128,-1,43
 435 82 435 82 441 82 c 0,44,45
 462 82 462 82 493 91 c 1,46,47
 500 68 500 68 500 57 c 0,48,49
 500 24 500 24 468 7 c 128,-1,50
 436 -10 436 -10 397 -10 c 0,51,52
 363 -10 363 -10 345 -3 c 128,-1,53
 327 4 327 4 311 26 c 0,54,55
 281 68 281 68 249 198 c 1,56,57
 244 203 244 203 244 215 c 0,58,59
 244 239 244 239 260 266 c 1,60,61
 272 263 272 263 281 263 c 0,62,63
 311 263 311 263 332.5 289 c 128,-1,64
 354 315 354 315 354 349 c 0,65,66
 354 388 354 388 318 388 c 0,0,1
EndSplineSet
EndChar

StartChar: l
Encoding: 108 108 79
Width: 271
GlyphClass: 2
Flags: W
LayerCount: 2
Fore
SplineSet
185 742 m 0,0,1
 261 742 261 742 261 652 c 0,2,3
 261 612 261 612 229 381.5 c 128,-1,4
 197 151 197 151 197 127 c 0,5,6
 197 87 197 87 229 67 c 1,7,8
 218 36 218 36 193.5 13 c 128,-1,9
 169 -10 169 -10 131 -10 c 0,10,11
 42 -10 42 -10 42 81 c 0,12,13
 42 125 42 125 74.5 349 c 128,-1,14
 107 573 107 573 107 612 c 0,15,16
 107 655 107 655 76 659 c 1,17,18
 81 694 81 694 111.5 718 c 128,-1,19
 142 742 142 742 185 742 c 0,0,1
EndSplineSet
EndChar

StartChar: m
Encoding: 109 109 80
Width: 811
GlyphClass: 2
Flags: W
LayerCount: 2
Fore
SplineSet
213 253 m 1,0,1
 199 135 199 135 199 72 c 0,2,3
 199 49 199 49 203 15 c 1,4,5
 165 -2 165 -2 119 -2 c 0,6,7
 42 -2 42 -2 42 54 c 0,8,9
 42 59 42 59 62 189.5 c 128,-1,10
 82 320 82 320 82 351 c 0,11,12
 82 395 82 395 51 402 c 1,13,14
 57 440 57 440 86.5 462.5 c 128,-1,15
 116 485 116 485 152 485 c 0,16,17
 237 485 237 485 237 402 c 0,18,19
 237 400 237 400 236.5 394.5 c 128,-1,20
 236 389 236 389 236 386 c 1,21,22
 266 433 266 433 308.5 458 c 128,-1,23
 351 483 351 483 390 483 c 0,24,25
 438 483 438 483 466.5 455.5 c 128,-1,26
 495 428 495 428 500 383 c 1,27,28
 572 483 572 483 658 483 c 0,29,30
 711 483 711 483 740 450.5 c 128,-1,31
 769 418 769 418 769 366 c 0,32,33
 769 348 769 348 748.5 248.5 c 128,-1,34
 728 149 728 149 728 126 c 0,35,36
 728 86 728 86 762 66 c 1,37,38
 750 30 750 30 721 10 c 128,-1,39
 692 -10 692 -10 658 -10 c 0,40,41
 622 -10 622 -10 597 12.5 c 128,-1,42
 572 35 572 35 572 74 c 0,43,44
 572 106 572 106 591 202.5 c 128,-1,45
 610 299 610 299 610 336 c 0,46,47
 610 392 610 392 577 392 c 0,48,49
 553 392 553 392 524 352 c 128,-1,50
 495 312 495 312 482 259 c 0,51,52
 482 256 482 256 480 248 c 1,53,54
 467 140 467 140 467 72 c 0,55,56
 467 49 467 49 471 15 c 1,57,58
 433 -2 433 -2 387 -2 c 0,59,60
 310 -2 310 -2 310 54 c 0,61,62
 310 61 310 61 318 113 c 128,-1,63
 326 165 326 165 336 230.5 c 128,-1,64
 346 296 346 296 349 329 c 1,65,-1
 349 336 l 2,66,67
 349 361 349 361 337.5 376.5 c 128,-1,68
 326 392 326 392 309 392 c 0,69,70
 285 392 285 392 255.5 350 c 128,-1,71
 226 308 226 308 213 253 c 1,0,1
EndSplineSet
EndChar

StartChar: n
Encoding: 110 110 81
Width: 543
GlyphClass: 2
Flags: W
LayerCount: 2
Fore
SplineSet
213 253 m 1,0,1
 199 135 199 135 199 72 c 0,2,3
 199 49 199 49 203 15 c 1,4,5
 165 -2 165 -2 119 -2 c 0,6,7
 42 -2 42 -2 42 54 c 0,8,9
 42 59 42 59 62 189.5 c 128,-1,10
 82 320 82 320 82 351 c 0,11,12
 82 395 82 395 51 402 c 1,13,14
 57 440 57 440 86.5 462.5 c 128,-1,15
 116 485 116 485 152 485 c 0,16,17
 237 485 237 485 237 402 c 0,18,19
 237 400 237 400 236.5 394.5 c 128,-1,20
 236 389 236 389 236 386 c 1,21,22
 266 433 266 433 308.5 458 c 128,-1,23
 351 483 351 483 390 483 c 0,24,25
 443 483 443 483 472 450.5 c 128,-1,26
 501 418 501 418 501 366 c 0,27,28
 501 348 501 348 480.5 248.5 c 128,-1,29
 460 149 460 149 460 126 c 0,30,31
 460 86 460 86 494 66 c 1,32,33
 482 30 482 30 453 10 c 128,-1,34
 424 -10 424 -10 390 -10 c 0,35,36
 354 -10 354 -10 329 12.5 c 128,-1,37
 304 35 304 35 304 74 c 0,38,39
 304 106 304 106 323 202.5 c 128,-1,40
 342 299 342 299 342 336 c 0,41,42
 342 392 342 392 309 392 c 0,43,44
 285 392 285 392 255.5 350 c 128,-1,45
 226 308 226 308 213 253 c 1,0,1
EndSplineSet
EndChar

StartChar: o
Encoding: 111 111 82
Width: 517
GlyphClass: 2
Flags: W
LayerCount: 2
Fore
SplineSet
267 394 m 0,0,1
 232 394 232 394 209.5 336.5 c 128,-1,2
 187 279 187 279 187 206 c 0,3,4
 187 151 187 151 203 115.5 c 128,-1,5
 219 80 219 80 248 80 c 0,6,7
 283 80 283 80 305.5 136.5 c 128,-1,8
 328 193 328 193 328 265 c 0,9,10
 328 322 328 322 312.5 358 c 128,-1,11
 297 394 297 394 267 394 c 0,0,1
220 -10 m 0,12,13
 130 -10 130 -10 77.5 45.5 c 128,-1,14
 25 101 25 101 25 191 c 0,15,16
 25 314 25 314 100.5 399 c 128,-1,17
 176 484 176 484 293 484 c 0,18,19
 386 484 386 484 439 432.5 c 128,-1,20
 492 381 492 381 492 291 c 0,21,22
 492 168 492 168 413.5 79 c 128,-1,23
 335 -10 335 -10 220 -10 c 0,12,13
EndSplineSet
EndChar

StartChar: p
Encoding: 112 112 83
Width: 535
GlyphClass: 2
Flags: W
LayerCount: 2
Fore
SplineSet
379 484 m 0,0,1
 437 484 437 484 473.5 440 c 128,-1,2
 510 396 510 396 510 304 c 0,3,4
 510 169 510 169 444 79.5 c 128,-1,5
 378 -10 378 -10 294 -10 c 0,6,7
 234 -10 234 -10 188 35 c 1,8,9
 168 -76 168 -76 168 -113 c 0,10,11
 168 -156 168 -156 200 -176 c 1,12,13
 172 -253 172 -253 94 -253 c 0,14,15
 13 -253 13 -253 13 -156 c 0,16,17
 13 -110 13 -110 50 106.5 c 128,-1,18
 87 323 87 323 87 352 c 0,19,20
 87 394 87 394 56 402 c 1,21,22
 62 441 62 441 91 463 c 128,-1,23
 120 485 120 485 157 485 c 0,24,25
 242 485 242 485 242 404 c 0,26,27
 242 396 242 396 241 391 c 1,28,29
 268 436 268 436 304.5 460 c 128,-1,30
 341 484 341 484 379 484 c 0,0,1
230 294 m 1,31,32
 224 251 224 251 199 110 c 1,33,34
 227 79 227 79 261 79 c 0,35,36
 298 79 298 79 325 133.5 c 128,-1,37
 352 188 352 188 352 281 c 0,38,39
 352 332 352 332 338.5 363 c 128,-1,40
 325 394 325 394 302 394 c 0,41,42
 286 394 286 394 265.5 366.5 c 128,-1,43
 245 339 245 339 230 294 c 1,31,32
EndSplineSet
EndChar

StartChar: q
Encoding: 113 113 84
Width: 515
GlyphClass: 2
Flags: W
LayerCount: 2
Fore
SplineSet
492 417 m 1,0,1
 474 343 474 343 439 130.5 c 128,-1,2
 404 -82 404 -82 404 -117 c 0,3,4
 404 -157 404 -157 436 -177 c 1,5,6
 426 -208 426 -208 400 -231 c 128,-1,7
 374 -254 374 -254 339 -254 c 0,8,9
 286 -254 286 -254 267.5 -227.5 c 128,-1,10
 249 -201 249 -201 249 -152 c 0,11,12
 249 -100 249 -100 287 80 c 1,13,14
 231 -10 231 -10 151 -10 c 0,15,16
 95 -10 95 -10 60 36 c 128,-1,17
 25 82 25 82 25 169 c 0,18,19
 25 298 25 298 100.5 390.5 c 128,-1,20
 176 483 176 483 286 483 c 0,21,22
 398 483 398 483 492 417 c 1,0,1
310 193 m 1,23,24
 314 217 314 217 322 276.5 c 128,-1,25
 330 336 330 336 334 359 c 1,26,27
 301 394 301 394 273 394 c 0,28,29
 234 394 234 394 208.5 335.5 c 128,-1,30
 183 277 183 277 183 184 c 0,31,32
 183 140 183 140 194 110 c 128,-1,33
 205 80 205 80 226 80 c 0,34,35
 245 80 245 80 270 111 c 128,-1,36
 295 142 295 142 310 193 c 1,23,24
EndSplineSet
EndChar

StartChar: r
Encoding: 114 114 85
Width: 396
GlyphClass: 2
Flags: W
LayerCount: 2
Fore
SplineSet
210 233 m 1,0,1
 198 120 198 120 198 63 c 0,2,3
 198 45 198 45 202 15 c 1,4,5
 165 -2 165 -2 117 -2 c 0,6,7
 41 -2 41 -2 41 54 c 0,8,9
 41 62 41 62 61 191.5 c 128,-1,10
 81 321 81 321 81 351 c 0,11,12
 81 395 81 395 50 402 c 1,13,14
 54 435 54 435 81.5 460 c 128,-1,15
 109 485 109 485 153 485 c 0,16,17
 236 485 236 485 236 403 c 0,18,19
 236 389 236 389 232 366 c 1,20,21
 261 425 261 425 297.5 454.5 c 128,-1,22
 334 484 334 484 366 484 c 0,23,24
 417 484 417 484 417 431 c 0,25,26
 417 408 417 408 406 384 c 128,-1,27
 395 360 395 360 378 346 c 1,28,29
 347 371 347 371 316 371 c 0,30,31
 246 371 246 371 210 233 c 1,0,1
EndSplineSet
EndChar

StartChar: s
Encoding: 115 115 86
Width: 429
GlyphClass: 2
Flags: W
LayerCount: 2
Fore
SplineSet
305 324 m 1,0,1
 301 355 301 355 284.5 372 c 128,-1,2
 268 389 268 389 245 389 c 128,-1,3
 222 389 222 389 204.5 375.5 c 128,-1,4
 187 362 187 362 187 336 c 0,5,6
 187 316 187 316 206.5 304 c 128,-1,7
 226 292 226 292 254 285 c 128,-1,8
 282 278 282 278 310 267.5 c 128,-1,9
 338 257 338 257 357.5 232 c 128,-1,10
 377 207 377 207 377 167 c 0,11,12
 377 88 377 88 313.5 39 c 128,-1,13
 250 -10 250 -10 165 -10 c 0,14,15
 5 -10 5 -10 5 65 c 0,16,17
 5 122 5 122 93 158 c 1,18,19
 99 122 99 122 122.5 104 c 128,-1,20
 146 86 146 86 175 86 c 0,21,22
 205 86 205 86 225 98.5 c 128,-1,23
 245 111 245 111 245 138 c 0,24,25
 245 155 245 155 225.5 165 c 128,-1,26
 206 175 206 175 178 182 c 128,-1,27
 150 189 150 189 122.5 200 c 128,-1,28
 95 211 95 211 75.5 237.5 c 128,-1,29
 56 264 56 264 56 305 c 0,30,31
 56 381 56 381 119 433 c 128,-1,32
 182 485 182 485 263 485 c 0,33,34
 295 485 295 485 325.5 478 c 128,-1,35
 356 471 356 471 381.5 452 c 128,-1,36
 407 433 407 433 407 405 c 0,37,38
 407 341 407 341 305 324 c 1,0,1
EndSplineSet
EndChar

StartChar: t
Encoding: 116 116 87
Width: 390
GlyphClass: 2
Flags: W
LayerCount: 2
Fore
SplineSet
74 475 m 2,0,-1
 107 475 l 1,1,2
 110 493 110 493 115 532 c 128,-1,3
 120 571 120 571 120 574 c 1,4,5
 150 580 150 580 188 580 c 0,6,7
 234 580 234 580 250.5 571.5 c 128,-1,8
 267 563 267 563 267 540 c 0,9,10
 267 524 267 524 258 474 c 1,11,12
 372 474 372 474 414 479 c 1,13,14
 419 461 419 461 419 442 c 0,15,16
 419 386 419 386 369 382 c 0,17,18
 336 380 336 380 243 380 c 1,19,20
 210 146 210 146 210 123 c 0,21,22
 210 98 210 98 225 85 c 128,-1,23
 240 72 240 72 263 72 c 0,24,25
 303 72 303 72 329 103 c 1,26,27
 356 76 356 76 356 48 c 0,28,29
 356 -10 356 -10 232 -10 c 0,30,31
 144 -10 144 -10 104 24 c 128,-1,32
 64 58 64 58 64 125 c 0,33,34
 64 144 64 144 69 184.5 c 128,-1,35
 74 225 74 225 84 290.5 c 128,-1,36
 94 356 94 356 97 380 c 1,37,38
 84 380 84 380 18 374 c 1,39,40
 16 390 16 390 16 401 c 0,41,42
 16 475 16 475 74 475 c 2,0,-1
EndSplineSet
EndChar

StartChar: u
Encoding: 117 117 88
Width: 548
GlyphClass: 2
Flags: W
LayerCount: 2
Fore
SplineSet
321 104 m 1,0,1
 295 57 295 57 251.5 23.5 c 128,-1,2
 208 -10 208 -10 158 -10 c 0,3,4
 105 -10 105 -10 76 22 c 128,-1,5
 47 54 47 54 47 105 c 0,6,7
 47 127 47 127 67 222 c 128,-1,8
 87 317 87 317 87 350 c 0,9,10
 87 392 87 392 56 402 c 1,11,12
 62 441 62 441 91.5 463 c 128,-1,13
 121 485 121 485 157 485 c 0,14,15
 244 485 244 485 244 393 c 0,16,17
 244 358 244 358 224.5 268 c 128,-1,18
 205 178 205 178 204 136 c 1,19,20
 204 81 204 81 236 81 c 0,21,22
 259 81 259 81 287 121 c 128,-1,23
 315 161 315 161 328 217 c 1,24,25
 355 377 355 377 360 464 c 1,26,27
 400 478 400 478 430 478 c 0,28,29
 508 478 508 478 508 406 c 0,30,31
 508 384 508 384 486.5 263 c 128,-1,32
 465 142 465 142 465 124 c 0,33,34
 465 85 465 85 497 66 c 1,35,36
 488 36 488 36 463 13 c 128,-1,37
 438 -10 438 -10 399 -10 c 0,38,39
 353 -10 353 -10 336.5 13.5 c 128,-1,40
 320 37 320 37 320 78 c 0,41,42
 320 95 320 95 321 104 c 1,0,1
EndSplineSet
EndChar

StartChar: v
Encoding: 118 118 89
Width: 479
GlyphClass: 2
Flags: W
LayerCount: 2
Fore
SplineSet
67 366 m 0,0,1
 67 417 67 417 48 457 c 1,2,3
 85 484 85 484 143 484 c 0,4,5
 191 484 191 484 210 464.5 c 128,-1,6
 229 445 229 445 229 406 c 0,7,8
 229 377 229 377 213 293.5 c 128,-1,9
 197 210 197 210 197 165 c 0,10,11
 197 127 197 127 205 99 c 1,12,13
 241 109 241 109 269.5 159 c 128,-1,14
 298 209 298 209 311 267 c 128,-1,15
 324 325 324 325 324 375 c 0,16,17
 324 430 324 430 309 459 c 1,18,19
 341 484 341 484 392 484 c 0,20,21
 428 484 428 484 452.5 467.5 c 128,-1,22
 477 451 477 451 477 418 c 0,23,24
 477 370 477 370 451.5 299 c 128,-1,25
 426 228 426 228 383.5 158.5 c 128,-1,26
 341 89 341 89 275 39.5 c 128,-1,27
 209 -10 209 -10 139 -10 c 0,28,29
 115 -10 115 -10 95 -2 c 1,30,31
 46 41 46 41 46 132 c 0,32,33
 46 177 46 177 56.5 242.5 c 128,-1,34
 67 308 67 308 67 366 c 0,0,1
EndSplineSet
EndChar

StartChar: w
Encoding: 119 119 90
Width: 727
GlyphClass: 2
Flags: W
LayerCount: 2
Fore
SplineSet
67 366 m 0,0,1
 67 417 67 417 48 457 c 1,2,3
 85 484 85 484 143 484 c 0,4,5
 191 484 191 484 210 464.5 c 128,-1,6
 229 445 229 445 229 406 c 0,7,8
 229 377 229 377 213 293.5 c 128,-1,9
 197 210 197 210 197 165 c 0,10,11
 197 127 197 127 205 99 c 1,12,13
 241 109 241 109 269.5 159 c 128,-1,14
 298 209 298 209 311 267 c 128,-1,15
 324 325 324 325 324 375 c 0,16,17
 324 430 324 430 309 459 c 1,18,19
 341 484 341 484 392 484 c 0,20,21
 428 484 428 484 452.5 467.5 c 128,-1,22
 477 451 477 451 477 418 c 0,23,24
 477 355 477 355 437 261 c 1,25,26
 437 138 437 138 453 99 c 1,27,28
 489 109 489 109 517.5 159 c 128,-1,29
 546 209 546 209 559 267 c 128,-1,30
 572 325 572 325 572 375 c 0,31,32
 572 430 572 430 557 459 c 1,33,34
 589 484 589 484 640 484 c 0,35,36
 676 484 676 484 700.5 467.5 c 128,-1,37
 725 451 725 451 725 418 c 0,38,39
 725 370 725 370 699.5 299 c 128,-1,40
 674 228 674 228 631.5 158.5 c 128,-1,41
 589 89 589 89 523 39.5 c 128,-1,42
 457 -10 457 -10 387 -10 c 0,43,44
 363 -10 363 -10 343 -2 c 1,45,46
 316 21 316 21 311 70 c 1,47,48
 229 -10 229 -10 139 -10 c 0,49,50
 115 -10 115 -10 95 -2 c 1,51,52
 46 41 46 41 46 132 c 0,53,54
 46 177 46 177 56.5 242.5 c 128,-1,55
 67 308 67 308 67 366 c 0,0,1
EndSplineSet
EndChar

StartChar: x
Encoding: 120 120 91
Width: 462
GlyphClass: 2
Flags: W
LayerCount: 2
Fore
SplineSet
44 370 m 1,0,1
 40 392 40 392 40 405 c 0,2,3
 40 439 40 439 67.5 463.5 c 128,-1,4
 95 488 95 488 131 488 c 0,5,6
 148 488 148 488 162.5 483 c 128,-1,7
 177 478 177 478 188.5 465 c 128,-1,8
 200 452 200 452 208 442.5 c 128,-1,9
 216 433 216 433 224.5 411 c 128,-1,10
 233 389 233 389 236.5 380 c 128,-1,11
 240 371 240 371 248 345 c 128,-1,12
 256 319 256 319 258 314 c 1,13,14
 298 374 298 374 306 482 c 1,15,16
 316 484 316 484 338 484 c 0,17,18
 382 484 382 484 408.5 465 c 128,-1,19
 435 446 435 446 435 415 c 0,20,21
 435 401 435 401 427.5 384 c 128,-1,22
 420 367 420 367 411.5 353.5 c 128,-1,23
 403 340 403 340 384.5 320 c 128,-1,24
 366 300 366 300 357.5 291 c 128,-1,25
 349 282 349 282 327.5 261.5 c 128,-1,26
 306 241 306 241 304 239 c 1,27,28
 308 231 308 231 318 210.5 c 128,-1,29
 328 190 328 190 332 183 c 128,-1,30
 336 176 336 176 345 159.5 c 128,-1,31
 354 143 354 143 359 136.5 c 128,-1,32
 364 130 364 130 373.5 119.5 c 128,-1,33
 383 109 383 109 391 105 c 128,-1,34
 399 101 399 101 410 97.5 c 128,-1,35
 421 94 421 94 433 94 c 1,36,37
 437 74 437 74 437 60 c 0,38,39
 437 29 437 29 412.5 9.5 c 128,-1,40
 388 -10 388 -10 353 -10 c 0,41,42
 293 -10 293 -10 266.5 27 c 128,-1,43
 240 64 240 64 207 165 c 1,44,45
 140 54 140 54 134 -6 c 1,46,47
 124 -7 124 -7 107 -7 c 0,48,49
 62 -7 62 -7 36.5 9 c 128,-1,50
 11 25 11 25 11 52 c 0,51,52
 11 64 11 64 16.5 78 c 128,-1,53
 22 92 22 92 34 107 c 128,-1,54
 46 122 46 122 55.5 133.5 c 128,-1,55
 65 145 65 145 84.5 162 c 128,-1,56
 104 179 104 179 112 186 c 128,-1,57
 120 193 120 193 141 209.5 c 128,-1,58
 162 226 162 226 164 228 c 1,59,60
 160 236 160 236 151 256 c 128,-1,61
 142 276 142 276 138 283.5 c 128,-1,62
 134 291 134 291 126 306.5 c 128,-1,63
 118 322 118 322 113 328.5 c 128,-1,64
 108 335 108 335 99.5 345 c 128,-1,65
 91 355 91 355 83 359 c 128,-1,66
 75 363 75 363 65 366.5 c 128,-1,67
 55 370 55 370 44 370 c 1,0,1
EndSplineSet
EndChar

StartChar: y
Encoding: 121 121 92
Width: 485
GlyphClass: 2
Flags: W
LayerCount: 2
Fore
SplineSet
249 112 m 1,0,1
 312 273 312 273 318 390 c 1,2,3
 318 428 318 428 303 459 c 1,4,5
 338 484 338 484 384 484 c 0,6,7
 470 484 470 484 470 405 c 0,8,9
 470 332 470 332 416.5 212 c 128,-1,10
 363 92 363 92 298 -4 c 0,11,12
 266 -52 266 -52 245.5 -79.5 c 128,-1,13
 225 -107 225 -107 193 -140 c 128,-1,14
 161 -173 161 -173 131 -190 c 128,-1,15
 101 -207 101 -207 59 -218.5 c 128,-1,16
 17 -230 17 -230 -34 -230 c 0,17,18
 -100 -230 -100 -230 -140 -209 c 128,-1,19
 -180 -188 -180 -188 -180 -156 c 0,20,21
 -180 -114 -180 -114 -110 -78 c 1,22,23
 -103 -104 -103 -104 -76 -122 c 128,-1,24
 -49 -140 -49 -140 -21 -140 c 0,25,26
 72 -140 72 -140 155 3 c 1,27,28
 153 61 153 61 102.5 217.5 c 128,-1,29
 52 374 52 374 3 412 c 1,30,31
 26 444 26 444 57 463.5 c 128,-1,32
 88 483 88 483 116 483 c 0,33,34
 145 483 145 483 167.5 461.5 c 128,-1,35
 190 440 190 440 201 397 c 0,36,37
 228 288 228 288 249 112 c 1,0,1
EndSplineSet
EndChar

StartChar: z
Encoding: 122 122 93
Width: 472
GlyphClass: 2
Flags: W
LayerCount: 2
Fore
SplineSet
119 483 m 0,0,1
 147 483 147 483 241 473.5 c 128,-1,2
 335 464 335 464 379 464 c 0,3,4
 428 464 428 464 450 473 c 1,5,6
 467 455 467 455 467 422 c 0,7,8
 467 398 467 398 452 382 c 0,9,10
 293 215 293 215 210 108 c 1,11,12
 215 109 215 109 225 109 c 0,13,14
 247 109 247 109 294 99.5 c 128,-1,15
 341 90 341 90 362 90 c 0,16,17
 397 90 397 90 417 102 c 1,18,19
 428 77 428 77 428 54 c 0,20,21
 428 20 428 20 405.5 5 c 128,-1,22
 383 -10 383 -10 331 -10 c 0,23,24
 306 -10 306 -10 230.5 -1 c 128,-1,25
 155 8 155 8 113 8 c 0,26,27
 63 8 63 8 30 -1 c 1,28,29
 11 25 11 25 11 41 c 0,30,31
 11 56 11 56 23 79 c 0,32,33
 59 142 59 142 269 372 c 1,34,35
 245 372 245 372 197 378 c 128,-1,36
 149 384 149 384 123 384 c 0,37,38
 92 384 92 384 64 370 c 1,39,40
 56 399 56 399 56 423 c 0,41,42
 56 483 56 483 119 483 c 0,0,1
EndSplineSet
EndChar

StartChar: braceleft
Encoding: 123 123 94
Width: 412
GlyphClass: 2
Flags: W
LayerCount: 2
Fore
SplineSet
182 286 m 1,0,1
 204 278 204 278 223.5 249.5 c 128,-1,2
 243 221 243 221 243 191 c 0,3,4
 243 184 243 184 229.5 84 c 128,-1,5
 216 -16 216 -16 216 -25 c 0,6,7
 216 -43 216 -43 230 -50.5 c 128,-1,8
 244 -58 244 -58 282 -58 c 0,9,10
 321 -58 321 -58 321 -94 c 0,11,12
 321 -110 321 -110 312 -141 c 1,13,14
 299 -142 299 -142 278 -142 c 0,15,16
 178 -142 178 -142 134 -118.5 c 128,-1,17
 90 -95 90 -95 90 -48 c 0,18,19
 90 -30 90 -30 104.5 72 c 128,-1,20
 119 174 119 174 119 190 c 0,21,22
 119 218 119 218 104.5 239.5 c 128,-1,23
 90 261 90 261 60 261 c 1,24,-1
 66 311 l 1,25,26
 101 311 101 311 123 338 c 128,-1,27
 145 365 145 365 149 395 c 2,28,-1
 176 604 l 2,29,30
 184 660 184 660 234 687.5 c 128,-1,31
 284 715 284 715 392 715 c 0,32,33
 414 715 414 715 426 714 c 1,34,35
 427 707 427 707 427 693 c 0,36,37
 427 631 427 631 374 631 c 0,38,39
 324 631 324 631 311 619 c 128,-1,40
 298 607 298 607 293 571 c 2,41,-1
 269 393 l 2,42,43
 264 358 264 358 236.5 326.5 c 128,-1,44
 209 295 209 295 182 286 c 1,0,1
EndSplineSet
EndChar

StartChar: bar
Encoding: 124 124 95
Width: 503
GlyphClass: 2
Flags: W
LayerCount: 2
Fore
SplineSet
208 302 m 2,0,-1
 208 319 l 2,1,2
 208 654 208 654 196 732 c 1,3,4
 219 737 219 737 239 737 c 0,5,6
 305 737 305 737 305 682 c 0,7,8
 305 677 305 677 302.5 606 c 128,-1,9
 300 535 300 535 297.5 418.5 c 128,-1,10
 295 302 295 302 295 186 c 2,11,-1
 295 169 l 2,12,13
 295 -166 295 -166 307 -244 c 1,14,15
 284 -249 284 -249 264 -249 c 0,16,17
 198 -249 198 -249 198 -194 c 0,18,19
 198 -189 198 -189 200.5 -118 c 128,-1,20
 203 -47 203 -47 205.5 69.5 c 128,-1,21
 208 186 208 186 208 302 c 2,0,-1
EndSplineSet
EndChar

StartChar: braceright
Encoding: 125 125 96
Width: 411
GlyphClass: 2
Flags: W
LayerCount: 2
Fore
SplineSet
229 287 m 1,0,1
 207 295 207 295 187.5 323.5 c 128,-1,2
 168 352 168 352 168 382 c 0,3,4
 168 389 168 389 181.5 489.5 c 128,-1,5
 195 590 195 590 195 598 c 0,6,7
 195 616 195 616 181 623.5 c 128,-1,8
 167 631 167 631 129 631 c 0,9,10
 89 631 89 631 89 665 c 0,11,12
 89 682 89 682 99 714 c 1,13,14
 112 715 112 715 133 715 c 0,15,16
 233 715 233 715 277 691.5 c 128,-1,17
 321 668 321 668 321 621 c 0,18,19
 321 603 321 603 306.5 499 c 128,-1,20
 292 395 292 395 292 382 c 0,21,22
 292 355 292 355 306.5 333.5 c 128,-1,23
 321 312 321 312 351 312 c 1,24,-1
 345 262 l 1,25,26
 310 262 310 262 288 235 c 128,-1,27
 266 208 266 208 262 178 c 2,28,-1
 235 -31 l 2,29,30
 227 -87 227 -87 177 -114.5 c 128,-1,31
 127 -142 127 -142 19 -142 c 0,32,33
 -3 -142 -3 -142 -14 -141 c 1,34,35
 -15 -134 -15 -134 -15 -121 c 0,36,37
 -15 -58 -15 -58 37 -58 c 0,38,39
 87 -58 87 -58 100 -46 c 128,-1,40
 113 -34 113 -34 118 2 c 2,41,-1
 142 180 l 2,42,43
 147 215 147 215 174.5 246.5 c 128,-1,44
 202 278 202 278 229 287 c 1,0,1
EndSplineSet
EndChar

StartChar: asciitilde
Encoding: 126 126 97
Width: 608
GlyphClass: 2
Flags: W
LayerCount: 2
Fore
SplineSet
31 267 m 0,0,1
 31 349 31 349 159 349 c 0,2,3
 214 349 214 349 301.5 329 c 128,-1,4
 389 309 389 309 431 309 c 0,5,6
 504 309 504 309 543 344 c 1,7,8
 577 308 577 308 577 275 c 0,9,10
 577 233 577 233 531.5 213 c 128,-1,11
 486 193 486 193 424 193 c 0,12,13
 389 193 389 193 306 213 c 128,-1,14
 223 233 223 233 178 233 c 0,15,16
 104 233 104 233 65 198 c 1,17,18
 31 234 31 234 31 267 c 0,0,1
EndSplineSet
EndChar

StartChar: exclamdown
Encoding: 161 161 98
Width: 344
GlyphClass: 2
Flags: W
LayerCount: 2
Fore
SplineSet
212 -165 m 0,0,1
 212 -196 212 -196 214 -208 c 1,2,3
 170 -219 170 -219 134 -219 c 0,4,5
 54 -219 54 -219 54 -160 c 0,6,7
 54 -138 54 -138 83 -11.5 c 128,-1,8
 112 115 112 115 112 196 c 0,9,10
 112 218 112 218 110 227 c 1,11,12
 146 246 146 246 181 246 c 0,13,14
 212 246 212 246 231.5 232.5 c 128,-1,15
 251 219 251 219 251 194 c 0,16,17
 251 188 251 188 241.5 122.5 c 128,-1,18
 232 57 232 57 222 -27.5 c 128,-1,19
 212 -112 212 -112 212 -165 c 0,0,1
216 485 m 0,20,21
 248 485 248 485 269 464 c 128,-1,22
 290 443 290 443 290 410 c 0,23,24
 290 371 290 371 261 339 c 128,-1,25
 232 307 232 307 191 307 c 0,26,27
 160 307 160 307 138.5 329.5 c 128,-1,28
 117 352 117 352 117 385 c 0,29,30
 117 423 117 423 147 454 c 128,-1,31
 177 485 177 485 216 485 c 0,20,21
EndSplineSet
EndChar

StartChar: cent
Encoding: 162 162 99
Width: 574
GlyphClass: 2
Flags: W
LayerCount: 2
Fore
SplineSet
277 -16 m 1,0,1
 241 -16 241 -16 241 14 c 0,2,3
 241 23 241 23 248 73 c 1,4,5
 167 87 167 87 113.5 138 c 128,-1,6
 60 189 60 189 60 276 c 0,7,8
 60 402 60 402 135 478 c 128,-1,9
 210 554 210 554 316 574 c 1,10,11
 322 614 322 614 326 677 c 1,12,13
 340 682 340 682 351 682 c 0,14,15
 386 682 386 682 386 653 c 0,16,17
 386 651 386 651 376 581 c 1,18,-1
 383 581 l 2,19,20
 457 581 457 581 501.5 553.5 c 128,-1,21
 546 526 546 526 546 491 c 0,22,23
 546 470 546 470 527.5 452.5 c 128,-1,24
 509 435 509 435 474 426 c 1,25,26
 437 484 437 484 377 484 c 0,27,28
 374 484 374 484 369.5 483.5 c 128,-1,29
 365 483 365 483 363 483 c 1,30,31
 346 355 346 355 318 165 c 1,32,33
 324 164 324 164 337 164 c 0,34,35
 402 164 402 164 437 224 c 1,36,37
 501 212 501 212 501 174 c 0,38,39
 501 144 501 144 480 121.5 c 128,-1,40
 459 99 459 99 426 88.5 c 128,-1,41
 393 78 393 78 362.5 73 c 128,-1,42
 332 68 332 68 305 68 c 1,43,44
 301 40 301 40 299 -13 c 1,45,-1
 277 -16 l 1,0,1
216 296 m 0,46,47
 216 227 216 227 264 189 c 1,48,-1
 301 459 l 1,49,50
 263 433 263 433 239.5 390 c 128,-1,51
 216 347 216 347 216 296 c 0,46,47
EndSplineSet
EndChar

StartChar: sterling
Encoding: 163 163 100
Width: 574
GlyphClass: 2
Flags: W
LayerCount: 2
Fore
SplineSet
428 312 m 1,0,-1
 361 315 l 1,1,2
 361 248 361 248 332.5 199.5 c 128,-1,3
 304 151 304 151 218 104 c 1,4,5
 238 103 238 103 282.5 94.5 c 128,-1,6
 327 86 327 86 346 86 c 0,7,8
 410 86 410 86 415 152 c 1,9,-1
 425 152 l 2,10,11
 509 152 509 152 509 96 c 0,12,13
 509 62 509 62 483 38.5 c 128,-1,14
 457 15 457 15 424 6 c 128,-1,15
 391 -3 391 -3 355 -3 c 0,16,17
 267 -3 267 -3 191 13 c 128,-1,18
 115 29 115 29 106 29 c 1,19,20
 97 16 97 16 78.5 7 c 128,-1,21
 60 -2 60 -2 42 -2 c 0,22,23
 5 -2 5 -2 5 35 c 0,24,25
 5 63 5 63 31 86 c 128,-1,26
 57 109 57 109 109 112 c 1,27,28
 162 169 162 169 184 205.5 c 128,-1,29
 206 242 206 242 206 284 c 0,30,31
 206 302 206 302 202 315 c 1,32,33
 173 315 173 315 134 313.5 c 128,-1,34
 95 312 95 312 73 312 c 1,35,36
 71 326 71 326 71 333 c 0,37,38
 71 388 71 388 117 393 c 0,39,40
 120 393 120 393 178 396 c 1,41,42
 147 465 147 465 147 503 c 0,43,44
 147 576 147 576 216.5 625 c 128,-1,45
 286 674 286 674 379 674 c 0,46,47
 426 674 426 674 454 653 c 128,-1,48
 482 632 482 632 482 604 c 0,49,50
 482 581 482 581 462 560 c 128,-1,51
 442 539 442 539 403 528 c 1,52,53
 388 568 388 568 351 568 c 0,54,55
 328 568 328 568 311.5 552.5 c 128,-1,56
 295 537 295 537 295 510 c 0,57,58
 295 491 295 491 318 451 c 128,-1,59
 341 411 341 411 346 400 c 1,60,61
 431 404 431 404 493 412 c 1,62,63
 496 392 496 392 496 374 c 0,64,65
 496 344 496 344 481.5 328 c 128,-1,66
 467 312 467 312 428 312 c 1,0,-1
EndSplineSet
EndChar

StartChar: yen
Encoding: 165 165 101
Width: 574
GlyphClass: 2
Flags: W
LayerCount: 2
Fore
SplineSet
521 354 m 1,0,-1
 521 344 l 2,1,2
 521 291 521 291 478 291 c 2,3,-1
 345 291 l 1,4,-1
 338 236 l 1,5,6
 424 236 424 236 506 244 c 1,7,-1
 506 234 l 2,8,9
 506 181 506 181 463 181 c 2,10,-1
 331 181 l 1,11,12
 318 92 318 92 318 58 c 0,13,14
 318 34 318 34 321 7 c 1,15,16
 289 -3 289 -3 245 -3 c 0,17,18
 203 -3 203 -3 186 10 c 128,-1,19
 169 23 169 23 169 50 c 0,20,21
 169 74 169 74 185 180 c 1,22,23
 88 178 88 178 30 173 c 1,24,25
 28 179 28 179 28 191 c 0,26,27
 28 236 28 236 70 236 c 2,28,-1
 194 236 l 1,29,-1
 202 291 l 1,30,31
 119 290 119 290 45 283 c 1,32,33
 43 289 43 289 43 301 c 0,34,35
 43 346 43 346 85 346 c 2,36,-1
 181 346 l 1,37,38
 112 552 112 552 55 613 c 1,39,40
 106 668 106 668 154 668 c 0,41,42
 200 668 200 668 218 624 c 0,43,44
 268 497 268 497 300 383 c 1,45,46
 343 446 343 446 392 540.5 c 128,-1,47
 441 635 441 635 446 672 c 1,48,49
 572 672 572 672 572 609 c 0,50,51
 572 582 572 582 519.5 505 c 128,-1,52
 467 428 467 428 398 346 c 1,53,54
 458 347 458 347 521 354 c 1,0,-1
EndSplineSet
EndChar

StartChar: brokenbar
Encoding: 166 166 102
Width: 574
GlyphClass: 2
Flags: W
LayerCount: 2
Fore
SplineSet
242 554 m 2,0,-1
 242 561 l 2,1,2
 242 700 242 700 230 732 c 1,3,4
 253 737 253 737 273 737 c 0,5,6
 339 737 339 737 339 682 c 0,7,8
 339 680 339 680 336.5 650.5 c 128,-1,9
 334 621 334 621 331.5 573 c 128,-1,10
 329 525 329 525 329 477 c 2,11,-1
 329 470 l 2,12,13
 329 332 329 332 341 300 c 1,14,15
 318 294 318 294 298 294 c 0,16,17
 232 294 232 294 232 348 c 0,18,19
 232 350 232 350 234.5 379.5 c 128,-1,20
 237 409 237 409 239.5 457.5 c 128,-1,21
 242 506 242 506 242 554 c 2,0,-1
242 11 m 2,22,-1
 242 18 l 2,23,24
 242 157 242 157 230 189 c 1,25,26
 253 194 253 194 273 194 c 0,27,28
 339 194 339 194 339 139 c 0,29,30
 339 137 339 137 336.5 107.5 c 128,-1,31
 334 78 334 78 331.5 30 c 128,-1,32
 329 -18 329 -18 329 -66 c 2,33,-1
 329 -73 l 2,34,35
 329 -211 329 -211 341 -243 c 1,36,37
 318 -249 318 -249 298 -249 c 0,38,39
 232 -249 232 -249 232 -195 c 0,40,41
 232 -193 232 -193 234.5 -163.5 c 128,-1,42
 237 -134 237 -134 239.5 -85.5 c 128,-1,43
 242 -37 242 -37 242 11 c 2,22,-1
EndSplineSet
EndChar

StartChar: section
Encoding: 167 167 103
Width: 482
GlyphClass: 2
Flags: W
LayerCount: 2
Fore
SplineSet
68 309 m 0,0,1
 68 389 68 389 136 437 c 1,2,3
 117 469 117 469 117 507 c 0,4,5
 117 588 117 588 181 630 c 128,-1,6
 245 672 245 672 334 672 c 0,7,8
 407 672 407 672 444.5 650 c 128,-1,9
 482 628 482 628 482 597 c 0,10,11
 482 571 482 571 457 548 c 128,-1,12
 432 525 432 525 390 516 c 1,13,14
 386 545 386 545 364 563 c 128,-1,15
 342 581 342 581 315 581 c 128,-1,16
 288 581 288 581 268 566 c 128,-1,17
 248 551 248 551 248 523 c 0,18,19
 248 496 248 496 269 474 c 128,-1,20
 290 452 290 452 320.5 435.5 c 128,-1,21
 351 419 351 419 381.5 400 c 128,-1,22
 412 381 412 381 433 351.5 c 128,-1,23
 454 322 454 322 454 283 c 0,24,25
 454 211 454 211 390 158 c 1,26,27
 410 126 410 126 410 90 c 0,28,29
 410 12 410 12 342 -33 c 128,-1,30
 274 -78 274 -78 187 -78 c 0,31,32
 102 -78 102 -78 60.5 -56 c 128,-1,33
 19 -34 19 -34 19 -2 c 0,34,35
 19 21 19 21 38.5 42.5 c 128,-1,36
 58 64 58 64 90 75 c 1,37,38
 114 12 114 12 198 12 c 0,39,40
 230 12 230 12 252.5 31 c 128,-1,41
 275 50 275 50 275 84 c 0,42,43
 275 112 275 112 253.5 132 c 128,-1,44
 232 152 232 152 202 166 c 128,-1,45
 172 180 172 180 141.5 196.5 c 128,-1,46
 111 213 111 213 89.5 241 c 128,-1,47
 68 269 68 269 68 309 c 0,0,1
162 363 m 0,48,49
 162 330 162 330 192.5 303.5 c 128,-1,50
 223 277 223 277 277 247.5 c 128,-1,51
 331 218 331 218 356 196 c 1,52,53
 362 209 362 209 362 222 c 0,54,55
 362 252 362 252 331 278.5 c 128,-1,56
 300 305 300 305 247.5 337 c 128,-1,57
 195 369 195 369 168 395 c 1,58,59
 162 382 162 382 162 363 c 0,48,49
EndSplineSet
EndChar

StartChar: dieresis
Encoding: 168 168 104
Width: 409
GlyphClass: 2
Flags: W
LayerCount: 2
Fore
SplineSet
191 530 m 0,0,1
 156 530 156 530 137 551 c 128,-1,2
 118 572 118 572 118 603 c 0,3,4
 118 640 118 640 143.5 669.5 c 128,-1,5
 169 699 169 699 212 699 c 0,6,7
 246 699 246 699 265.5 676 c 128,-1,8
 285 653 285 653 285 621 c 0,9,10
 285 585 285 585 260 557.5 c 128,-1,11
 235 530 235 530 191 530 c 0,0,1
419 530 m 0,12,13
 384 530 384 530 365 551 c 128,-1,14
 346 572 346 572 346 603 c 0,15,16
 346 640 346 640 371.5 669.5 c 128,-1,17
 397 699 397 699 440 699 c 0,18,19
 474 699 474 699 493.5 676 c 128,-1,20
 513 653 513 653 513 621 c 0,21,22
 513 585 513 585 488 557.5 c 128,-1,23
 463 530 463 530 419 530 c 0,12,13
EndSplineSet
EndChar

StartChar: copyright
Encoding: 169 169 105
Width: 840
GlyphClass: 2
Flags: W
LayerCount: 2
Fore
SplineSet
613 161 m 0,0,1
 613 135 613 135 572 115.5 c 128,-1,2
 531 96 531 96 475 96 c 0,3,4
 434 96 434 96 397 107.5 c 128,-1,5
 360 119 360 119 326.5 143.5 c 128,-1,6
 293 168 293 168 273 213.5 c 128,-1,7
 253 259 253 259 253 319 c 0,8,9
 253 433 253 433 319 492 c 128,-1,10
 385 551 385 551 469 551 c 0,11,12
 499 551 499 551 530.5 542.5 c 128,-1,13
 562 534 562 534 588 513.5 c 128,-1,14
 614 493 614 493 614 464 c 0,15,16
 614 425 614 425 541 415 c 1,17,18
 533 446 533 446 510 462 c 128,-1,19
 487 478 487 478 462 478 c 0,20,21
 422 478 422 478 395 437 c 128,-1,22
 368 396 368 396 368 330 c 0,23,24
 368 246 368 246 402.5 207.5 c 128,-1,25
 437 169 437 169 484 169 c 0,26,27
 538 169 538 169 572 215 c 1,28,29
 613 190 613 190 613 161 c 0,0,1
808 320 m 0,30,31
 808 170 808 170 707.5 68 c 128,-1,32
 607 -34 607 -34 463 -34 c 0,33,34
 316 -34 316 -34 216 67.5 c 128,-1,35
 116 169 116 169 116 320 c 0,36,37
 116 472 116 472 216 573 c 128,-1,38
 316 674 316 674 463 674 c 0,39,40
 608 674 608 674 708 573 c 128,-1,41
 808 472 808 472 808 320 c 0,30,31
736 320 m 0,42,43
 736 452 736 452 656.5 534.5 c 128,-1,44
 577 617 577 617 463 617 c 0,45,46
 347 617 347 617 267.5 535 c 128,-1,47
 188 453 188 453 188 320 c 128,-1,48
 188 187 188 187 267.5 105 c 128,-1,49
 347 23 347 23 463 23 c 0,50,51
 577 23 577 23 656.5 105 c 128,-1,52
 736 187 736 187 736 320 c 0,42,43
EndSplineSet
EndChar

StartChar: ordfeminine
Encoding: 170 170 106
Width: 345
GlyphClass: 2
Flags: W
LayerCount: 2
Fore
SplineSet
201 482 m 1,0,1
 183 480 183 480 173.5 478.5 c 128,-1,2
 164 477 164 477 151.5 472.5 c 128,-1,3
 139 468 139 468 133.5 459.5 c 128,-1,4
 128 451 128 451 128 439 c 0,5,6
 128 417 128 417 149 417 c 0,7,8
 176 417 176 417 193 432 c 1,9,-1
 195 448 l 2,10,11
 197 468 197 468 201 482 c 1,0,1
106 551 m 1,12,13
 88 553 88 553 75.5 563.5 c 128,-1,14
 63 574 63 574 63 587 c 0,15,16
 63 618 63 618 102 630.5 c 128,-1,17
 141 643 141 643 183 643 c 0,18,19
 230 643 230 643 262 625 c 128,-1,20
 294 607 294 607 294 567 c 0,21,22
 294 559 294 559 284.5 496.5 c 128,-1,23
 275 434 275 434 275 400 c 0,24,25
 275 381 275 381 277 373 c 1,26,27
 260 362 260 362 230 362 c 0,28,29
 188 362 188 362 188 393 c 1,30,31
 158 358 158 358 112 358 c 0,32,33
 80 358 80 358 57.5 377 c 128,-1,34
 35 396 35 396 35 430 c 0,35,36
 35 447 35 447 39 460 c 128,-1,37
 43 473 43 473 48.5 482 c 128,-1,38
 54 491 54 491 66 498.5 c 128,-1,39
 78 506 78 506 86 509.5 c 128,-1,40
 94 513 94 513 112.5 516.5 c 128,-1,41
 131 520 131 520 140.5 521.5 c 128,-1,42
 150 523 150 523 172.5 525.5 c 128,-1,43
 195 528 195 528 205 529 c 1,44,45
 207 549 207 549 207 556 c 0,46,47
 207 573 207 573 199.5 580.5 c 128,-1,48
 192 588 192 588 172 588 c 0,49,50
 126 588 126 588 106 551 c 1,12,13
281 286 m 0,51,52
 281 214 281 214 203 214 c 0,53,54
 192 214 192 214 163 217.5 c 128,-1,55
 134 221 134 221 118 221 c 2,56,-1
 113 221 l 2,57,58
 72 221 72 221 22 205 c 1,59,60
 20 219 20 219 20 236 c 0,61,62
 20 308 20 308 94 308 c 0,63,64
 100 308 100 308 130 305 c 128,-1,65
 160 302 160 302 178 302 c 2,66,-1
 191 302 l 2,67,68
 238 302 238 302 277 317 c 1,69,70
 281 300 281 300 281 286 c 0,51,52
EndSplineSet
EndChar

StartChar: guillemotleft
Encoding: 171 171 107
Width: 568
GlyphClass: 2
Flags: W
LayerCount: 2
Fore
SplineSet
201 235 m 1,0,1
 225 198 225 198 249 148.5 c 128,-1,2
 273 99 273 99 273 82 c 0,3,4
 273 52 273 52 199 24 c 1,5,6
 136 87 136 87 54 235 c 1,7,8
 171 380 171 380 254 446 c 1,9,10
 313 415 313 415 313 391 c 0,11,12
 313 364 313 364 201 235 c 1,0,1
441 235 m 1,13,14
 465 198 465 198 489 148.5 c 128,-1,15
 513 99 513 99 513 82 c 0,16,17
 513 52 513 52 439 24 c 1,18,19
 376 87 376 87 294 235 c 1,20,21
 411 380 411 380 494 446 c 1,22,23
 553 415 553 415 553 391 c 0,24,25
 553 364 553 364 441 235 c 1,13,14
EndSplineSet
EndChar

StartChar: logicalnot
Encoding: 172 172 108
Width: 574
GlyphClass: 2
Flags: W
LayerCount: 2
Fore
SplineSet
495 336 m 1,0,1
 498 103 498 103 498 100 c 0,2,3
 498 64 498 64 484.5 48 c 128,-1,4
 471 32 471 32 435 32 c 0,5,6
 397 32 397 32 371 44 c 1,7,8
 396 129 396 129 396 246 c 2,9,-1
 396 261 l 1,10,-1
 210 261 l 2,11,12
 129 261 129 261 67 240 c 1,13,14
 57 262 57 262 57 283 c 0,15,16
 57 336 57 336 117 336 c 2,17,-1
 495 336 l 1,0,1
EndSplineSet
EndChar

StartChar: registered
Encoding: 174 174 109
Width: 572
GlyphClass: 2
Flags: W
LayerCount: 2
Fore
SplineSet
416 356 m 1,0,1
 420 348 420 348 420 340 c 0,2,3
 420 329 420 329 410 322.5 c 128,-1,4
 400 316 400 316 386 316 c 0,5,6
 361 316 361 316 346 334 c 1,7,8
 303 379 303 379 281 419 c 1,9,-1
 281 396 l 2,10,11
 281 354 281 354 290 328 c 1,12,13
 271 318 271 318 253 318 c 0,14,15
 206 318 206 318 206 348 c 0,16,17
 206 357 206 357 207 378 c 128,-1,18
 208 399 208 399 208 407 c 2,19,-1
 208 474 l 2,20,21
 208 526 208 526 203 560 c 1,22,23
 278 566 278 566 300 566 c 0,24,25
 412 566 412 566 412 488 c 0,26,27
 412 437 412 437 352 418 c 1,28,29
 359 404 359 404 398 360 c 0,30,31
 402 356 402 356 416 356 c 1,0,1
301 451 m 0,32,33
 340 451 340 451 340 488 c 0,34,35
 340 506 340 506 326.5 517.5 c 128,-1,36
 313 529 313 529 294 529 c 2,37,-1
 281 529 l 1,38,-1
 281 452 l 1,39,40
 285 451 285 451 301 451 c 0,32,33
533 440 m 128,-1,42
 533 341 533 341 466.5 274 c 128,-1,43
 400 207 400 207 305 207 c 0,44,45
 208 207 208 207 142 274 c 128,-1,46
 76 341 76 341 76 440 c 0,47,48
 76 540 76 540 142 606.5 c 128,-1,49
 208 673 208 673 305 673 c 0,50,51
 400 673 400 673 466.5 606 c 128,-1,41
 533 539 533 539 533 440 c 128,-1,42
474 440 m 128,-1,53
 474 522 474 522 425 572.5 c 128,-1,54
 376 623 376 623 305 623 c 0,55,56
 233 623 233 623 184 572.5 c 128,-1,57
 135 522 135 522 135 440 c 128,-1,58
 135 358 135 358 184 307.5 c 128,-1,59
 233 257 233 257 305 257 c 0,60,61
 376 257 376 257 425 307.5 c 128,-1,52
 474 358 474 358 474 440 c 128,-1,53
EndSplineSet
EndChar

StartChar: macron
Encoding: 175 175 110
Width: 412
GlyphClass: 2
Flags: W
LayerCount: 2
Fore
SplineSet
276 646 m 2,0,1
 335 646 335 646 419 654 c 1,2,3
 419 652 419 652 418.5 636.5 c 128,-1,4
 418 621 418 621 417.5 615.5 c 128,-1,5
 417 610 417 610 415 597 c 128,-1,6
 413 584 413 584 409.5 578 c 128,-1,7
 406 572 406 572 401 564 c 128,-1,8
 396 556 396 556 387.5 553 c 128,-1,9
 379 550 379 550 368 550 c 1,10,-1
 348 552 l 2,11,12
 329 554 329 554 298 555.5 c 128,-1,13
 267 557 267 557 239 557 c 2,14,-1
 212 557 l 2,15,16
 150 557 150 557 87 550 c 1,17,18
 87 552 87 552 87 565 c 128,-1,19
 87 578 87 578 87.5 584.5 c 128,-1,20
 88 591 88 591 89.5 603.5 c 128,-1,21
 91 616 91 616 94 623 c 128,-1,22
 97 630 97 630 102 638 c 128,-1,23
 107 646 107 646 115 650 c 128,-1,24
 123 654 123 654 133 654 c 0,25,26
 136 654 136 654 181.5 650 c 128,-1,27
 227 646 227 646 249 646 c 2,28,-1
 276 646 l 2,0,1
EndSplineSet
EndChar

StartChar: degree
Encoding: 176 176 111
Width: 351
GlyphClass: 2
Flags: W
LayerCount: 2
Fore
SplineSet
47 520 m 0,0,1
 47 597 47 597 96.5 654 c 128,-1,2
 146 711 146 711 224 711 c 0,3,4
 282 711 282 711 317.5 674 c 128,-1,5
 353 637 353 637 353 579 c 0,6,7
 353 502 353 502 304 444.5 c 128,-1,8
 255 387 255 387 177 387 c 0,9,10
 118 387 118 387 82.5 424 c 128,-1,11
 47 461 47 461 47 520 c 0,0,1
212 642 m 0,12,13
 175 642 175 642 151.5 606.5 c 128,-1,14
 128 571 128 571 128 528 c 0,15,16
 128 495 128 495 142 475.5 c 128,-1,17
 156 456 156 456 184 456 c 0,18,19
 221 456 221 456 243.5 492 c 128,-1,20
 266 528 266 528 266 571 c 0,21,22
 266 603 266 603 252.5 622.5 c 128,-1,23
 239 642 239 642 212 642 c 0,12,13
EndSplineSet
EndChar

StartChar: plusminus
Encoding: 177 177 112
Width: 574
GlyphClass: 2
Flags: W
LayerCount: 2
Fore
SplineSet
493 57 m 0,0,1
 493 32 493 32 479 14.5 c 128,-1,2
 465 -3 465 -3 442 -3 c 0,3,4
 425 -3 425 -3 365.5 2.5 c 128,-1,5
 306 8 306 8 276 8 c 0,6,7
 163 8 163 8 60 -3 c 1,8,9
 56 18 56 18 56 39 c 0,10,11
 56 62 56 62 68.5 80.5 c 128,-1,12
 81 99 81 99 107 99 c 0,13,14
 111 99 111 99 174.5 94 c 128,-1,15
 238 89 238 89 284 89 c 0,16,17
 418 89 418 89 487 99 c 1,18,19
 493 87 493 87 493 57 c 0,0,1
326 333 m 1,20,21
 411 333 411 333 514 344 c 1,22,23
 518 332 518 332 518 302 c 0,24,25
 518 277 518 277 503.5 259.5 c 128,-1,26
 489 242 489 242 466 242 c 0,27,28
 442 242 442 242 401 247 c 128,-1,29
 360 252 360 252 325 252 c 1,30,31
 325 187 325 187 336 126 c 1,32,33
 304 120 304 120 293 120 c 0,34,35
 269 120 269 120 251 132.5 c 128,-1,36
 233 145 233 145 233 169 c 0,37,38
 233 179 233 179 238 211 c 128,-1,39
 243 243 243 243 243 253 c 1,40,41
 209 253 209 253 47 242 c 1,42,43
 43 263 43 263 43 284 c 0,44,45
 43 307 43 307 55.5 325.5 c 128,-1,46
 68 344 68 344 95 344 c 0,47,48
 103 344 103 344 143.5 340 c 128,-1,49
 184 336 184 336 245 334 c 1,50,51
 245 407 245 407 233 506 c 1,52,53
 246 510 246 510 276 510 c 0,54,55
 301 510 301 510 318.5 496 c 128,-1,56
 336 482 336 482 336 459 c 128,-1,57
 336 436 336 436 331 402 c 128,-1,58
 326 368 326 368 326 333 c 1,20,21
EndSplineSet
EndChar

StartChar: twosuperior
Encoding: 178 178 113
Width: 499
GlyphClass: 2
Flags: W
LayerCount: 2
Fore
SplineSet
163 509 m 1,0,1
 106 518 106 518 106 559 c 0,2,3
 106 594 106 594 141.5 621.5 c 128,-1,4
 177 649 177 649 219 661 c 128,-1,5
 261 673 261 673 295 673 c 0,6,7
 367 673 367 673 403.5 642.5 c 128,-1,8
 440 612 440 612 440 564 c 0,9,10
 440 525 440 525 420.5 489 c 128,-1,11
 401 453 401 453 362.5 420 c 128,-1,12
 324 387 324 387 296 367.5 c 128,-1,13
 268 348 268 348 222 320 c 1,14,15
 239 319 239 319 272 319 c 0,16,17
 358 319 358 319 420 338 c 1,18,19
 435 308 435 308 435 285 c 0,20,21
 435 242 435 242 402 232 c 0,22,23
 361 220 361 220 276 220 c 0,24,25
 238 220 238 220 182 221 c 128,-1,26
 126 222 126 222 99 222 c 0,27,28
 54 222 54 222 54 259 c 0,29,30
 54 276 54 276 61 302 c 1,31,32
 304 449 304 449 304 546 c 0,33,34
 304 582 304 582 261 582 c 0,35,36
 204 582 204 582 163 509 c 1,0,1
EndSplineSet
EndChar

StartChar: threesuperior
Encoding: 179 179 114
Width: 493
GlyphClass: 2
Flags: W
LayerCount: 2
Fore
SplineSet
172 484 m 1,0,1
 294 486 294 486 294 563 c 0,2,3
 294 593 294 593 255 593 c 0,4,5
 229 593 229 593 199.5 579 c 128,-1,6
 170 565 170 565 156 545 c 1,7,8
 118 556 118 556 118 591 c 0,9,10
 118 619 118 619 149.5 638.5 c 128,-1,11
 181 658 181 658 215.5 665.5 c 128,-1,12
 250 673 250 673 278 673 c 0,13,14
 355 673 355 673 392.5 648 c 128,-1,15
 430 623 430 623 430 581 c 0,16,17
 430 538 430 538 404.5 506 c 128,-1,18
 379 474 379 474 335 458 c 1,19,20
 408 433 408 433 408 361 c 0,21,22
 408 284 408 284 345.5 246 c 128,-1,23
 283 208 283 208 189 208 c 0,24,25
 167 208 167 208 140 211.5 c 128,-1,26
 113 215 113 215 83.5 229 c 128,-1,27
 54 243 54 243 54 266 c 0,28,29
 54 303 54 303 108 339 c 1,30,31
 137 292 137 292 200 292 c 0,32,33
 275 292 275 292 275 364 c 0,34,35
 275 389 275 389 254 405 c 128,-1,36
 233 421 233 421 191 421 c 0,37,38
 165 421 165 421 165 449 c 0,39,40
 165 463 165 463 172 484 c 1,0,1
EndSplineSet
EndChar

StartChar: acute
Encoding: 180 180 115
Width: 272
GlyphClass: 2
Flags: W
LayerCount: 2
Fore
SplineSet
243 629 m 0,0,1
 218 614 218 614 131.5 577.5 c 128,-1,2
 45 541 45 541 26 523 c 1,3,4
 0 548 0 548 0 579 c 0,5,6
 0 600 0 600 26.5 620 c 128,-1,7
 53 640 53 640 88 655.5 c 128,-1,8
 123 671 123 671 165 697.5 c 128,-1,9
 207 724 207 724 231 753 c 1,10,11
 248 742 248 742 260 721 c 128,-1,12
 272 700 272 700 272 681 c 0,13,14
 272 647 272 647 243 629 c 0,0,1
EndSplineSet
EndChar

StartChar: mu
Encoding: 181 181 116
Width: 544
GlyphClass: 2
Flags: W
LayerCount: 2
Fore
SplineSet
317 104 m 1,0,1
 303 57 303 57 276.5 23.5 c 128,-1,2
 250 -10 250 -10 213 -10 c 0,3,4
 190 -10 190 -10 165 5 c 1,5,6
 153 -33 153 -33 153 -73 c 0,7,8
 153 -148 153 -148 196 -176 c 1,9,10
 168 -253 168 -253 90 -253 c 0,11,12
 9 -253 9 -253 9 -156 c 0,13,14
 9 -110 9 -110 45.5 105 c 128,-1,15
 82 320 82 320 83 350 c 1,16,17
 83 392 83 392 52 402 c 1,18,19
 58 441 58 441 87.5 463 c 128,-1,20
 117 485 117 485 153 485 c 0,21,22
 240 485 240 485 240 393 c 0,23,24
 240 358 240 358 220.5 268 c 128,-1,25
 201 178 201 178 200 136 c 1,26,27
 200 81 200 81 232 81 c 0,28,29
 255 81 255 81 283 121 c 128,-1,30
 311 161 311 161 324 217 c 1,31,32
 351 377 351 377 356 464 c 1,33,34
 396 478 396 478 426 478 c 0,35,36
 504 478 504 478 504 406 c 0,37,38
 504 384 504 384 482.5 263 c 128,-1,39
 461 142 461 142 461 124 c 0,40,41
 461 85 461 85 493 66 c 1,42,43
 484 36 484 36 459 13 c 128,-1,44
 434 -10 434 -10 395 -10 c 0,45,46
 349 -10 349 -10 332.5 13.5 c 128,-1,47
 316 37 316 37 316 78 c 0,48,49
 316 95 316 95 317 104 c 1,0,1
EndSplineSet
EndChar

StartChar: paragraph
Encoding: 182 182 117
Width: 504
GlyphClass: 2
Flags: W
LayerCount: 2
Fore
SplineSet
236 228 m 0,0,1
 234 211 234 211 190 211 c 0,2,3
 132 211 132 211 93 251 c 128,-1,4
 54 291 54 291 54 358 c 0,5,6
 54 453 54 453 115.5 514 c 128,-1,7
 177 575 177 575 262 575 c 0,8,9
 269 575 269 575 334.5 573 c 128,-1,10
 400 571 400 571 432 571 c 0,11,12
 498 571 498 571 534 572 c 1,13,14
 536 556 536 556 536 550 c 0,15,16
 536 502 536 502 471 502 c 2,17,-1
 448 502 l 1,18,19
 405 302 405 302 381 111 c 0,20,21
 352 -119 352 -119 190 -119 c 0,22,23
 115 -119 115 -119 115 -65 c 0,24,25
 115 -47 115 -47 126 -22 c 1,26,27
 154 -34 154 -34 184 -34 c 128,-1,28
 214 -34 214 -34 234 -18.5 c 128,-1,29
 254 -3 254 -3 262.5 26.5 c 128,-1,30
 271 56 271 56 275 82.5 c 128,-1,31
 279 109 279 109 281.5 147 c 128,-1,32
 284 185 284 185 286 201 c 0,33,34
 313 382 313 382 338 501 c 1,35,36
 309 501 309 501 283 503 c 1,37,38
 262 420 262 420 236 228 c 0,0,1
EndSplineSet
EndChar

StartChar: periodcentered
Encoding: 183 183 118
Width: 229
GlyphClass: 2
Flags: W
LayerCount: 2
Fore
SplineSet
107 167 m 0,0,1
 68 167 68 167 47 190.5 c 128,-1,2
 26 214 26 214 26 248 c 0,3,4
 26 289 26 289 54.5 321.5 c 128,-1,5
 83 354 83 354 130 354 c 0,6,7
 168 354 168 354 189.5 329 c 128,-1,8
 211 304 211 304 211 268 c 0,9,10
 211 228 211 228 183.5 197.5 c 128,-1,11
 156 167 156 167 107 167 c 0,0,1
EndSplineSet
EndChar

StartChar: cedilla
Encoding: 184 184 119
Width: 394
GlyphClass: 2
Flags: W
LayerCount: 2
Fore
SplineSet
116 32 m 1,0,-1
 197 27 l 1,1,2
 195 21 195 21 188 9.5 c 128,-1,3
 181 -2 181 -2 176.5 -12.5 c 128,-1,4
 172 -23 172 -23 172 -32 c 128,-1,5
 172 -41 172 -41 183 -50.5 c 128,-1,6
 194 -60 194 -60 207 -68 c 128,-1,7
 220 -76 220 -76 231 -92.5 c 128,-1,8
 242 -109 242 -109 242 -131 c 0,9,10
 242 -183 242 -183 188.5 -217.5 c 128,-1,11
 135 -252 135 -252 77 -252 c 0,12,13
 16 -252 16 -252 16 -211 c 0,14,15
 16 -186 16 -186 46 -153 c 1,16,17
 57 -166 57 -166 78 -166 c 0,18,19
 94 -166 94 -166 103.5 -155.5 c 128,-1,20
 113 -145 113 -145 113 -129 c 0,21,22
 113 -114 113 -114 95.5 -94 c 128,-1,23
 78 -74 78 -74 78 -60 c 0,24,25
 78 -31 78 -31 116 32 c 1,0,-1
EndSplineSet
EndChar

StartChar: onesuperior
Encoding: 185 185 120
Width: 436
GlyphClass: 2
Flags: W
LayerCount: 2
Fore
SplineSet
298 308 m 1,0,1
 334 308 334 308 370 312 c 1,2,3
 373 300 373 300 373 285 c 0,4,5
 373 259 373 259 363.5 239 c 128,-1,6
 354 219 354 219 334 219 c 0,7,8
 328 219 328 219 303 219.5 c 128,-1,9
 278 220 278 220 234.5 220.5 c 128,-1,10
 191 221 191 221 138 221 c 0,11,12
 91 221 91 221 65 220 c 1,13,14
 63 238 63 238 63 248 c 0,15,16
 63 310 63 310 115 310 c 2,17,-1
 160 310 l 1,18,19
 176 415 176 415 195 582 c 1,20,21
 151 577 151 577 111 562 c 1,22,23
 106 579 106 579 106 596 c 0,24,25
 106 650 106 650 145 659 c 0,26,27
 204 673 204 673 283 673 c 0,28,29
 342 673 342 673 342 621 c 0,30,31
 342 604 342 604 329 539 c 128,-1,32
 316 474 316 474 313 450 c 0,33,34
 298 345 298 345 298 308 c 1,0,1
EndSplineSet
EndChar

StartChar: ordmasculine
Encoding: 186 186 121
Width: 385
GlyphClass: 2
Flags: W
LayerCount: 2
Fore
SplineSet
172 419 m 0,0,1
 205 419 205 419 223.5 448.5 c 128,-1,2
 242 478 242 478 242 517 c 0,3,4
 242 588 242 588 195 588 c 0,5,6
 163 588 163 588 145 559 c 128,-1,7
 127 530 127 530 127 491 c 0,8,9
 127 419 127 419 172 419 c 0,0,1
165 366 m 0,10,11
 109 366 109 366 76 397.5 c 128,-1,12
 43 429 43 429 43 482 c 0,13,14
 43 547 43 547 88 595 c 128,-1,15
 133 643 133 643 201 643 c 0,16,17
 258 643 258 643 291.5 612 c 128,-1,18
 325 581 325 581 325 528 c 0,19,20
 325 463 325 463 279 414.5 c 128,-1,21
 233 366 233 366 165 366 c 0,10,11
281 286 m 0,22,23
 281 214 281 214 203 214 c 0,24,25
 192 214 192 214 163 217.5 c 128,-1,26
 134 221 134 221 118 221 c 2,27,-1
 113 221 l 2,28,29
 72 221 72 221 22 205 c 1,30,31
 20 219 20 219 20 236 c 0,32,33
 20 308 20 308 94 308 c 0,34,35
 100 308 100 308 130 305 c 128,-1,36
 160 302 160 302 178 302 c 2,37,-1
 191 302 l 2,38,39
 238 302 238 302 277 317 c 1,40,41
 281 300 281 300 281 286 c 0,22,23
EndSplineSet
EndChar

StartChar: guillemotright
Encoding: 187 187 122
Width: 571
GlyphClass: 2
Flags: W
LayerCount: 2
Fore
SplineSet
129 235 m 1,0,1
 107 267 107 267 81.5 316 c 128,-1,2
 56 365 56 365 56 384 c 0,3,4
 56 398 56 398 71 412 c 128,-1,5
 86 426 86 426 131 446 c 1,6,7
 188 389 188 389 276 235 c 1,8,9
 156 89 156 89 74 24 c 1,10,11
 15 48 15 48 15 76 c 0,12,13
 15 110 15 110 129 235 c 1,0,1
370 235 m 1,14,15
 348 267 348 267 322.5 316 c 128,-1,16
 297 365 297 365 297 384 c 0,17,18
 297 398 297 398 312 412 c 128,-1,19
 327 426 327 426 372 446 c 1,20,21
 429 389 429 389 517 235 c 1,22,23
 397 89 397 89 315 24 c 1,24,25
 256 48 256 48 256 76 c 0,26,27
 256 110 256 110 370 235 c 1,14,15
EndSplineSet
EndChar

StartChar: onequarter
Encoding: 188 188 123
Width: 996
GlyphClass: 2
Flags: W
LayerCount: 2
Fore
SplineSet
249 -38 m 2,0,-1
 533 436 l 2,1,2
 642 616 642 616 706 739 c 1,3,4
 730 739 730 739 750 729 c 128,-1,5
 770 719 770 719 770 700 c 0,6,7
 770 684 770 684 759 668 c 1,8,-1
 475 194 l 1,9,10
 361 6 361 6 302 -109 c 1,11,12
 277 -108 277 -108 257.5 -97.5 c 128,-1,13
 238 -87 238 -87 238 -68 c 0,14,15
 238 -55 238 -55 249 -38 c 2,0,-1
298 308 m 1,16,17
 334 308 334 308 370 312 c 1,18,19
 373 300 373 300 373 285 c 0,20,21
 373 259 373 259 363.5 239 c 128,-1,22
 354 219 354 219 334 219 c 0,23,24
 328 219 328 219 303 219.5 c 128,-1,25
 278 220 278 220 234.5 220.5 c 128,-1,26
 191 221 191 221 138 221 c 0,27,28
 91 221 91 221 65 220 c 1,29,30
 63 238 63 238 63 248 c 0,31,32
 63 310 63 310 115 310 c 2,33,-1
 160 310 l 1,34,35
 176 415 176 415 195 582 c 1,36,37
 151 577 151 577 111 562 c 1,38,39
 106 579 106 579 106 596 c 0,40,41
 106 650 106 650 145 659 c 0,42,43
 204 673 204 673 283 673 c 0,44,45
 342 673 342 673 342 621 c 0,46,47
 342 604 342 604 329 539 c 128,-1,48
 316 474 316 474 313 450 c 0,49,50
 298 345 298 345 298 308 c 1,16,17
757 434 m 0,51,52
 782 455 782 455 841 455 c 0,53,54
 877 455 877 455 902 450 c 1,55,56
 902 445 902 445 896.5 413 c 128,-1,57
 891 381 891 381 881 320.5 c 128,-1,58
 871 260 871 260 863 198 c 1,59,60
 908 201 908 201 928 210 c 1,61,62
 933 180 933 180 933 166 c 0,63,64
 933 134 933 134 915 123 c 128,-1,65
 897 112 897 112 851 110 c 1,66,67
 845 71 845 71 845 46 c 0,68,69
 845 23 845 23 850 -2 c 1,70,71
 820 -10 820 -10 797 -10 c 0,72,73
 761 -10 761 -10 747 -0.5 c 128,-1,74
 733 9 733 9 733 30 c 0,75,76
 733 32 733 32 745 109 c 1,77,78
 600 111 600 111 571 116 c 0,79,80
 546 121 546 121 546 151 c 0,81,82
 546 153 546 153 553 195 c 1,83,84
 596 258 596 258 655.5 328.5 c 128,-1,85
 715 399 715 399 757 434 c 0,51,52
660 195 m 1,86,87
 679 193 679 193 757 193 c 1,88,89
 766 270 766 270 778 341 c 1,90,91
 706 262 706 262 660 195 c 1,86,87
EndSplineSet
EndChar

StartChar: onehalf
Encoding: 189 189 124
Width: 1026
GlyphClass: 2
Flags: W
LayerCount: 2
Fore
SplineSet
249 -38 m 2,0,-1
 533 436 l 2,1,2
 642 616 642 616 706 739 c 1,3,4
 730 739 730 739 750 729 c 128,-1,5
 770 719 770 719 770 700 c 0,6,7
 770 684 770 684 759 668 c 1,8,-1
 475 194 l 1,9,10
 361 6 361 6 302 -109 c 1,11,12
 277 -108 277 -108 257.5 -97.5 c 128,-1,13
 238 -87 238 -87 238 -68 c 0,14,15
 238 -55 238 -55 249 -38 c 2,0,-1
298 308 m 1,16,17
 334 308 334 308 370 312 c 1,18,19
 373 300 373 300 373 285 c 0,20,21
 373 259 373 259 363.5 239 c 128,-1,22
 354 219 354 219 334 219 c 0,23,24
 328 219 328 219 303 219.5 c 128,-1,25
 278 220 278 220 234.5 220.5 c 128,-1,26
 191 221 191 221 138 221 c 0,27,28
 91 221 91 221 65 220 c 1,29,30
 63 238 63 238 63 248 c 0,31,32
 63 310 63 310 115 310 c 2,33,-1
 160 310 l 1,34,35
 176 415 176 415 195 582 c 1,36,37
 151 577 151 577 111 562 c 1,38,39
 106 579 106 579 106 596 c 0,40,41
 106 650 106 650 145 659 c 0,42,43
 204 673 204 673 283 673 c 0,44,45
 342 673 342 673 342 621 c 0,46,47
 342 604 342 604 329 539 c 128,-1,48
 316 474 316 474 313 450 c 0,49,50
 298 345 298 345 298 308 c 1,16,17
690 287 m 1,51,52
 633 296 633 296 633 337 c 0,53,54
 633 372 633 372 668.5 399.5 c 128,-1,55
 704 427 704 427 746 439 c 128,-1,56
 788 451 788 451 822 451 c 0,57,58
 894 451 894 451 930.5 420.5 c 128,-1,59
 967 390 967 390 967 342 c 0,60,61
 967 303 967 303 947.5 267 c 128,-1,62
 928 231 928 231 889.5 198 c 128,-1,63
 851 165 851 165 823 145.5 c 128,-1,64
 795 126 795 126 749 98 c 1,65,66
 766 97 766 97 799 97 c 0,67,68
 885 97 885 97 947 116 c 1,69,70
 962 86 962 86 962 63 c 0,71,72
 962 20 962 20 929 10 c 0,73,74
 888 -2 888 -2 803 -2 c 0,75,76
 765 -2 765 -2 709 -1 c 128,-1,77
 653 0 653 0 626 0 c 0,78,79
 581 0 581 0 581 37 c 0,80,81
 581 54 581 54 588 80 c 1,82,83
 831 227 831 227 831 324 c 0,84,85
 831 360 831 360 788 360 c 0,86,87
 731 360 731 360 690 287 c 1,51,52
EndSplineSet
EndChar

StartChar: threequarters
Encoding: 190 190 125
Width: 1007
GlyphClass: 2
Flags: W
LayerCount: 2
Fore
SplineSet
260 -38 m 2,0,-1
 544 436 l 2,1,2
 653 616 653 616 717 739 c 1,3,4
 741 739 741 739 761 729 c 128,-1,5
 781 719 781 719 781 700 c 0,6,7
 781 684 781 684 770 668 c 1,8,-1
 486 194 l 1,9,10
 372 6 372 6 313 -109 c 1,11,12
 288 -108 288 -108 268.5 -97.5 c 128,-1,13
 249 -87 249 -87 249 -68 c 0,14,15
 249 -55 249 -55 260 -38 c 2,0,-1
768 434 m 0,16,17
 793 455 793 455 852 455 c 0,18,19
 888 455 888 455 913 450 c 1,20,21
 913 445 913 445 907.5 413 c 128,-1,22
 902 381 902 381 892 320.5 c 128,-1,23
 882 260 882 260 874 198 c 1,24,25
 919 201 919 201 939 210 c 1,26,27
 944 180 944 180 944 166 c 0,28,29
 944 134 944 134 926 123 c 128,-1,30
 908 112 908 112 862 110 c 1,31,32
 856 71 856 71 856 46 c 0,33,34
 856 23 856 23 861 -2 c 1,35,36
 831 -10 831 -10 808 -10 c 0,37,38
 772 -10 772 -10 758 -0.5 c 128,-1,39
 744 9 744 9 744 30 c 0,40,41
 744 32 744 32 756 109 c 1,42,43
 611 111 611 111 582 116 c 0,44,45
 557 121 557 121 557 151 c 0,46,47
 557 153 557 153 564 195 c 1,48,49
 607 258 607 258 666.5 328.5 c 128,-1,50
 726 399 726 399 768 434 c 0,16,17
671 195 m 1,51,52
 690 193 690 193 768 193 c 1,53,54
 777 270 777 270 789 341 c 1,55,56
 717 262 717 262 671 195 c 1,51,52
172 484 m 1,57,58
 294 486 294 486 294 563 c 0,59,60
 294 593 294 593 255 593 c 0,61,62
 229 593 229 593 199.5 579 c 128,-1,63
 170 565 170 565 156 545 c 1,64,65
 118 556 118 556 118 591 c 0,66,67
 118 619 118 619 149.5 638.5 c 128,-1,68
 181 658 181 658 215.5 665.5 c 128,-1,69
 250 673 250 673 278 673 c 0,70,71
 355 673 355 673 392.5 648 c 128,-1,72
 430 623 430 623 430 581 c 0,73,74
 430 538 430 538 404.5 506 c 128,-1,75
 379 474 379 474 335 458 c 1,76,77
 408 433 408 433 408 361 c 0,78,79
 408 284 408 284 345.5 246 c 128,-1,80
 283 208 283 208 189 208 c 0,81,82
 167 208 167 208 140 211.5 c 128,-1,83
 113 215 113 215 83.5 229 c 128,-1,84
 54 243 54 243 54 266 c 0,85,86
 54 303 54 303 108 339 c 1,87,88
 137 292 137 292 200 292 c 0,89,90
 275 292 275 292 275 364 c 0,91,92
 275 389 275 389 254 405 c 128,-1,93
 233 421 233 421 191 421 c 0,94,95
 165 421 165 421 165 449 c 0,96,97
 165 463 165 463 172 484 c 1,57,58
EndSplineSet
EndChar

StartChar: questiondown
Encoding: 191 191 126
Width: 410
GlyphClass: 2
Flags: W
LayerCount: 2
Fore
SplineSet
166 226 m 1,0,1
 209 247 209 247 239 247 c 0,2,3
 313 247 313 247 313 194 c 0,4,5
 313 164 313 164 296 133.5 c 128,-1,6
 279 103 279 103 254.5 77.5 c 128,-1,7
 230 52 230 52 205 26.5 c 128,-1,8
 180 1 180 1 163 -29 c 128,-1,9
 146 -59 146 -59 146 -89 c 0,10,11
 146 -132 146 -132 193 -132 c 0,12,13
 217 -132 217 -132 241 -111.5 c 128,-1,14
 265 -91 265 -91 275 -57 c 1,15,16
 356 -67 356 -67 356 -115 c 0,17,18
 356 -162 356 -162 300.5 -190.5 c 128,-1,19
 245 -219 245 -219 172 -219 c 0,20,21
 106 -219 106 -219 53 -190.5 c 128,-1,22
 0 -162 0 -162 0 -100 c 0,23,24
 0 -57 0 -57 17.5 -21.5 c 128,-1,25
 35 14 35 14 60 39 c 128,-1,26
 85 64 85 64 109.5 87 c 128,-1,27
 134 110 134 110 151.5 138.5 c 128,-1,28
 169 167 169 167 169 198 c 0,29,30
 169 211 169 211 166 226 c 1,0,1
272 486 m 0,31,32
 304 486 304 486 325 465 c 128,-1,33
 346 444 346 444 346 411 c 0,34,35
 346 372 346 372 317 340 c 128,-1,36
 288 308 288 308 247 308 c 0,37,38
 216 308 216 308 194.5 330.5 c 128,-1,39
 173 353 173 353 173 386 c 0,40,41
 173 424 173 424 203 455 c 128,-1,42
 233 486 233 486 272 486 c 0,31,32
EndSplineSet
EndChar

StartChar: Agrave
Encoding: 192 192 127
Width: 593
GlyphClass: 2
Flags: W
LayerCount: 2
Fore
SplineSet
405 30 m 0,0,1
 392 84 392 84 374 191 c 1,2,3
 333 188 333 188 290 188 c 0,4,5
 248 188 248 188 205 191 c 1,6,7
 131 13 131 13 122 -13 c 1,8,9
 -10 -10 -10 -10 -10 50 c 0,10,11
 -10 65 -10 65 3 92.5 c 128,-1,12
 16 120 16 120 55 196 c 128,-1,13
 94 272 94 272 130 349 c 0,14,15
 246 597 246 597 267 670 c 1,16,17
 317 676 317 676 349 676 c 0,18,19
 432 676 432 676 444 611 c 0,20,21
 486 382 486 382 507 293 c 0,22,23
 553 92 553 92 577 14 c 1,24,25
 517 -10 517 -10 470 -10 c 0,26,27
 414 -10 414 -10 405 30 c 0,0,1
235 948 m 1,28,29
 253 917 253 917 295.5 883 c 128,-1,30
 338 849 338 849 368.5 822 c 128,-1,31
 399 795 399 795 399 772 c 0,32,33
 399 754 399 754 391.5 742.5 c 128,-1,34
 384 731 384 731 364 716 c 1,35,36
 334 742 334 742 283 773 c 128,-1,37
 232 804 232 804 204.5 826 c 128,-1,38
 177 848 177 848 177 872 c 0,39,40
 177 919 177 919 235 948 c 1,28,29
335 549 m 1,41,42
 297 424 297 424 243 287 c 1,43,44
 275 285 275 285 309 285 c 0,45,46
 347 285 347 285 361 287 c 1,47,48
 345 419 345 419 335 549 c 1,41,42
EndSplineSet
EndChar

StartChar: Aacute
Encoding: 193 193 128
Width: 593
GlyphClass: 2
Flags: W
LayerCount: 2
Fore
SplineSet
405 30 m 0,0,1
 392 84 392 84 374 191 c 1,2,3
 333 188 333 188 290 188 c 0,4,5
 248 188 248 188 205 191 c 1,6,7
 131 13 131 13 122 -13 c 1,8,9
 -10 -10 -10 -10 -10 50 c 0,10,11
 -10 65 -10 65 3 92.5 c 128,-1,12
 16 120 16 120 55 196 c 128,-1,13
 94 272 94 272 130 349 c 0,14,15
 246 597 246 597 267 670 c 1,16,17
 317 676 317 676 349 676 c 0,18,19
 432 676 432 676 444 611 c 0,20,21
 486 382 486 382 507 293 c 0,22,23
 553 92 553 92 577 14 c 1,24,25
 517 -10 517 -10 470 -10 c 0,26,27
 414 -10 414 -10 405 30 c 0,0,1
490 822 m 0,28,29
 465 807 465 807 378.5 770.5 c 128,-1,30
 292 734 292 734 273 716 c 1,31,32
 247 741 247 741 247 772 c 0,33,34
 247 793 247 793 273.5 813 c 128,-1,35
 300 833 300 833 335 848.5 c 128,-1,36
 370 864 370 864 412 890.5 c 128,-1,37
 454 917 454 917 478 946 c 1,38,39
 495 935 495 935 507 914 c 128,-1,40
 519 893 519 893 519 874 c 0,41,42
 519 840 519 840 490 822 c 0,28,29
335 549 m 1,43,44
 297 424 297 424 243 287 c 1,45,46
 275 285 275 285 309 285 c 0,47,48
 347 285 347 285 361 287 c 1,49,50
 345 419 345 419 335 549 c 1,43,44
EndSplineSet
EndChar

StartChar: Acircumflex
Encoding: 194 194 129
Width: 593
GlyphClass: 2
Flags: W
LayerCount: 2
Fore
SplineSet
405 30 m 0,0,1
 392 84 392 84 374 191 c 1,2,3
 333 188 333 188 290 188 c 0,4,5
 248 188 248 188 205 191 c 1,6,7
 131 13 131 13 122 -13 c 1,8,9
 -10 -10 -10 -10 -10 50 c 0,10,11
 -10 65 -10 65 3 92.5 c 128,-1,12
 16 120 16 120 55 196 c 128,-1,13
 94 272 94 272 130 349 c 0,14,15
 246 597 246 597 267 670 c 1,16,17
 317 676 317 676 349 676 c 0,18,19
 432 676 432 676 444 611 c 0,20,21
 486 382 486 382 507 293 c 0,22,23
 553 92 553 92 577 14 c 1,24,25
 517 -10 517 -10 470 -10 c 0,26,27
 414 -10 414 -10 405 30 c 0,0,1
360 912 m 1,28,29
 399 886 399 886 424 867 c 128,-1,30
 449 848 449 848 472 820.5 c 128,-1,31
 495 793 495 793 495 771 c 0,32,33
 495 755 495 755 476.5 737 c 128,-1,34
 458 719 458 719 429 712 c 1,35,36
 410 740 410 740 389 762 c 128,-1,37
 368 784 368 784 356 792 c 2,38,-1
 344 801 l 1,39,40
 240 720 240 720 218 720 c 0,41,42
 201 720 201 720 192 727.5 c 128,-1,43
 183 735 183 735 171 758 c 1,44,45
 258 847 258 847 360 912 c 1,28,29
335 549 m 1,46,47
 297 424 297 424 243 287 c 1,48,49
 275 285 275 285 309 285 c 0,50,51
 347 285 347 285 361 287 c 1,52,53
 345 419 345 419 335 549 c 1,46,47
EndSplineSet
EndChar

StartChar: Atilde
Encoding: 195 195 130
Width: 593
GlyphClass: 2
Flags: W
LayerCount: 2
Fore
SplineSet
405 30 m 0,0,1
 392 84 392 84 374 191 c 1,2,3
 333 188 333 188 290 188 c 0,4,5
 248 188 248 188 205 191 c 1,6,7
 131 13 131 13 122 -13 c 1,8,9
 -10 -10 -10 -10 -10 50 c 0,10,11
 -10 65 -10 65 3 92.5 c 128,-1,12
 16 120 16 120 55 196 c 128,-1,13
 94 272 94 272 130 349 c 0,14,15
 246 597 246 597 267 670 c 1,16,17
 317 676 317 676 349 676 c 0,18,19
 432 676 432 676 444 611 c 0,20,21
 486 382 486 382 507 293 c 0,22,23
 553 92 553 92 577 14 c 1,24,25
 517 -10 517 -10 470 -10 c 0,26,27
 414 -10 414 -10 405 30 c 0,0,1
518 833 m 0,28,29
 518 792 518 792 473.5 759.5 c 128,-1,30
 429 727 429 727 384 727 c 0,31,32
 361 727 361 727 323 748.5 c 128,-1,33
 285 770 285 770 269 770 c 0,34,35
 249 770 249 770 200 730 c 1,36,37
 169 743 169 743 169 765 c 0,38,39
 169 805 169 805 214.5 838 c 128,-1,40
 260 871 260 871 303 871 c 0,41,42
 326 871 326 871 364 849.5 c 128,-1,43
 402 828 402 828 419 828 c 0,44,45
 440 828 440 828 487 868 c 1,46,47
 498 866 498 866 508 856.5 c 128,-1,48
 518 847 518 847 518 833 c 0,28,29
335 549 m 1,49,50
 297 424 297 424 243 287 c 1,51,52
 275 285 275 285 309 285 c 0,53,54
 347 285 347 285 361 287 c 1,55,56
 345 419 345 419 335 549 c 1,49,50
EndSplineSet
EndChar

StartChar: Adieresis
Encoding: 196 196 131
Width: 593
GlyphClass: 2
Flags: W
LayerCount: 2
Fore
SplineSet
405 30 m 0,0,1
 392 84 392 84 374 191 c 1,2,3
 333 188 333 188 290 188 c 0,4,5
 248 188 248 188 205 191 c 1,6,7
 131 13 131 13 122 -13 c 1,8,9
 -10 -10 -10 -10 -10 50 c 0,10,11
 -10 65 -10 65 3 92.5 c 128,-1,12
 16 120 16 120 55 196 c 128,-1,13
 94 272 94 272 130 349 c 0,14,15
 246 597 246 597 267 670 c 1,16,17
 317 676 317 676 349 676 c 0,18,19
 432 676 432 676 444 611 c 0,20,21
 486 382 486 382 507 293 c 0,22,23
 553 92 553 92 577 14 c 1,24,25
 517 -10 517 -10 470 -10 c 0,26,27
 414 -10 414 -10 405 30 c 0,0,1
219 723 m 0,28,29
 184 723 184 723 165 744 c 128,-1,30
 146 765 146 765 146 796 c 0,31,32
 146 833 146 833 171.5 862.5 c 128,-1,33
 197 892 197 892 240 892 c 0,34,35
 274 892 274 892 293.5 869 c 128,-1,36
 313 846 313 846 313 814 c 0,37,38
 313 778 313 778 288 750.5 c 128,-1,39
 263 723 263 723 219 723 c 0,28,29
447 723 m 0,40,41
 412 723 412 723 393 744 c 128,-1,42
 374 765 374 765 374 796 c 0,43,44
 374 833 374 833 399.5 862.5 c 128,-1,45
 425 892 425 892 468 892 c 0,46,47
 502 892 502 892 521.5 869 c 128,-1,48
 541 846 541 846 541 814 c 0,49,50
 541 778 541 778 516 750.5 c 128,-1,51
 491 723 491 723 447 723 c 0,40,41
335 549 m 1,52,53
 297 424 297 424 243 287 c 1,54,55
 275 285 275 285 309 285 c 0,56,57
 347 285 347 285 361 287 c 1,58,59
 345 419 345 419 335 549 c 1,52,53
EndSplineSet
EndChar

StartChar: Aring
Encoding: 197 197 132
Width: 593
GlyphClass: 2
Flags: W
LayerCount: 2
Fore
SplineSet
405 30 m 0,0,1
 392 84 392 84 374 191 c 1,2,3
 333 188 333 188 290 188 c 0,4,5
 248 188 248 188 205 191 c 1,6,7
 131 13 131 13 122 -13 c 1,8,9
 -10 -10 -10 -10 -10 50 c 0,10,11
 -10 65 -10 65 3 92.5 c 128,-1,12
 16 120 16 120 55 196 c 128,-1,13
 94 272 94 272 130 349 c 0,14,15
 246 597 246 597 267 670 c 1,16,17
 317 676 317 676 349 676 c 0,18,19
 432 676 432 676 444 611 c 0,20,21
 486 382 486 382 507 293 c 0,22,23
 553 92 553 92 577 14 c 1,24,25
 517 -10 517 -10 470 -10 c 0,26,27
 414 -10 414 -10 405 30 c 0,0,1
339 733 m 0,28,29
 296 733 296 733 270 759.5 c 128,-1,30
 244 786 244 786 244 830 c 0,31,32
 244 884 244 884 279.5 925 c 128,-1,33
 315 966 315 966 370 966 c 0,34,35
 413 966 413 966 438 940 c 128,-1,36
 463 914 463 914 463 870 c 0,37,38
 463 813 463 813 429.5 773 c 128,-1,39
 396 733 396 733 339 733 c 0,28,29
335 549 m 1,40,41
 297 424 297 424 243 287 c 1,42,43
 275 285 275 285 309 285 c 0,44,45
 347 285 347 285 361 287 c 1,46,47
 345 419 345 419 335 549 c 1,40,41
346 783 m 0,48,49
 373 783 373 783 389.5 805.5 c 128,-1,50
 406 828 406 828 406 857 c 0,51,52
 406 884 406 884 395 900 c 128,-1,53
 384 916 384 916 363 916 c 0,54,55
 336 916 336 916 319 893.5 c 128,-1,56
 302 871 302 871 302 842 c 0,57,58
 302 816 302 816 313.5 799.5 c 128,-1,59
 325 783 325 783 346 783 c 0,48,49
EndSplineSet
EndChar

StartChar: AE
Encoding: 198 198 133
Width: 796
GlyphClass: 2
Flags: W
LayerCount: 2
Fore
SplineSet
792 540 m 1,0,1
 746 561 746 561 633 561 c 0,2,3
 600 561 600 561 551 558 c 1,4,5
 549 524 549 524 533 406 c 1,6,7
 666 406 666 406 698 410 c 1,8,9
 700 390 700 390 700 375 c 0,10,11
 700 310 700 310 656 305 c 0,12,13
 632 303 632 303 518 303 c 1,14,15
 498 140 498 140 498 101 c 1,16,17
 526 99 526 99 562 99 c 0,18,19
 615 99 615 99 670.5 105.5 c 128,-1,20
 726 112 726 112 743 121 c 1,21,22
 751 83 751 83 751 65 c 0,23,24
 751 17 751 17 716 7 c 128,-1,25
 681 -3 681 -3 558 -3 c 0,26,27
 405 -3 405 -3 373 -1 c 0,28,29
 349 0 349 0 339 8 c 128,-1,30
 329 16 329 16 329 34 c 0,31,32
 329 67 329 67 346 189 c 1,33,34
 325 188 325 188 283 188 c 0,35,36
 248 188 248 188 190 190 c 1,37,38
 96 49 96 49 66 -10 c 1,39,40
 -44 5 -44 5 -44 51 c 0,41,42
 -44 70 -44 70 -25 99 c 128,-1,43
 -6 128 -6 128 42 195.5 c 128,-1,44
 90 263 90 263 113 298 c 0,45,46
 255 505 255 505 336 654 c 1,47,48
 512 665 512 665 631 665 c 0,49,50
 784 665 784 665 803 646 c 0,51,52
 811 638 811 638 811 618 c 0,53,54
 811 578 811 578 792 540 c 1,0,1
386 491 m 1,55,-1
 254 286 l 1,56,57
 268 285 268 285 302 285 c 0,58,59
 332 285 332 285 360 287 c 1,60,61
 381 447 381 447 386 491 c 1,55,-1
EndSplineSet
EndChar

StartChar: Ccedilla
Encoding: 199 199 134
Width: 568
GlyphClass: 2
Flags: W
LayerCount: 2
Fore
SplineSet
456 170 m 1,0,1
 530 143 530 143 530 102 c 0,2,3
 530 62 530 62 472 28.5 c 128,-1,4
 414 -5 414 -5 331 -9 c 1,5,6
 326 -22 326 -22 326 -32 c 0,7,8
 326 -41 326 -41 337 -50.5 c 128,-1,9
 348 -60 348 -60 361 -68 c 128,-1,10
 374 -76 374 -76 385 -92.5 c 128,-1,11
 396 -109 396 -109 396 -131 c 0,12,13
 396 -183 396 -183 342.5 -217.5 c 128,-1,14
 289 -252 289 -252 231 -252 c 0,15,16
 170 -252 170 -252 170 -211 c 0,17,18
 170 -186 170 -186 200 -153 c 1,19,20
 211 -166 211 -166 232 -166 c 0,21,22
 248 -166 248 -166 257.5 -155.5 c 128,-1,23
 267 -145 267 -145 267 -129 c 0,24,25
 267 -114 267 -114 249.5 -94 c 128,-1,26
 232 -74 232 -74 232 -60 c 0,27,28
 232 -36 232 -36 249 -4 c 1,29,30
 153 13 153 13 98.5 84.5 c 128,-1,31
 44 156 44 156 44 264 c 0,32,33
 44 368 44 368 78.5 450 c 128,-1,34
 113 532 113 532 168 579 c 128,-1,35
 223 626 223 626 284.5 649.5 c 128,-1,36
 346 673 346 673 408 673 c 0,37,38
 483 673 483 673 533 641 c 128,-1,39
 583 609 583 609 583 555 c 0,40,41
 583 526 583 526 557 507.5 c 128,-1,42
 531 489 531 489 489 484 c 1,43,44
 480 528 480 528 452.5 550 c 128,-1,45
 425 572 425 572 390 572 c 0,46,47
 310 572 310 572 261 486.5 c 128,-1,48
 212 401 212 401 212 287 c 0,49,50
 212 200 212 200 245 145.5 c 128,-1,51
 278 91 278 91 345 91 c 0,52,53
 411 91 411 91 456 170 c 1,0,1
EndSplineSet
EndChar

StartChar: Egrave
Encoding: 200 200 135
Width: 521
GlyphClass: 2
Flags: W
LayerCount: 2
Fore
SplineSet
517 540 m 1,0,1
 471 561 471 561 358 561 c 0,2,3
 326 561 326 561 276 558 c 1,4,5
 274 524 274 524 258 406 c 1,6,7
 391 406 391 406 423 410 c 1,8,9
 425 390 425 390 425 375 c 0,10,11
 425 310 425 310 381 305 c 0,12,13
 357 303 357 303 243 303 c 1,14,15
 223 140 223 140 223 101 c 1,16,17
 251 99 251 99 287 99 c 0,18,19
 340 99 340 99 395.5 105.5 c 128,-1,20
 451 112 451 112 468 121 c 1,21,22
 476 83 476 83 476 65 c 0,23,24
 476 17 476 17 441 7 c 128,-1,25
 406 -3 406 -3 283 -3 c 0,26,27
 130 -3 130 -3 98 -1 c 0,28,29
 74 0 74 0 64 8 c 128,-1,30
 54 16 54 16 54 34 c 0,31,32
 54 62 54 62 87.5 306 c 128,-1,33
 121 550 121 550 121 631 c 0,34,35
 121 649 121 649 120 656 c 1,36,37
 238 665 238 665 356 665 c 0,38,39
 509 665 509 665 528 646 c 0,40,41
 536 638 536 638 536 618 c 0,42,43
 536 578 536 578 517 540 c 1,0,1
247 948 m 1,44,45
 265 917 265 917 307.5 883 c 128,-1,46
 350 849 350 849 380.5 822 c 128,-1,47
 411 795 411 795 411 772 c 0,48,49
 411 754 411 754 403.5 742.5 c 128,-1,50
 396 731 396 731 376 716 c 1,51,52
 346 742 346 742 295 773 c 128,-1,53
 244 804 244 804 216.5 826 c 128,-1,54
 189 848 189 848 189 872 c 0,55,56
 189 919 189 919 247 948 c 1,44,45
EndSplineSet
EndChar

StartChar: Eacute
Encoding: 201 201 136
Width: 521
GlyphClass: 2
Flags: W
LayerCount: 2
Fore
SplineSet
517 540 m 1,0,1
 471 561 471 561 358 561 c 0,2,3
 326 561 326 561 276 558 c 1,4,5
 274 524 274 524 258 406 c 1,6,7
 391 406 391 406 423 410 c 1,8,9
 425 390 425 390 425 375 c 0,10,11
 425 310 425 310 381 305 c 0,12,13
 357 303 357 303 243 303 c 1,14,15
 223 140 223 140 223 101 c 1,16,17
 251 99 251 99 287 99 c 0,18,19
 340 99 340 99 395.5 105.5 c 128,-1,20
 451 112 451 112 468 121 c 1,21,22
 476 83 476 83 476 65 c 0,23,24
 476 17 476 17 441 7 c 128,-1,25
 406 -3 406 -3 283 -3 c 0,26,27
 130 -3 130 -3 98 -1 c 0,28,29
 74 0 74 0 64 8 c 128,-1,30
 54 16 54 16 54 34 c 0,31,32
 54 62 54 62 87.5 306 c 128,-1,33
 121 550 121 550 121 631 c 0,34,35
 121 649 121 649 120 656 c 1,36,37
 238 665 238 665 356 665 c 0,38,39
 509 665 509 665 528 646 c 0,40,41
 536 638 536 638 536 618 c 0,42,43
 536 578 536 578 517 540 c 1,0,1
502 822 m 0,44,45
 477 807 477 807 390.5 770.5 c 128,-1,46
 304 734 304 734 285 716 c 1,47,48
 259 741 259 741 259 772 c 0,49,50
 259 793 259 793 285.5 813 c 128,-1,51
 312 833 312 833 347 848.5 c 128,-1,52
 382 864 382 864 424 890.5 c 128,-1,53
 466 917 466 917 490 946 c 1,54,55
 507 935 507 935 519 914 c 128,-1,56
 531 893 531 893 531 874 c 0,57,58
 531 840 531 840 502 822 c 0,44,45
EndSplineSet
EndChar

StartChar: Ecircumflex
Encoding: 202 202 137
Width: 521
GlyphClass: 2
Flags: W
LayerCount: 2
Fore
SplineSet
517 540 m 1,0,1
 471 561 471 561 358 561 c 0,2,3
 326 561 326 561 276 558 c 1,4,5
 274 524 274 524 258 406 c 1,6,7
 391 406 391 406 423 410 c 1,8,9
 425 390 425 390 425 375 c 0,10,11
 425 310 425 310 381 305 c 0,12,13
 357 303 357 303 243 303 c 1,14,15
 223 140 223 140 223 101 c 1,16,17
 251 99 251 99 287 99 c 0,18,19
 340 99 340 99 395.5 105.5 c 128,-1,20
 451 112 451 112 468 121 c 1,21,22
 476 83 476 83 476 65 c 0,23,24
 476 17 476 17 441 7 c 128,-1,25
 406 -3 406 -3 283 -3 c 0,26,27
 130 -3 130 -3 98 -1 c 0,28,29
 74 0 74 0 64 8 c 128,-1,30
 54 16 54 16 54 34 c 0,31,32
 54 62 54 62 87.5 306 c 128,-1,33
 121 550 121 550 121 631 c 0,34,35
 121 649 121 649 120 656 c 1,36,37
 238 665 238 665 356 665 c 0,38,39
 509 665 509 665 528 646 c 0,40,41
 536 638 536 638 536 618 c 0,42,43
 536 578 536 578 517 540 c 1,0,1
372 912 m 1,44,45
 411 886 411 886 436 867 c 128,-1,46
 461 848 461 848 484 820.5 c 128,-1,47
 507 793 507 793 507 771 c 0,48,49
 507 755 507 755 488.5 737 c 128,-1,50
 470 719 470 719 441 712 c 1,51,52
 422 740 422 740 401 762 c 128,-1,53
 380 784 380 784 368 792 c 2,54,-1
 356 801 l 1,55,56
 253 720 253 720 230 720 c 0,57,58
 213 720 213 720 204 727.5 c 128,-1,59
 195 735 195 735 183 758 c 1,60,61
 270 847 270 847 372 912 c 1,44,45
EndSplineSet
EndChar

StartChar: Edieresis
Encoding: 203 203 138
Width: 538
GlyphClass: 2
Flags: W
LayerCount: 2
Fore
SplineSet
517 540 m 1,0,1
 471 561 471 561 358 561 c 0,2,3
 326 561 326 561 276 558 c 1,4,5
 274 524 274 524 258 406 c 1,6,7
 391 406 391 406 423 410 c 1,8,9
 425 390 425 390 425 375 c 0,10,11
 425 310 425 310 381 305 c 0,12,13
 357 303 357 303 243 303 c 1,14,15
 223 140 223 140 223 101 c 1,16,17
 251 99 251 99 287 99 c 0,18,19
 340 99 340 99 395.5 105.5 c 128,-1,20
 451 112 451 112 468 121 c 1,21,22
 476 83 476 83 476 65 c 0,23,24
 476 17 476 17 441 7 c 128,-1,25
 406 -3 406 -3 283 -3 c 0,26,27
 130 -3 130 -3 98 -1 c 0,28,29
 74 0 74 0 64 8 c 128,-1,30
 54 16 54 16 54 34 c 0,31,32
 54 62 54 62 87.5 306 c 128,-1,33
 121 550 121 550 121 631 c 0,34,35
 121 649 121 649 120 656 c 1,36,37
 238 665 238 665 356 665 c 0,38,39
 509 665 509 665 528 646 c 0,40,41
 536 638 536 638 536 618 c 0,42,43
 536 578 536 578 517 540 c 1,0,1
231 723 m 0,44,45
 196 723 196 723 177 744 c 128,-1,46
 158 765 158 765 158 796 c 0,47,48
 158 833 158 833 183.5 862.5 c 128,-1,49
 209 892 209 892 252 892 c 0,50,51
 286 892 286 892 305.5 869 c 128,-1,52
 325 846 325 846 325 814 c 0,53,54
 325 778 325 778 300 750.5 c 128,-1,55
 275 723 275 723 231 723 c 0,44,45
459 723 m 0,56,57
 424 723 424 723 405 744 c 128,-1,58
 386 765 386 765 386 796 c 0,59,60
 386 833 386 833 411.5 862.5 c 128,-1,61
 437 892 437 892 480 892 c 0,62,63
 514 892 514 892 533.5 869 c 128,-1,64
 553 846 553 846 553 814 c 0,65,66
 553 778 553 778 528 750.5 c 128,-1,67
 503 723 503 723 459 723 c 0,56,57
EndSplineSet
EndChar

StartChar: Igrave
Encoding: 204 204 139
Width: 304
GlyphClass: 2
Flags: W
LayerCount: 2
Fore
SplineSet
206 666 m 0,0,1
 288 666 288 666 288 613 c 0,2,3
 288 608 288 608 283.5 581 c 128,-1,4
 279 554 279 554 270.5 501 c 128,-1,5
 262 448 262 448 255 392 c 2,6,-1
 230 199 l 2,7,8
 218 113 218 113 218 67 c 0,9,10
 218 33 218 33 222 8 c 1,11,12
 189 -3 189 -3 131 -3 c 0,13,14
 89 -3 89 -3 71.5 12 c 128,-1,15
 54 27 54 27 54 59 c 0,16,17
 54 65 54 65 59 100.5 c 128,-1,18
 64 136 64 136 77 231.5 c 128,-1,19
 90 327 90 327 104 437 c 0,20,21
 123 590 123 590 126 660 c 1,22,23
 157 666 157 666 206 666 c 0,0,1
133 948 m 1,24,25
 151 917 151 917 193.5 883 c 128,-1,26
 236 849 236 849 266.5 822 c 128,-1,27
 297 795 297 795 297 772 c 0,28,29
 297 754 297 754 289.5 742.5 c 128,-1,30
 282 731 282 731 262 716 c 1,31,32
 232 742 232 742 181 773 c 128,-1,33
 130 804 130 804 102.5 826 c 128,-1,34
 75 848 75 848 75 872 c 0,35,36
 75 919 75 919 133 948 c 1,24,25
EndSplineSet
EndChar

StartChar: Iacute
Encoding: 205 205 140
Width: 304
GlyphClass: 2
Flags: W
LayerCount: 2
Fore
SplineSet
206 666 m 0,0,1
 288 666 288 666 288 613 c 0,2,3
 288 608 288 608 283.5 581 c 128,-1,4
 279 554 279 554 270.5 501 c 128,-1,5
 262 448 262 448 255 392 c 2,6,-1
 230 199 l 2,7,8
 218 113 218 113 218 67 c 0,9,10
 218 33 218 33 222 8 c 1,11,12
 189 -3 189 -3 131 -3 c 0,13,14
 89 -3 89 -3 71.5 12 c 128,-1,15
 54 27 54 27 54 59 c 0,16,17
 54 65 54 65 59 100.5 c 128,-1,18
 64 136 64 136 77 231.5 c 128,-1,19
 90 327 90 327 104 437 c 0,20,21
 123 590 123 590 126 660 c 1,22,23
 157 666 157 666 206 666 c 0,0,1
368 822 m 0,24,25
 343 807 343 807 256.5 770.5 c 128,-1,26
 170 734 170 734 151 716 c 1,27,28
 125 741 125 741 125 772 c 0,29,30
 125 793 125 793 151.5 813 c 128,-1,31
 178 833 178 833 213 848.5 c 128,-1,32
 248 864 248 864 290 890.5 c 128,-1,33
 332 917 332 917 356 946 c 1,34,35
 373 935 373 935 385 914 c 128,-1,36
 397 893 397 893 397 874 c 0,37,38
 397 840 397 840 368 822 c 0,24,25
EndSplineSet
EndChar

StartChar: Icircumflex
Encoding: 206 206 141
Width: 304
GlyphClass: 2
Flags: W
LayerCount: 2
Fore
SplineSet
206 666 m 0,0,1
 288 666 288 666 288 613 c 0,2,3
 288 608 288 608 283.5 581 c 128,-1,4
 279 554 279 554 270.5 501 c 128,-1,5
 262 448 262 448 255 392 c 2,6,-1
 230 199 l 2,7,8
 218 113 218 113 218 67 c 0,9,10
 218 33 218 33 222 8 c 1,11,12
 189 -3 189 -3 131 -3 c 0,13,14
 89 -3 89 -3 71.5 12 c 128,-1,15
 54 27 54 27 54 59 c 0,16,17
 54 65 54 65 59 100.5 c 128,-1,18
 64 136 64 136 77 231.5 c 128,-1,19
 90 327 90 327 104 437 c 0,20,21
 123 590 123 590 126 660 c 1,22,23
 157 666 157 666 206 666 c 0,0,1
238 912 m 1,24,25
 277 886 277 886 302 867 c 128,-1,26
 327 848 327 848 350 820.5 c 128,-1,27
 373 793 373 793 373 771 c 0,28,29
 373 755 373 755 354.5 737 c 128,-1,30
 336 719 336 719 307 712 c 1,31,32
 288 740 288 740 267 762 c 128,-1,33
 246 784 246 784 234 792 c 2,34,-1
 222 801 l 1,35,36
 119 720 119 720 96 720 c 0,37,38
 79 720 79 720 70 727.5 c 128,-1,39
 61 735 61 735 49 758 c 1,40,41
 136 847 136 847 238 912 c 1,24,25
EndSplineSet
EndChar

StartChar: Idieresis
Encoding: 207 207 142
Width: 304
GlyphClass: 2
Flags: W
LayerCount: 2
Fore
SplineSet
206 666 m 0,0,1
 288 666 288 666 288 613 c 0,2,3
 288 608 288 608 283.5 581 c 128,-1,4
 279 554 279 554 270.5 501 c 128,-1,5
 262 448 262 448 255 392 c 2,6,-1
 230 199 l 2,7,8
 218 113 218 113 218 67 c 0,9,10
 218 33 218 33 222 8 c 1,11,12
 189 -3 189 -3 131 -3 c 0,13,14
 89 -3 89 -3 71.5 12 c 128,-1,15
 54 27 54 27 54 59 c 0,16,17
 54 65 54 65 59 100.5 c 128,-1,18
 64 136 64 136 77 231.5 c 128,-1,19
 90 327 90 327 104 437 c 0,20,21
 123 590 123 590 126 660 c 1,22,23
 157 666 157 666 206 666 c 0,0,1
97 723 m 0,24,25
 62 723 62 723 43 744 c 128,-1,26
 24 765 24 765 24 796 c 0,27,28
 24 833 24 833 49.5 862.5 c 128,-1,29
 75 892 75 892 118 892 c 0,30,31
 152 892 152 892 171.5 869 c 128,-1,32
 191 846 191 846 191 814 c 0,33,34
 191 778 191 778 166 750.5 c 128,-1,35
 141 723 141 723 97 723 c 0,24,25
325 723 m 0,36,37
 290 723 290 723 271 744 c 128,-1,38
 252 765 252 765 252 796 c 0,39,40
 252 833 252 833 277.5 862.5 c 128,-1,41
 303 892 303 892 346 892 c 0,42,43
 380 892 380 892 399.5 869 c 128,-1,44
 419 846 419 846 419 814 c 0,45,46
 419 778 419 778 394 750.5 c 128,-1,47
 369 723 369 723 325 723 c 0,36,37
EndSplineSet
EndChar

StartChar: Eth
Encoding: 208 208 143
Width: 713
GlyphClass: 2
Flags: W
LayerCount: 2
Fore
SplineSet
90 53 m 1,0,1
 114 163 114 163 135 303 c 1,2,3
 69 303 69 303 38 299 c 1,4,5
 36 319 36 319 36 334 c 0,6,7
 36 399 36 399 80 404 c 1,8,9
 110 406 110 406 149 406 c 1,10,11
 166 545 166 545 169 661 c 1,12,13
 235 673 235 673 342 673 c 0,14,15
 696 673 696 673 696 404 c 0,16,17
 696 324 696 324 670 250.5 c 128,-1,18
 644 177 644 177 596.5 118.5 c 128,-1,19
 549 60 549 60 474 25 c 128,-1,20
 399 -10 399 -10 308 -10 c 0,21,22
 161 -10 161 -10 90 53 c 1,0,1
323 570 m 1,23,24
 319 508 319 508 306 406 c 1,25,26
 428 406 428 406 459 410 c 1,27,28
 461 390 461 390 461 375 c 0,29,30
 461 310 461 310 417 305 c 0,31,32
 394 303 394 303 292 303 c 1,33,34
 276 196 276 196 259 116 c 1,35,36
 295 91 295 91 351 91 c 0,37,38
 400 91 400 91 437.5 119.5 c 128,-1,39
 475 148 475 148 494.5 193.5 c 128,-1,40
 514 239 514 239 523 286.5 c 128,-1,41
 532 334 532 334 532 382 c 0,42,43
 532 477 532 477 488.5 524.5 c 128,-1,44
 445 572 445 572 364 572 c 0,45,46
 349 572 349 572 323 570 c 1,23,24
EndSplineSet
EndChar

StartChar: Ntilde
Encoding: 209 209 144
Width: 648
GlyphClass: 2
Flags: W
LayerCount: 2
Fore
SplineSet
554 5 m 1,0,1
 525 -3 525 -3 492 -3 c 0,2,3
 419 -3 419 -3 400 42 c 0,4,5
 375 98 375 98 325 235.5 c 128,-1,6
 275 373 275 373 248 436 c 1,7,8
 208 133 208 133 208 63 c 0,9,10
 208 43 208 43 212 9 c 1,11,12
 179 -3 179 -3 136 -3 c 0,13,14
 90 -3 90 -3 72 11.5 c 128,-1,15
 54 26 54 26 54 57 c 0,16,17
 54 66 54 66 58.5 96 c 128,-1,18
 63 126 63 126 69.5 170.5 c 128,-1,19
 76 215 76 215 80 243 c 0,20,21
 87 303 87 303 99 390.5 c 128,-1,22
 111 478 111 478 115.5 521 c 128,-1,23
 120 564 120 564 120 602 c 0,24,25
 120 634 120 634 116 655 c 1,26,27
 154 667 154 667 193 667 c 0,28,29
 262 667 262 667 292 618 c 0,30,31
 302 602 302 602 315.5 574 c 128,-1,32
 329 546 329 546 345.5 506 c 128,-1,33
 362 466 362 466 375.5 433 c 128,-1,34
 389 400 389 400 409.5 348 c 128,-1,35
 430 296 430 296 441 270 c 1,36,-1
 458 429 l 1,37,38
 477 589 477 589 481 660 c 1,39,40
 512 666 512 666 548 666 c 0,41,42
 632 666 632 666 632 607 c 0,43,44
 632 600 632 600 626 567 c 128,-1,45
 620 534 620 534 611.5 483.5 c 128,-1,46
 603 433 603 433 598 392 c 128,-1,47
 593 351 593 351 580.5 257.5 c 128,-1,48
 568 164 568 164 562.5 109.5 c 128,-1,49
 557 55 557 55 554 5 c 1,0,1
578 833 m 0,50,51
 578 792 578 792 533.5 759.5 c 128,-1,52
 489 727 489 727 444 727 c 0,53,54
 421 727 421 727 383 748.5 c 128,-1,55
 345 770 345 770 329 770 c 0,56,57
 309 770 309 770 260 730 c 1,58,59
 229 743 229 743 229 765 c 0,60,61
 229 805 229 805 274.5 838 c 128,-1,62
 320 871 320 871 363 871 c 0,63,64
 386 871 386 871 424 849.5 c 128,-1,65
 462 828 462 828 479 828 c 0,66,67
 500 828 500 828 547 868 c 1,68,69
 558 866 558 866 568 856.5 c 128,-1,70
 578 847 578 847 578 833 c 0,50,51
EndSplineSet
EndChar

StartChar: Ograve
Encoding: 210 210 145
Width: 672
GlyphClass: 2
Flags: W
LayerCount: 2
Fore
SplineSet
368 572 m 0,0,1
 299 572 299 572 255.5 491 c 128,-1,2
 212 410 212 410 212 295 c 0,3,4
 212 207 212 207 240.5 149 c 128,-1,5
 269 91 269 91 329 91 c 0,6,7
 401 91 401 91 443.5 175 c 128,-1,8
 486 259 486 259 486 374 c 0,9,10
 486 459 486 459 457.5 515.5 c 128,-1,11
 429 572 429 572 368 572 c 0,0,1
301 -10 m 0,12,13
 180 -10 180 -10 112 63.5 c 128,-1,14
 44 137 44 137 44 263 c 0,15,16
 44 438 44 438 141.5 555.5 c 128,-1,17
 239 673 239 673 395 673 c 0,18,19
 517 673 517 673 586 601 c 128,-1,20
 655 529 655 529 655 402 c 0,21,22
 655 230 655 230 557 110 c 128,-1,23
 459 -10 459 -10 301 -10 c 0,12,13
301 948 m 1,24,25
 319 917 319 917 361.5 883 c 128,-1,26
 404 849 404 849 434.5 822 c 128,-1,27
 465 795 465 795 465 772 c 0,28,29
 465 754 465 754 457.5 742.5 c 128,-1,30
 450 731 450 731 430 716 c 1,31,32
 400 742 400 742 349 773 c 128,-1,33
 298 804 298 804 270.5 826 c 128,-1,34
 243 848 243 848 243 872 c 0,35,36
 243 919 243 919 301 948 c 1,24,25
EndSplineSet
EndChar

StartChar: Oacute
Encoding: 211 211 146
Width: 672
GlyphClass: 2
Flags: W
LayerCount: 2
Fore
SplineSet
368 572 m 0,0,1
 299 572 299 572 255.5 491 c 128,-1,2
 212 410 212 410 212 295 c 0,3,4
 212 207 212 207 240.5 149 c 128,-1,5
 269 91 269 91 329 91 c 0,6,7
 401 91 401 91 443.5 175 c 128,-1,8
 486 259 486 259 486 374 c 0,9,10
 486 459 486 459 457.5 515.5 c 128,-1,11
 429 572 429 572 368 572 c 0,0,1
301 -10 m 0,12,13
 180 -10 180 -10 112 63.5 c 128,-1,14
 44 137 44 137 44 263 c 0,15,16
 44 438 44 438 141.5 555.5 c 128,-1,17
 239 673 239 673 395 673 c 0,18,19
 517 673 517 673 586 601 c 128,-1,20
 655 529 655 529 655 402 c 0,21,22
 655 230 655 230 557 110 c 128,-1,23
 459 -10 459 -10 301 -10 c 0,12,13
556 822 m 0,24,25
 531 807 531 807 444.5 770.5 c 128,-1,26
 358 734 358 734 339 716 c 1,27,28
 313 741 313 741 313 772 c 0,29,30
 313 793 313 793 339.5 813 c 128,-1,31
 366 833 366 833 401 848.5 c 128,-1,32
 436 864 436 864 478 890.5 c 128,-1,33
 520 917 520 917 544 946 c 1,34,35
 561 935 561 935 573 914 c 128,-1,36
 585 893 585 893 585 874 c 0,37,38
 585 840 585 840 556 822 c 0,24,25
EndSplineSet
EndChar

StartChar: Ocircumflex
Encoding: 212 212 147
Width: 672
GlyphClass: 2
Flags: W
LayerCount: 2
Fore
SplineSet
368 572 m 0,0,1
 299 572 299 572 255.5 491 c 128,-1,2
 212 410 212 410 212 295 c 0,3,4
 212 207 212 207 240.5 149 c 128,-1,5
 269 91 269 91 329 91 c 0,6,7
 401 91 401 91 443.5 175 c 128,-1,8
 486 259 486 259 486 374 c 0,9,10
 486 459 486 459 457.5 515.5 c 128,-1,11
 429 572 429 572 368 572 c 0,0,1
301 -10 m 0,12,13
 180 -10 180 -10 112 63.5 c 128,-1,14
 44 137 44 137 44 263 c 0,15,16
 44 438 44 438 141.5 555.5 c 128,-1,17
 239 673 239 673 395 673 c 0,18,19
 517 673 517 673 586 601 c 128,-1,20
 655 529 655 529 655 402 c 0,21,22
 655 230 655 230 557 110 c 128,-1,23
 459 -10 459 -10 301 -10 c 0,12,13
426 912 m 1,24,25
 465 886 465 886 490 867 c 128,-1,26
 515 848 515 848 538 820.5 c 128,-1,27
 561 793 561 793 561 771 c 0,28,29
 561 755 561 755 542.5 737 c 128,-1,30
 524 719 524 719 495 712 c 1,31,32
 476 740 476 740 455 762 c 128,-1,33
 434 784 434 784 422 792 c 2,34,-1
 410 801 l 1,35,36
 306 720 306 720 284 720 c 0,37,38
 267 720 267 720 258 727.5 c 128,-1,39
 249 735 249 735 237 758 c 1,40,41
 324 847 324 847 426 912 c 1,24,25
EndSplineSet
EndChar

StartChar: Otilde
Encoding: 213 213 148
Width: 672
GlyphClass: 2
Flags: W
LayerCount: 2
Fore
SplineSet
368 572 m 0,0,1
 299 572 299 572 255.5 491 c 128,-1,2
 212 410 212 410 212 295 c 0,3,4
 212 207 212 207 240.5 149 c 128,-1,5
 269 91 269 91 329 91 c 0,6,7
 401 91 401 91 443.5 175 c 128,-1,8
 486 259 486 259 486 374 c 0,9,10
 486 459 486 459 457.5 515.5 c 128,-1,11
 429 572 429 572 368 572 c 0,0,1
301 -10 m 0,12,13
 180 -10 180 -10 112 63.5 c 128,-1,14
 44 137 44 137 44 263 c 0,15,16
 44 438 44 438 141.5 555.5 c 128,-1,17
 239 673 239 673 395 673 c 0,18,19
 517 673 517 673 586 601 c 128,-1,20
 655 529 655 529 655 402 c 0,21,22
 655 230 655 230 557 110 c 128,-1,23
 459 -10 459 -10 301 -10 c 0,12,13
584 833 m 0,24,25
 584 792 584 792 539.5 759.5 c 128,-1,26
 495 727 495 727 450 727 c 0,27,28
 427 727 427 727 389 748.5 c 128,-1,29
 351 770 351 770 335 770 c 0,30,31
 315 770 315 770 266 730 c 1,32,33
 235 743 235 743 235 765 c 0,34,35
 235 805 235 805 280.5 838 c 128,-1,36
 326 871 326 871 369 871 c 0,37,38
 392 871 392 871 430.5 849.5 c 128,-1,39
 469 828 469 828 485 828 c 0,40,41
 506 828 506 828 553 868 c 1,42,43
 564 866 564 866 574 856.5 c 128,-1,44
 584 847 584 847 584 833 c 0,24,25
EndSplineSet
EndChar

StartChar: Odieresis
Encoding: 214 214 149
Width: 672
GlyphClass: 2
Flags: W
LayerCount: 2
Fore
SplineSet
368 572 m 0,0,1
 299 572 299 572 255.5 491 c 128,-1,2
 212 410 212 410 212 295 c 0,3,4
 212 207 212 207 240.5 149 c 128,-1,5
 269 91 269 91 329 91 c 0,6,7
 401 91 401 91 443.5 175 c 128,-1,8
 486 259 486 259 486 374 c 0,9,10
 486 459 486 459 457.5 515.5 c 128,-1,11
 429 572 429 572 368 572 c 0,0,1
301 -10 m 0,12,13
 180 -10 180 -10 112 63.5 c 128,-1,14
 44 137 44 137 44 263 c 0,15,16
 44 438 44 438 141.5 555.5 c 128,-1,17
 239 673 239 673 395 673 c 0,18,19
 517 673 517 673 586 601 c 128,-1,20
 655 529 655 529 655 402 c 0,21,22
 655 230 655 230 557 110 c 128,-1,23
 459 -10 459 -10 301 -10 c 0,12,13
285 723 m 0,24,25
 250 723 250 723 231 744 c 128,-1,26
 212 765 212 765 212 796 c 0,27,28
 212 833 212 833 237.5 862.5 c 128,-1,29
 263 892 263 892 306 892 c 0,30,31
 340 892 340 892 359.5 869 c 128,-1,32
 379 846 379 846 379 814 c 0,33,34
 379 778 379 778 354 750.5 c 128,-1,35
 329 723 329 723 285 723 c 0,24,25
513 723 m 0,36,37
 478 723 478 723 459 744 c 128,-1,38
 440 765 440 765 440 796 c 0,39,40
 440 833 440 833 465.5 862.5 c 128,-1,41
 491 892 491 892 534 892 c 0,42,43
 568 892 568 892 587.5 869 c 128,-1,44
 607 846 607 846 607 814 c 0,45,46
 607 778 607 778 582 750.5 c 128,-1,47
 557 723 557 723 513 723 c 0,36,37
EndSplineSet
EndChar

StartChar: multiply
Encoding: 215 215 150
Width: 574
GlyphClass: 2
Flags: W
LayerCount: 2
Fore
SplineSet
348 236 m 1,0,1
 363 221 363 221 423 167.5 c 128,-1,2
 483 114 483 114 521 83 c 1,3,4
 488 30 488 30 448 30 c 0,5,6
 430 30 430 30 415 45 c 0,7,8
 395 64 395 64 353 111 c 128,-1,9
 311 158 311 158 290 179 c 1,10,11
 195 85 195 85 131 6 c 1,12,13
 112 19 112 19 103.5 26 c 128,-1,14
 95 33 95 33 86 47.5 c 128,-1,15
 77 62 77 62 77 79 c 0,16,17
 77 98 77 98 91 112 c 0,18,19
 98 119 98 119 142 156.5 c 128,-1,20
 186 194 186 194 232 237 c 1,21,22
 132 334 132 334 58 398 c 1,23,24
 93 452 93 452 130 452 c 0,25,26
 149 452 149 452 164 436 c 0,27,28
 171 429 171 429 210.5 383.5 c 128,-1,29
 250 338 250 338 291 294 c 1,30,31
 423 438 423 438 449 470 c 1,32,33
 469 459 469 459 485.5 438.5 c 128,-1,34
 502 418 502 418 502 397 c 0,35,36
 502 379 502 379 487 364 c 0,37,38
 469 345 469 345 420 302 c 128,-1,39
 371 259 371 259 348 236 c 1,0,1
EndSplineSet
EndChar

StartChar: Oslash
Encoding: 216 216 151
Width: 672
GlyphClass: 2
Flags: W
LayerCount: 2
Fore
SplineSet
301 -10 m 0,0,1
 241 -10 241 -10 193 8 c 1,2,-1
 140 -84 l 1,3,4
 116 -83 116 -83 100 -72 c 128,-1,5
 84 -61 84 -61 84 -43 c 0,6,7
 84 -29 84 -29 96 -11 c 2,8,-1
 132 44 l 1,9,10
 44 117 44 117 44 263 c 0,11,12
 44 438 44 438 141.5 556 c 128,-1,13
 239 674 239 674 395 674 c 0,14,15
 466 674 466 674 523 647 c 1,16,17
 535 666 535 666 555 700.5 c 128,-1,18
 575 735 575 735 581 745 c 1,19,20
 605 744 605 744 621 733 c 128,-1,21
 637 722 637 722 637 704 c 0,22,23
 637 692 637 692 625 672 c 1,24,-1
 581 606 l 1,25,26
 655 534 655 534 655 402 c 0,27,28
 655 230 655 230 557 110 c 128,-1,29
 459 -10 459 -10 301 -10 c 0,0,1
368 572 m 0,30,31
 299 572 299 572 255.5 491 c 128,-1,32
 212 410 212 410 212 295 c 0,33,34
 212 234 212 234 225 188 c 1,35,-1
 448 530 l 1,36,37
 417 572 417 572 368 572 c 0,30,31
486 374 m 0,38,39
 486 416 486 416 479 450 c 1,40,-1
 263 118 l 1,41,42
 290 91 290 91 329 91 c 0,43,44
 401 91 401 91 443.5 175 c 128,-1,45
 486 259 486 259 486 374 c 0,38,39
EndSplineSet
EndChar

StartChar: Ugrave
Encoding: 217 217 152
Width: 664
GlyphClass: 2
Flags: W
LayerCount: 2
Fore
SplineSet
442 274 m 1,0,1
 482 576 482 576 486 660 c 1,2,3
 517 666 517 666 566 666 c 0,4,5
 648 666 648 666 648 613 c 0,6,7
 648 608 648 608 643.5 581 c 128,-1,8
 639 554 639 554 630.5 501 c 128,-1,9
 622 448 622 448 615 392 c 2,10,-1
 591 199 l 1,11,12
 579 113 579 113 579 67 c 0,13,14
 579 33 579 33 583 8 c 1,15,16
 547 -3 547 -3 491 -3 c 0,17,18
 444 -3 444 -3 429 13.5 c 128,-1,19
 414 30 414 30 414 65 c 0,20,21
 414 68 414 68 415.5 77 c 128,-1,22
 417 86 417 86 419 102 c 128,-1,23
 421 118 421 118 423 132 c 1,24,25
 380 64 380 64 323 27 c 128,-1,26
 266 -10 266 -10 211 -10 c 0,27,28
 144 -10 144 -10 107.5 38 c 128,-1,29
 71 86 71 86 71 157 c 0,30,31
 71 181 71 181 96 369 c 128,-1,32
 121 557 121 557 126 659 c 1,33,34
 157 666 157 666 206 666 c 0,35,36
 288 666 288 666 288 613 c 0,37,38
 288 610 288 610 284 586 c 128,-1,39
 280 562 280 562 272.5 513.5 c 128,-1,40
 265 465 265 465 259 421 c 0,41,42
 229 224 229 224 229 193 c 0,43,44
 229 102 229 102 288 102 c 0,45,46
 326 102 326 102 372 151 c 128,-1,47
 418 200 418 200 442 274 c 1,0,1
311 948 m 1,48,49
 329 917 329 917 371.5 883 c 128,-1,50
 414 849 414 849 444.5 822 c 128,-1,51
 475 795 475 795 475 772 c 0,52,53
 475 754 475 754 467.5 742.5 c 128,-1,54
 460 731 460 731 440 716 c 1,55,56
 410 742 410 742 359 773 c 128,-1,57
 308 804 308 804 280.5 826 c 128,-1,58
 253 848 253 848 253 872 c 0,59,60
 253 919 253 919 311 948 c 1,48,49
EndSplineSet
EndChar

StartChar: Uacute
Encoding: 218 218 153
Width: 664
GlyphClass: 2
Flags: W
LayerCount: 2
Fore
SplineSet
442 274 m 1,0,1
 482 576 482 576 486 660 c 1,2,3
 517 666 517 666 566 666 c 0,4,5
 648 666 648 666 648 613 c 0,6,7
 648 608 648 608 643.5 581 c 128,-1,8
 639 554 639 554 630.5 501 c 128,-1,9
 622 448 622 448 615 392 c 2,10,-1
 591 199 l 1,11,12
 579 113 579 113 579 67 c 0,13,14
 579 33 579 33 583 8 c 1,15,16
 547 -3 547 -3 491 -3 c 0,17,18
 444 -3 444 -3 429 13.5 c 128,-1,19
 414 30 414 30 414 65 c 0,20,21
 414 68 414 68 415.5 77 c 128,-1,22
 417 86 417 86 419 102 c 128,-1,23
 421 118 421 118 423 132 c 1,24,25
 380 64 380 64 323 27 c 128,-1,26
 266 -10 266 -10 211 -10 c 0,27,28
 144 -10 144 -10 107.5 38 c 128,-1,29
 71 86 71 86 71 157 c 0,30,31
 71 181 71 181 96 369 c 128,-1,32
 121 557 121 557 126 659 c 1,33,34
 157 666 157 666 206 666 c 0,35,36
 288 666 288 666 288 613 c 0,37,38
 288 610 288 610 284 586 c 128,-1,39
 280 562 280 562 272.5 513.5 c 128,-1,40
 265 465 265 465 259 421 c 0,41,42
 229 224 229 224 229 193 c 0,43,44
 229 102 229 102 288 102 c 0,45,46
 326 102 326 102 372 151 c 128,-1,47
 418 200 418 200 442 274 c 1,0,1
566 822 m 0,48,49
 541 807 541 807 454.5 770.5 c 128,-1,50
 368 734 368 734 349 716 c 1,51,52
 323 741 323 741 323 772 c 0,53,54
 323 793 323 793 349.5 813 c 128,-1,55
 376 833 376 833 411 848.5 c 128,-1,56
 446 864 446 864 488 890.5 c 128,-1,57
 530 917 530 917 554 946 c 1,58,59
 571 935 571 935 583 914 c 128,-1,60
 595 893 595 893 595 874 c 0,61,62
 595 840 595 840 566 822 c 0,48,49
EndSplineSet
EndChar

StartChar: Ucircumflex
Encoding: 219 219 154
Width: 664
GlyphClass: 2
Flags: W
LayerCount: 2
Fore
SplineSet
442 274 m 1,0,1
 482 576 482 576 486 660 c 1,2,3
 517 666 517 666 566 666 c 0,4,5
 648 666 648 666 648 613 c 0,6,7
 648 608 648 608 643.5 581 c 128,-1,8
 639 554 639 554 630.5 501 c 128,-1,9
 622 448 622 448 615 392 c 2,10,-1
 591 199 l 1,11,12
 579 113 579 113 579 67 c 0,13,14
 579 33 579 33 583 8 c 1,15,16
 547 -3 547 -3 491 -3 c 0,17,18
 444 -3 444 -3 429 13.5 c 128,-1,19
 414 30 414 30 414 65 c 0,20,21
 414 68 414 68 415.5 77 c 128,-1,22
 417 86 417 86 419 102 c 128,-1,23
 421 118 421 118 423 132 c 1,24,25
 380 64 380 64 323 27 c 128,-1,26
 266 -10 266 -10 211 -10 c 0,27,28
 144 -10 144 -10 107.5 38 c 128,-1,29
 71 86 71 86 71 157 c 0,30,31
 71 181 71 181 96 369 c 128,-1,32
 121 557 121 557 126 659 c 1,33,34
 157 666 157 666 206 666 c 0,35,36
 288 666 288 666 288 613 c 0,37,38
 288 610 288 610 284 586 c 128,-1,39
 280 562 280 562 272.5 513.5 c 128,-1,40
 265 465 265 465 259 421 c 0,41,42
 229 224 229 224 229 193 c 0,43,44
 229 102 229 102 288 102 c 0,45,46
 326 102 326 102 372 151 c 128,-1,47
 418 200 418 200 442 274 c 1,0,1
436 912 m 1,48,49
 475 886 475 886 500 867 c 128,-1,50
 525 848 525 848 548 820.5 c 128,-1,51
 571 793 571 793 571 771 c 0,52,53
 571 755 571 755 552.5 737 c 128,-1,54
 534 719 534 719 505 712 c 1,55,56
 486 740 486 740 465 762 c 128,-1,57
 444 784 444 784 432 792 c 2,58,-1
 420 801 l 1,59,60
 316 720 316 720 294 720 c 0,61,62
 277 720 277 720 268 727.5 c 128,-1,63
 259 735 259 735 247 758 c 1,64,65
 334 847 334 847 436 912 c 1,48,49
EndSplineSet
EndChar

StartChar: Udieresis
Encoding: 220 220 155
Width: 664
GlyphClass: 2
Flags: W
LayerCount: 2
Fore
SplineSet
442 274 m 1,0,1
 482 576 482 576 486 660 c 1,2,3
 517 666 517 666 566 666 c 0,4,5
 648 666 648 666 648 613 c 0,6,7
 648 608 648 608 643.5 581 c 128,-1,8
 639 554 639 554 630.5 501 c 128,-1,9
 622 448 622 448 615 392 c 2,10,-1
 591 199 l 1,11,12
 579 113 579 113 579 67 c 0,13,14
 579 33 579 33 583 8 c 1,15,16
 547 -3 547 -3 491 -3 c 0,17,18
 444 -3 444 -3 429 13.5 c 128,-1,19
 414 30 414 30 414 65 c 0,20,21
 414 68 414 68 415.5 77 c 128,-1,22
 417 86 417 86 419 102 c 128,-1,23
 421 118 421 118 423 132 c 1,24,25
 380 64 380 64 323 27 c 128,-1,26
 266 -10 266 -10 211 -10 c 0,27,28
 144 -10 144 -10 107.5 38 c 128,-1,29
 71 86 71 86 71 157 c 0,30,31
 71 181 71 181 96 369 c 128,-1,32
 121 557 121 557 126 659 c 1,33,34
 157 666 157 666 206 666 c 0,35,36
 288 666 288 666 288 613 c 0,37,38
 288 610 288 610 284 586 c 128,-1,39
 280 562 280 562 272.5 513.5 c 128,-1,40
 265 465 265 465 259 421 c 0,41,42
 229 224 229 224 229 193 c 0,43,44
 229 102 229 102 288 102 c 0,45,46
 326 102 326 102 372 151 c 128,-1,47
 418 200 418 200 442 274 c 1,0,1
295 723 m 0,48,49
 260 723 260 723 241 744 c 128,-1,50
 222 765 222 765 222 796 c 0,51,52
 222 833 222 833 247.5 862.5 c 128,-1,53
 273 892 273 892 316 892 c 0,54,55
 350 892 350 892 369.5 869 c 128,-1,56
 389 846 389 846 389 814 c 0,57,58
 389 778 389 778 364 750.5 c 128,-1,59
 339 723 339 723 295 723 c 0,48,49
523 723 m 0,60,61
 488 723 488 723 469 744 c 128,-1,62
 450 765 450 765 450 796 c 0,63,64
 450 833 450 833 475.5 862.5 c 128,-1,65
 501 892 501 892 544 892 c 0,66,67
 578 892 578 892 597.5 869 c 128,-1,68
 617 846 617 846 617 814 c 0,69,70
 617 778 617 778 592 750.5 c 128,-1,71
 567 723 567 723 523 723 c 0,60,61
EndSplineSet
EndChar

StartChar: Yacute
Encoding: 221 221 156
Width: 509
GlyphClass: 2
Flags: W
LayerCount: 2
Fore
SplineSet
188 282 m 1,0,1
 101 556 101 556 45 609 c 1,2,3
 79 642 79 642 102.5 655 c 128,-1,4
 126 668 126 668 154 668 c 0,5,6
 179 668 179 668 195.5 658.5 c 128,-1,7
 212 649 212 649 222 621 c 0,8,9
 265 509 265 509 302 389 c 1,10,11
 338 445 338 445 383 541 c 128,-1,12
 428 637 428 637 432 672 c 1,13,14
 565 672 565 672 565 609 c 0,15,16
 565 558 565 558 344 282 c 1,17,-1
 334 199 l 2,18,19
 322 96 322 96 322 67 c 0,20,21
 322 33 322 33 326 8 c 1,22,23
 293 -3 293 -3 235 -3 c 0,24,25
 193 -3 193 -3 175.5 12 c 128,-1,26
 158 27 158 27 158 59 c 0,27,28
 158 64 158 64 161 86.5 c 128,-1,29
 164 109 164 109 172 166.5 c 128,-1,30
 180 224 180 224 188 282 c 1,0,1
512 822 m 0,31,32
 487 807 487 807 400.5 770.5 c 128,-1,33
 314 734 314 734 295 716 c 1,34,35
 269 741 269 741 269 772 c 0,36,37
 269 793 269 793 295.5 813 c 128,-1,38
 322 833 322 833 357 848.5 c 128,-1,39
 392 864 392 864 434 890.5 c 128,-1,40
 476 917 476 917 500 946 c 1,41,42
 517 935 517 935 529 914 c 128,-1,43
 541 893 541 893 541 874 c 0,44,45
 541 840 541 840 512 822 c 0,31,32
EndSplineSet
EndChar

StartChar: Thorn
Encoding: 222 222 157
Width: 536
GlyphClass: 2
Flags: W
LayerCount: 2
Fore
SplineSet
198 666 m 0,0,1
 280 666 280 666 280 613 c 0,2,3
 280 610 280 610 273 570 c 1,4,5
 526 568 526 568 526 385 c 0,6,7
 526 263 526 263 461.5 191.5 c 128,-1,8
 397 120 397 120 316 120 c 0,9,10
 250 120 250 120 216 160 c 1,11,12
 210 114 210 114 210 67 c 0,13,14
 210 33 210 33 214 8 c 1,15,16
 181 -3 181 -3 123 -3 c 0,17,18
 81 -3 81 -3 63.5 12 c 128,-1,19
 46 27 46 27 46 59 c 0,20,21
 46 65 46 65 51 100.5 c 128,-1,22
 56 136 56 136 69 231.5 c 128,-1,23
 82 327 82 327 96 437 c 0,24,25
 115 590 115 590 118 660 c 1,26,27
 149 666 149 666 198 666 c 0,0,1
299 470 m 0,28,29
 287 470 287 470 257 466 c 1,30,31
 252 438 252 438 247 392 c 1,32,-1
 227 241 l 1,33,34
 262 221 262 221 285 221 c 0,35,36
 324 221 324 221 348 263.5 c 128,-1,37
 372 306 372 306 372 374 c 0,38,39
 372 428 372 428 353 449 c 128,-1,40
 334 470 334 470 299 470 c 0,28,29
EndSplineSet
EndChar

StartChar: germandbls
Encoding: 223 223 158
Width: 573
GlyphClass: 2
Flags: W
LayerCount: 2
Fore
SplineSet
286 142 m 1,0,1
 287 115 287 115 303.5 100.5 c 128,-1,2
 320 86 320 86 341 86 c 0,3,4
 363 86 363 86 377.5 103.5 c 128,-1,5
 392 121 392 121 392 146 c 128,-1,6
 392 171 392 171 369 194.5 c 128,-1,7
 346 218 346 218 318 234 c 128,-1,8
 290 250 290 250 267 277 c 128,-1,9
 244 304 244 304 244 336 c 0,10,11
 244 363 244 363 262 387 c 128,-1,12
 280 411 280 411 301 427.5 c 128,-1,13
 322 444 322 444 340 471.5 c 128,-1,14
 358 499 358 499 358 533 c 0,15,16
 358 578 358 578 314 578 c 0,17,18
 285 578 285 578 258.5 555 c 128,-1,19
 232 532 232 532 227 486 c 0,20,21
 179 54 179 54 159 -34 c 0,22,23
 148 -79 148 -79 121 -103.5 c 128,-1,24
 94 -128 94 -128 60 -128 c 0,25,26
 5 -128 5 -128 -29 -73 c 1,27,28
 0 -53 0 -53 25.5 64 c 128,-1,29
 51 181 51 181 81 465 c 0,30,31
 87 518 87 518 115 560 c 128,-1,32
 143 602 143 602 184 625.5 c 128,-1,33
 225 649 225 649 269 661 c 128,-1,34
 313 673 313 673 356 673 c 0,35,36
 435 673 435 673 474 642.5 c 128,-1,37
 513 612 513 612 513 565 c 0,38,39
 513 531 513 531 500 503.5 c 128,-1,40
 487 476 487 476 468 458.5 c 128,-1,41
 449 441 449 441 430 426.5 c 128,-1,42
 411 412 411 412 398 396 c 128,-1,43
 385 380 385 380 385 362 c 128,-1,44
 385 344 385 344 400.5 325.5 c 128,-1,45
 416 307 416 307 438.5 289 c 128,-1,46
 461 271 461 271 483.5 250.5 c 128,-1,47
 506 230 506 230 521.5 200.5 c 128,-1,48
 537 171 537 171 537 137 c 0,49,50
 537 75 537 75 480 32.5 c 128,-1,51
 423 -10 423 -10 341 -10 c 0,52,53
 288 -10 288 -10 248.5 15.5 c 128,-1,54
 209 41 209 41 209 80 c 0,55,56
 209 134 209 134 286 142 c 1,0,1
EndSplineSet
EndChar

StartChar: agrave
Encoding: 224 224 159
Width: 543
GlyphClass: 2
Flags: W
LayerCount: 2
Fore
SplineSet
319 189 m 1,0,-1
 344 358 l 1,1,2
 314 394 314 394 283 394 c 0,3,4
 254 394 254 394 233 362.5 c 128,-1,5
 212 331 212 331 202.5 287.5 c 128,-1,6
 193 244 193 244 193 196 c 0,7,8
 193 146 193 146 204 112.5 c 128,-1,9
 215 79 215 79 236 79 c 0,10,11
 255 79 255 79 279 109.5 c 128,-1,12
 303 140 303 140 319 189 c 1,0,-1
312 104 m 1,13,14
 284 49 284 49 244 19.5 c 128,-1,15
 204 -10 204 -10 161 -10 c 0,16,17
 105 -10 105 -10 70 35.5 c 128,-1,18
 35 81 35 81 35 168 c 0,19,20
 35 246 35 246 64 316 c 128,-1,21
 93 386 93 386 155.5 434.5 c 128,-1,22
 218 483 218 483 302 483 c 0,23,24
 404 483 404 483 501 417 c 1,25,26
 456 205 456 205 456 124 c 0,27,28
 456 86 456 86 488 66 c 1,29,30
 462 -10 462 -10 388 -10 c 0,31,32
 347 -10 347 -10 329 12 c 128,-1,33
 311 34 311 34 311 79 c 0,34,35
 311 95 311 95 312 104 c 1,13,14
220 755 m 1,36,37
 238 724 238 724 280.5 690 c 128,-1,38
 323 656 323 656 353.5 629 c 128,-1,39
 384 602 384 602 384 579 c 0,40,41
 384 561 384 561 376.5 549.5 c 128,-1,42
 369 538 369 538 349 523 c 1,43,44
 319 549 319 549 268 580 c 128,-1,45
 217 611 217 611 189.5 633 c 128,-1,46
 162 655 162 655 162 679 c 0,47,48
 162 726 162 726 220 755 c 1,36,37
EndSplineSet
EndChar

StartChar: aacute
Encoding: 225 225 160
Width: 546
GlyphClass: 2
Flags: W
LayerCount: 2
Fore
SplineSet
319 189 m 1,0,-1
 344 358 l 1,1,2
 314 394 314 394 283 394 c 0,3,4
 254 394 254 394 233 362.5 c 128,-1,5
 212 331 212 331 202.5 287.5 c 128,-1,6
 193 244 193 244 193 196 c 0,7,8
 193 146 193 146 204 112.5 c 128,-1,9
 215 79 215 79 236 79 c 0,10,11
 255 79 255 79 279 109.5 c 128,-1,12
 303 140 303 140 319 189 c 1,0,-1
312 104 m 1,13,14
 284 49 284 49 244 19.5 c 128,-1,15
 204 -10 204 -10 161 -10 c 0,16,17
 105 -10 105 -10 70 35.5 c 128,-1,18
 35 81 35 81 35 168 c 0,19,20
 35 246 35 246 64 316 c 128,-1,21
 93 386 93 386 155.5 434.5 c 128,-1,22
 218 483 218 483 302 483 c 0,23,24
 404 483 404 483 501 417 c 1,25,26
 456 205 456 205 456 124 c 0,27,28
 456 86 456 86 488 66 c 1,29,30
 462 -10 462 -10 388 -10 c 0,31,32
 347 -10 347 -10 329 12 c 128,-1,33
 311 34 311 34 311 79 c 0,34,35
 311 95 311 95 312 104 c 1,13,14
475 629 m 0,36,37
 450 614 450 614 363.5 577.5 c 128,-1,38
 277 541 277 541 258 523 c 1,39,40
 232 548 232 548 232 579 c 0,41,42
 232 600 232 600 258.5 620 c 128,-1,43
 285 640 285 640 320 655.5 c 128,-1,44
 355 671 355 671 397 697.5 c 128,-1,45
 439 724 439 724 463 753 c 1,46,47
 480 742 480 742 492 721 c 128,-1,48
 504 700 504 700 504 681 c 0,49,50
 504 647 504 647 475 629 c 0,36,37
EndSplineSet
EndChar

StartChar: acircumflex
Encoding: 226 226 161
Width: 543
GlyphClass: 2
Flags: W
LayerCount: 2
Fore
SplineSet
319 189 m 1,0,-1
 344 358 l 1,1,2
 314 394 314 394 283 394 c 0,3,4
 254 394 254 394 233 362.5 c 128,-1,5
 212 331 212 331 202.5 287.5 c 128,-1,6
 193 244 193 244 193 196 c 0,7,8
 193 146 193 146 204 112.5 c 128,-1,9
 215 79 215 79 236 79 c 0,10,11
 255 79 255 79 279 109.5 c 128,-1,12
 303 140 303 140 319 189 c 1,0,-1
312 104 m 1,13,14
 284 49 284 49 244 19.5 c 128,-1,15
 204 -10 204 -10 161 -10 c 0,16,17
 105 -10 105 -10 70 35.5 c 128,-1,18
 35 81 35 81 35 168 c 0,19,20
 35 246 35 246 64 316 c 128,-1,21
 93 386 93 386 155.5 434.5 c 128,-1,22
 218 483 218 483 302 483 c 0,23,24
 404 483 404 483 501 417 c 1,25,26
 456 205 456 205 456 124 c 0,27,28
 456 86 456 86 488 66 c 1,29,30
 462 -10 462 -10 388 -10 c 0,31,32
 347 -10 347 -10 329 12 c 128,-1,33
 311 34 311 34 311 79 c 0,34,35
 311 95 311 95 312 104 c 1,13,14
345 719 m 1,36,37
 384 693 384 693 409 674 c 128,-1,38
 434 655 434 655 457 627.5 c 128,-1,39
 480 600 480 600 480 578 c 0,40,41
 480 562 480 562 461.5 544 c 128,-1,42
 443 526 443 526 414 519 c 1,43,44
 395 547 395 547 374 569.5 c 128,-1,45
 353 592 353 592 341 600 c 2,46,-1
 329 608 l 1,47,48
 226 527 226 527 203 527 c 0,49,50
 186 527 186 527 177 534.5 c 128,-1,51
 168 542 168 542 156 565 c 1,52,53
 243 654 243 654 345 719 c 1,36,37
EndSplineSet
EndChar

StartChar: atilde
Encoding: 227 227 162
Width: 545
GlyphClass: 2
Flags: W
LayerCount: 2
Fore
SplineSet
319 189 m 1,0,-1
 344 358 l 1,1,2
 314 394 314 394 283 394 c 0,3,4
 254 394 254 394 233 362.5 c 128,-1,5
 212 331 212 331 202.5 287.5 c 128,-1,6
 193 244 193 244 193 196 c 0,7,8
 193 146 193 146 204 112.5 c 128,-1,9
 215 79 215 79 236 79 c 0,10,11
 255 79 255 79 279 109.5 c 128,-1,12
 303 140 303 140 319 189 c 1,0,-1
312 104 m 1,13,14
 284 49 284 49 244 19.5 c 128,-1,15
 204 -10 204 -10 161 -10 c 0,16,17
 105 -10 105 -10 70 35.5 c 128,-1,18
 35 81 35 81 35 168 c 0,19,20
 35 246 35 246 64 316 c 128,-1,21
 93 386 93 386 155.5 434.5 c 128,-1,22
 218 483 218 483 302 483 c 0,23,24
 404 483 404 483 501 417 c 1,25,26
 456 205 456 205 456 124 c 0,27,28
 456 86 456 86 488 66 c 1,29,30
 462 -10 462 -10 388 -10 c 0,31,32
 347 -10 347 -10 329 12 c 128,-1,33
 311 34 311 34 311 79 c 0,34,35
 311 95 311 95 312 104 c 1,13,14
503 640 m 0,36,37
 503 599 503 599 458.5 566.5 c 128,-1,38
 414 534 414 534 369 534 c 0,39,40
 346 534 346 534 308 555.5 c 128,-1,41
 270 577 270 577 254 577 c 0,42,43
 234 577 234 577 185 537 c 1,44,45
 154 550 154 550 154 572 c 0,46,47
 154 612 154 612 199.5 645 c 128,-1,48
 245 678 245 678 288 678 c 0,49,50
 310 678 310 678 349 656.5 c 128,-1,51
 388 635 388 635 404 635 c 0,52,53
 425 635 425 635 472 675 c 1,54,55
 483 673 483 673 493 663.5 c 128,-1,56
 503 654 503 654 503 640 c 0,36,37
EndSplineSet
EndChar

StartChar: adieresis
Encoding: 228 228 163
Width: 568
GlyphClass: 2
Flags: W
LayerCount: 2
Fore
SplineSet
319 189 m 1,0,-1
 344 358 l 1,1,2
 314 394 314 394 283 394 c 0,3,4
 254 394 254 394 233 362.5 c 128,-1,5
 212 331 212 331 202.5 287.5 c 128,-1,6
 193 244 193 244 193 196 c 0,7,8
 193 146 193 146 204 112.5 c 128,-1,9
 215 79 215 79 236 79 c 0,10,11
 255 79 255 79 279 109.5 c 128,-1,12
 303 140 303 140 319 189 c 1,0,-1
312 104 m 1,13,14
 284 49 284 49 244 19.5 c 128,-1,15
 204 -10 204 -10 161 -10 c 0,16,17
 105 -10 105 -10 70 35.5 c 128,-1,18
 35 81 35 81 35 168 c 0,19,20
 35 246 35 246 64 316 c 128,-1,21
 93 386 93 386 155.5 434.5 c 128,-1,22
 218 483 218 483 302 483 c 0,23,24
 404 483 404 483 501 417 c 1,25,26
 456 205 456 205 456 124 c 0,27,28
 456 86 456 86 488 66 c 1,29,30
 462 -10 462 -10 388 -10 c 0,31,32
 347 -10 347 -10 329 12 c 128,-1,33
 311 34 311 34 311 79 c 0,34,35
 311 95 311 95 312 104 c 1,13,14
204 530 m 0,36,37
 169 530 169 530 150 551 c 128,-1,38
 131 572 131 572 131 603 c 0,39,40
 131 640 131 640 156.5 669.5 c 128,-1,41
 182 699 182 699 225 699 c 0,42,43
 259 699 259 699 278.5 676 c 128,-1,44
 298 653 298 653 298 621 c 0,45,46
 298 585 298 585 273 557.5 c 128,-1,47
 248 530 248 530 204 530 c 0,36,37
432 530 m 0,48,49
 397 530 397 530 378 551 c 128,-1,50
 359 572 359 572 359 603 c 0,51,52
 359 640 359 640 384.5 669.5 c 128,-1,53
 410 699 410 699 453 699 c 0,54,55
 487 699 487 699 506.5 676 c 128,-1,56
 526 653 526 653 526 621 c 0,57,58
 526 585 526 585 501 557.5 c 128,-1,59
 476 530 476 530 432 530 c 0,48,49
EndSplineSet
EndChar

StartChar: aring
Encoding: 229 229 164
Width: 543
GlyphClass: 2
Flags: W
LayerCount: 2
Fore
SplineSet
319 189 m 1,0,-1
 344 358 l 1,1,2
 314 394 314 394 283 394 c 0,3,4
 254 394 254 394 233 362.5 c 128,-1,5
 212 331 212 331 202.5 287.5 c 128,-1,6
 193 244 193 244 193 196 c 0,7,8
 193 146 193 146 204 112.5 c 128,-1,9
 215 79 215 79 236 79 c 0,10,11
 255 79 255 79 279 109.5 c 128,-1,12
 303 140 303 140 319 189 c 1,0,-1
312 104 m 1,13,14
 284 49 284 49 244 19.5 c 128,-1,15
 204 -10 204 -10 161 -10 c 0,16,17
 105 -10 105 -10 70 35.5 c 128,-1,18
 35 81 35 81 35 168 c 0,19,20
 35 246 35 246 64 316 c 128,-1,21
 93 386 93 386 155.5 434.5 c 128,-1,22
 218 483 218 483 302 483 c 0,23,24
 404 483 404 483 501 417 c 1,25,26
 456 205 456 205 456 124 c 0,27,28
 456 86 456 86 488 66 c 1,29,30
 462 -10 462 -10 388 -10 c 0,31,32
 347 -10 347 -10 329 12 c 128,-1,33
 311 34 311 34 311 79 c 0,34,35
 311 95 311 95 312 104 c 1,13,14
331 590 m 0,36,37
 358 590 358 590 374.5 612.5 c 128,-1,38
 391 635 391 635 391 664 c 0,39,40
 391 691 391 691 380 707 c 128,-1,41
 369 723 369 723 348 723 c 0,42,43
 321 723 321 723 304 700.5 c 128,-1,44
 287 678 287 678 287 649 c 0,45,46
 287 623 287 623 298.5 606.5 c 128,-1,47
 310 590 310 590 331 590 c 0,36,37
324 540 m 0,48,49
 281 540 281 540 255 566.5 c 128,-1,50
 229 593 229 593 229 637 c 0,51,52
 229 691 229 691 264.5 732 c 128,-1,53
 300 773 300 773 355 773 c 0,54,55
 398 773 398 773 423 747 c 128,-1,56
 448 721 448 721 448 677 c 0,57,58
 448 620 448 620 414.5 580 c 128,-1,59
 381 540 381 540 324 540 c 0,48,49
EndSplineSet
EndChar

StartChar: ae
Encoding: 230 230 165
Width: 753
GlyphClass: 2
Flags: W
LayerCount: 2
Fore
SplineSet
653 131 m 1,0,1
 705 107 705 107 705 71 c 0,2,3
 705 36 705 36 655.5 13 c 128,-1,4
 606 -10 606 -10 539 -10 c 0,5,6
 468 -10 468 -10 410 19.5 c 128,-1,7
 352 49 352 49 331 111 c 1,8,9
 262 -10 262 -10 161 -10 c 0,10,11
 105 -10 105 -10 70 35.5 c 128,-1,12
 35 81 35 81 35 168 c 0,13,14
 35 246 35 246 64 316 c 128,-1,15
 93 386 93 386 155.5 434.5 c 128,-1,16
 218 483 218 483 302 483 c 0,17,18
 380 483 380 483 445 436 c 1,19,20
 515 483 515 483 591 483 c 0,21,22
 650 483 650 483 691.5 450 c 128,-1,23
 733 417 733 417 733 358 c 0,24,25
 733 267 733 267 669.5 216 c 128,-1,26
 606 165 606 165 509 165 c 0,27,28
 497 165 497 165 479 167 c 1,29,30
 485 80 485 80 563 80 c 0,31,32
 620 80 620 80 653 131 c 1,0,1
319 189 m 2,33,-1
 321 195 l 1,34,35
 325 286 325 286 369 356 c 1,36,37
 323 395 323 395 288 395 c 0,38,39
 242 395 242 395 217.5 338 c 128,-1,40
 193 281 193 281 193 196 c 0,41,42
 193 146 193 146 204 112.5 c 128,-1,43
 215 79 215 79 236 79 c 0,44,45
 255 79 255 79 279 109.5 c 128,-1,46
 303 140 303 140 319 189 c 2,33,-1
568 346 m 0,47,48
 568 367 568 367 560.5 381 c 128,-1,49
 553 395 553 395 539 395 c 0,50,51
 516 395 516 395 499 354 c 128,-1,52
 482 313 482 313 479 248 c 1,53,54
 495 249 495 249 505.5 251 c 128,-1,55
 516 253 516 253 533 261.5 c 128,-1,56
 550 270 550 270 559 291.5 c 128,-1,57
 568 313 568 313 568 346 c 0,47,48
EndSplineSet
EndChar

StartChar: ccedilla
Encoding: 231 231 166
Width: 457
GlyphClass: 2
Flags: W
LayerCount: 2
Fore
SplineSet
344 314 m 1,0,1
 341 353 341 353 322.5 372 c 128,-1,2
 304 391 304 391 284 391 c 0,3,4
 238 391 238 391 210 336.5 c 128,-1,5
 182 282 182 282 182 207 c 0,6,7
 182 143 182 143 204.5 111.5 c 128,-1,8
 227 80 227 80 262 80 c 0,9,10
 283 80 283 80 306 97.5 c 128,-1,11
 329 115 329 115 344 143 c 1,12,13
 376 131 376 131 390.5 116.5 c 128,-1,14
 405 102 405 102 405 78 c 0,15,16
 405 42 405 42 366 16.5 c 128,-1,17
 327 -9 327 -9 254 -10 c 1,18,19
 249 -22 249 -22 249 -32 c 0,20,21
 249 -41 249 -41 260 -50.5 c 128,-1,22
 271 -60 271 -60 284 -68 c 128,-1,23
 297 -76 297 -76 308 -92.5 c 128,-1,24
 319 -109 319 -109 319 -131 c 0,25,26
 319 -183 319 -183 265.5 -217.5 c 128,-1,27
 212 -252 212 -252 154 -252 c 0,28,29
 93 -252 93 -252 93 -211 c 0,30,31
 93 -186 93 -186 123 -153 c 1,32,33
 134 -166 134 -166 155 -166 c 0,34,35
 171 -166 171 -166 180.5 -155.5 c 128,-1,36
 190 -145 190 -145 190 -129 c 0,37,38
 190 -114 190 -114 172.5 -94 c 128,-1,39
 155 -74 155 -74 155 -60 c 0,40,41
 155 -36 155 -36 173 -2 c 1,42,43
 104 14 104 14 64.5 60 c 128,-1,44
 25 106 25 106 25 184 c 0,45,46
 25 257 25 257 50.5 316 c 128,-1,47
 76 375 76 375 117 411 c 128,-1,48
 158 447 158 447 206.5 466 c 128,-1,49
 255 485 255 485 305 485 c 0,50,51
 334 485 334 485 364.5 477 c 128,-1,52
 395 469 395 469 421 447.5 c 128,-1,53
 447 426 447 426 447 395 c 0,54,55
 447 365 447 365 417.5 341.5 c 128,-1,56
 388 318 388 318 344 314 c 1,0,1
EndSplineSet
EndChar

StartChar: egrave
Encoding: 232 232 167
Width: 467
GlyphClass: 2
Flags: W
LayerCount: 2
Fore
SplineSet
202 242 m 0,0,1
 242 242 242 242 265 275.5 c 128,-1,2
 288 309 288 309 288 353 c 0,3,4
 288 371 288 371 278 383 c 128,-1,5
 268 395 268 395 255 395 c 0,6,7
 231 395 231 395 211.5 353.5 c 128,-1,8
 192 312 192 312 187 243 c 1,9,10
 192 242 192 242 202 242 c 0,0,1
351 134 m 1,11,12
 373 123 373 123 388.5 106 c 128,-1,13
 404 89 404 89 404 72 c 0,14,15
 404 37 404 37 352.5 13.5 c 128,-1,16
 301 -10 301 -10 234 -10 c 0,17,18
 148 -10 148 -10 86.5 32.5 c 128,-1,19
 25 75 25 75 25 164 c 0,20,21
 25 290 25 290 105.5 387.5 c 128,-1,22
 186 485 186 485 311 485 c 0,23,24
 368 485 368 485 407.5 453 c 128,-1,25
 447 421 447 421 447 365 c 0,26,27
 447 276 447 276 380.5 226.5 c 128,-1,28
 314 177 314 177 213 177 c 0,29,30
 201 177 201 177 183 179 c 1,31,32
 183 80 183 80 262 80 c 0,33,34
 314 80 314 80 351 134 c 1,11,12
174 755 m 1,35,36
 192 724 192 724 234.5 690 c 128,-1,37
 277 656 277 656 307.5 629 c 128,-1,38
 338 602 338 602 338 579 c 0,39,40
 338 561 338 561 330.5 549.5 c 128,-1,41
 323 538 323 538 303 523 c 1,42,43
 273 549 273 549 222 580 c 128,-1,44
 171 611 171 611 143.5 633 c 128,-1,45
 116 655 116 655 116 679 c 0,46,47
 116 726 116 726 174 755 c 1,35,36
EndSplineSet
EndChar

StartChar: eacute
Encoding: 233 233 168
Width: 478
GlyphClass: 2
Flags: W
LayerCount: 2
Fore
SplineSet
202 242 m 0,0,1
 242 242 242 242 265 275.5 c 128,-1,2
 288 309 288 309 288 353 c 0,3,4
 288 371 288 371 278 383 c 128,-1,5
 268 395 268 395 255 395 c 0,6,7
 231 395 231 395 211.5 353.5 c 128,-1,8
 192 312 192 312 187 243 c 1,9,10
 192 242 192 242 202 242 c 0,0,1
351 134 m 1,11,12
 373 123 373 123 388.5 106 c 128,-1,13
 404 89 404 89 404 72 c 0,14,15
 404 37 404 37 352.5 13.5 c 128,-1,16
 301 -10 301 -10 234 -10 c 0,17,18
 148 -10 148 -10 86.5 32.5 c 128,-1,19
 25 75 25 75 25 164 c 0,20,21
 25 290 25 290 105.5 387.5 c 128,-1,22
 186 485 186 485 311 485 c 0,23,24
 368 485 368 485 407.5 453 c 128,-1,25
 447 421 447 421 447 365 c 0,26,27
 447 276 447 276 380.5 226.5 c 128,-1,28
 314 177 314 177 213 177 c 0,29,30
 201 177 201 177 183 179 c 1,31,32
 183 80 183 80 262 80 c 0,33,34
 314 80 314 80 351 134 c 1,11,12
429 629 m 0,35,36
 404 614 404 614 317.5 577.5 c 128,-1,37
 231 541 231 541 212 523 c 1,38,39
 186 548 186 548 186 579 c 0,40,41
 186 600 186 600 212.5 620 c 128,-1,42
 239 640 239 640 274 655.5 c 128,-1,43
 309 671 309 671 351 697.5 c 128,-1,44
 393 724 393 724 417 753 c 1,45,46
 434 742 434 742 446 721 c 128,-1,47
 458 700 458 700 458 681 c 0,48,49
 458 647 458 647 429 629 c 0,35,36
EndSplineSet
EndChar

StartChar: ecircumflex
Encoding: 234 234 169
Width: 467
GlyphClass: 2
Flags: W
LayerCount: 2
Fore
SplineSet
202 242 m 0,0,1
 242 242 242 242 265 275.5 c 128,-1,2
 288 309 288 309 288 353 c 0,3,4
 288 371 288 371 278 383 c 128,-1,5
 268 395 268 395 255 395 c 0,6,7
 231 395 231 395 211.5 353.5 c 128,-1,8
 192 312 192 312 187 243 c 1,9,10
 192 242 192 242 202 242 c 0,0,1
351 134 m 1,11,12
 373 123 373 123 388.5 106 c 128,-1,13
 404 89 404 89 404 72 c 0,14,15
 404 37 404 37 352.5 13.5 c 128,-1,16
 301 -10 301 -10 234 -10 c 0,17,18
 148 -10 148 -10 86.5 32.5 c 128,-1,19
 25 75 25 75 25 164 c 0,20,21
 25 290 25 290 105.5 387.5 c 128,-1,22
 186 485 186 485 311 485 c 0,23,24
 368 485 368 485 407.5 453 c 128,-1,25
 447 421 447 421 447 365 c 0,26,27
 447 276 447 276 380.5 226.5 c 128,-1,28
 314 177 314 177 213 177 c 0,29,30
 201 177 201 177 183 179 c 1,31,32
 183 80 183 80 262 80 c 0,33,34
 314 80 314 80 351 134 c 1,11,12
299 719 m 1,35,36
 338 693 338 693 363 674 c 128,-1,37
 388 655 388 655 411 627.5 c 128,-1,38
 434 600 434 600 434 578 c 0,39,40
 434 562 434 562 415.5 544 c 128,-1,41
 397 526 397 526 368 519 c 1,42,43
 349 547 349 547 328 569.5 c 128,-1,44
 307 592 307 592 295 600 c 2,45,-1
 283 608 l 1,46,47
 180 527 180 527 157 527 c 0,48,49
 140 527 140 527 131 534.5 c 128,-1,50
 122 542 122 542 110 565 c 1,51,52
 197 654 197 654 299 719 c 1,35,36
EndSplineSet
EndChar

StartChar: edieresis
Encoding: 235 235 170
Width: 500
GlyphClass: 2
Flags: W
LayerCount: 2
Fore
SplineSet
202 242 m 0,0,1
 242 242 242 242 265 275.5 c 128,-1,2
 288 309 288 309 288 353 c 0,3,4
 288 371 288 371 278 383 c 128,-1,5
 268 395 268 395 255 395 c 0,6,7
 231 395 231 395 211.5 353.5 c 128,-1,8
 192 312 192 312 187 243 c 1,9,10
 192 242 192 242 202 242 c 0,0,1
351 134 m 1,11,12
 373 123 373 123 388.5 106 c 128,-1,13
 404 89 404 89 404 72 c 0,14,15
 404 37 404 37 352.5 13.5 c 128,-1,16
 301 -10 301 -10 234 -10 c 0,17,18
 148 -10 148 -10 86.5 32.5 c 128,-1,19
 25 75 25 75 25 164 c 0,20,21
 25 290 25 290 105.5 387.5 c 128,-1,22
 186 485 186 485 311 485 c 0,23,24
 368 485 368 485 407.5 453 c 128,-1,25
 447 421 447 421 447 365 c 0,26,27
 447 276 447 276 380.5 226.5 c 128,-1,28
 314 177 314 177 213 177 c 0,29,30
 201 177 201 177 183 179 c 1,31,32
 183 80 183 80 262 80 c 0,33,34
 314 80 314 80 351 134 c 1,11,12
158 530 m 0,35,36
 123 530 123 530 104 551 c 128,-1,37
 85 572 85 572 85 603 c 0,38,39
 85 640 85 640 110.5 669.5 c 128,-1,40
 136 699 136 699 179 699 c 0,41,42
 213 699 213 699 232.5 676 c 128,-1,43
 252 653 252 653 252 621 c 0,44,45
 252 585 252 585 227 557.5 c 128,-1,46
 202 530 202 530 158 530 c 0,35,36
386 530 m 0,47,48
 351 530 351 530 332 551 c 128,-1,49
 313 572 313 572 313 603 c 0,50,51
 313 640 313 640 338.5 669.5 c 128,-1,52
 364 699 364 699 407 699 c 0,53,54
 441 699 441 699 460.5 676 c 128,-1,55
 480 653 480 653 480 621 c 0,56,57
 480 585 480 585 455 557.5 c 128,-1,58
 430 530 430 530 386 530 c 0,47,48
EndSplineSet
EndChar

StartChar: igrave
Encoding: 236 236 171
Width: 283
GlyphClass: 2
Flags: W
LayerCount: 2
Fore
SplineSet
161 485 m 0,0,1
 237 485 237 485 237 395 c 0,2,3
 237 355 237 355 215 253 c 128,-1,4
 193 151 193 151 193 127 c 0,5,6
 193 87 193 87 225 67 c 1,7,8
 211 29 211 29 183.5 9.5 c 128,-1,9
 156 -10 156 -10 123 -10 c 0,10,11
 38 -10 38 -10 38 81 c 0,12,13
 38 128 38 128 60.5 229 c 128,-1,14
 83 330 83 330 83 355 c 0,15,16
 83 398 83 398 52 402 c 1,17,18
 57 437 57 437 87.5 461 c 128,-1,19
 118 485 118 485 161 485 c 0,0,1
84 755 m 1,20,21
 102 724 102 724 144.5 690 c 128,-1,22
 187 656 187 656 217.5 629 c 128,-1,23
 248 602 248 602 248 579 c 0,24,25
 248 561 248 561 240.5 549.5 c 128,-1,26
 233 538 233 538 213 523 c 1,27,28
 183 549 183 549 132 580 c 128,-1,29
 81 611 81 611 53.5 633 c 128,-1,30
 26 655 26 655 26 679 c 0,31,32
 26 726 26 726 84 755 c 1,20,21
EndSplineSet
EndChar

StartChar: iacute
Encoding: 237 237 172
Width: 283
GlyphClass: 2
Flags: W
LayerCount: 2
Fore
SplineSet
161 485 m 0,0,1
 237 485 237 485 237 395 c 0,2,3
 237 355 237 355 215 253 c 128,-1,4
 193 151 193 151 193 127 c 0,5,6
 193 87 193 87 225 67 c 1,7,8
 211 29 211 29 183.5 9.5 c 128,-1,9
 156 -10 156 -10 123 -10 c 0,10,11
 38 -10 38 -10 38 81 c 0,12,13
 38 128 38 128 60.5 229 c 128,-1,14
 83 330 83 330 83 355 c 0,15,16
 83 398 83 398 52 402 c 1,17,18
 57 437 57 437 87.5 461 c 128,-1,19
 118 485 118 485 161 485 c 0,0,1
289 629 m 0,20,21
 264 614 264 614 177.5 577.5 c 128,-1,22
 91 541 91 541 72 523 c 1,23,24
 46 548 46 548 46 579 c 0,25,26
 46 600 46 600 72.5 620 c 128,-1,27
 99 640 99 640 134 655.5 c 128,-1,28
 169 671 169 671 211 697.5 c 128,-1,29
 253 724 253 724 277 753 c 1,30,31
 294 742 294 742 306 721 c 128,-1,32
 318 700 318 700 318 681 c 0,33,34
 318 647 318 647 289 629 c 0,20,21
EndSplineSet
EndChar

StartChar: icircumflex
Encoding: 238 238 173
Width: 283
GlyphClass: 2
Flags: W
LayerCount: 2
Fore
SplineSet
161 485 m 0,0,1
 237 485 237 485 237 395 c 0,2,3
 237 355 237 355 215 253 c 128,-1,4
 193 151 193 151 193 127 c 0,5,6
 193 87 193 87 225 67 c 1,7,8
 211 29 211 29 183.5 9.5 c 128,-1,9
 156 -10 156 -10 123 -10 c 0,10,11
 38 -10 38 -10 38 81 c 0,12,13
 38 128 38 128 60.5 229 c 128,-1,14
 83 330 83 330 83 355 c 0,15,16
 83 398 83 398 52 402 c 1,17,18
 57 437 57 437 87.5 461 c 128,-1,19
 118 485 118 485 161 485 c 0,0,1
174 719 m 1,20,21
 213 693 213 693 238 674 c 128,-1,22
 263 655 263 655 286 627.5 c 128,-1,23
 309 600 309 600 309 578 c 0,24,25
 309 562 309 562 290.5 544 c 128,-1,26
 272 526 272 526 243 519 c 1,27,28
 224 547 224 547 203 569.5 c 128,-1,29
 182 592 182 592 170 600 c 2,30,-1
 158 608 l 1,31,32
 55 527 55 527 32 527 c 0,33,34
 15 527 15 527 6 534.5 c 128,-1,35
 -3 542 -3 542 -15 565 c 1,36,37
 72 654 72 654 174 719 c 1,20,21
EndSplineSet
EndChar

StartChar: idieresis
Encoding: 239 239 174
Width: 283
GlyphClass: 2
Flags: W
LayerCount: 2
Fore
SplineSet
161 485 m 0,0,1
 237 485 237 485 237 395 c 0,2,3
 237 355 237 355 215 253 c 128,-1,4
 193 151 193 151 193 127 c 0,5,6
 193 87 193 87 225 67 c 1,7,8
 211 29 211 29 183.5 9.5 c 128,-1,9
 156 -10 156 -10 123 -10 c 0,10,11
 38 -10 38 -10 38 81 c 0,12,13
 38 128 38 128 60.5 229 c 128,-1,14
 83 330 83 330 83 355 c 0,15,16
 83 398 83 398 52 402 c 1,17,18
 57 437 57 437 87.5 461 c 128,-1,19
 118 485 118 485 161 485 c 0,0,1
39 530 m 0,20,21
 4 530 4 530 -15 551 c 128,-1,22
 -34 572 -34 572 -34 603 c 0,23,24
 -34 640 -34 640 -8.5 669.5 c 128,-1,25
 17 699 17 699 60 699 c 0,26,27
 94 699 94 699 113.5 676 c 128,-1,28
 133 653 133 653 133 621 c 0,29,30
 133 585 133 585 108 557.5 c 128,-1,31
 83 530 83 530 39 530 c 0,20,21
267 530 m 0,32,33
 232 530 232 530 213 551 c 128,-1,34
 194 572 194 572 194 603 c 0,35,36
 194 640 194 640 219.5 669.5 c 128,-1,37
 245 699 245 699 288 699 c 0,38,39
 322 699 322 699 341.5 676 c 128,-1,40
 361 653 361 653 361 621 c 0,41,42
 361 585 361 585 336 557.5 c 128,-1,43
 311 530 311 530 267 530 c 0,32,33
EndSplineSet
EndChar

StartChar: eth
Encoding: 240 240 175
Width: 565
GlyphClass: 2
Flags: W
LayerCount: 2
Fore
SplineSet
222 498 m 1,0,1
 192 521 192 521 192 544 c 128,-1,2
 192 567 192 567 219 585 c 0,3,4
 228 591 228 591 251 605 c 1,5,6
 204 630 204 630 132 630 c 1,7,8
 131 637 131 637 131 648 c 0,9,10
 131 675 131 675 146 686.5 c 128,-1,11
 161 698 161 698 193 698 c 0,12,13
 270 698 270 698 336 661 c 1,14,15
 370 685 370 685 430 733 c 1,16,17
 456 711 456 711 456 684 c 0,18,19
 456 664 456 664 431 646 c 0,20,21
 426 643 426 643 413 633 c 128,-1,22
 400 623 400 623 392 618 c 1,23,24
 444 568 444 568 472.5 494.5 c 128,-1,25
 501 421 501 421 501 336 c 0,26,27
 501 288 501 288 491.5 241 c 128,-1,28
 482 194 482 194 461 148.5 c 128,-1,29
 440 103 440 103 409.5 68 c 128,-1,30
 379 33 379 33 332.5 11.5 c 128,-1,31
 286 -10 286 -10 231 -10 c 0,32,33
 139 -10 139 -10 85.5 43 c 128,-1,34
 32 96 32 96 32 188 c 0,35,36
 32 250 32 250 58.5 316 c 128,-1,37
 85 382 85 382 140.5 431 c 128,-1,38
 196 480 196 480 264 480 c 0,39,40
 329 480 329 480 357 448 c 1,41,42
 339 519 339 519 307 559 c 1,43,-1
 298 553 l 2,44,45
 292 549 292 549 222 498 c 1,0,1
243 86 m 0,46,47
 283 86 283 86 308.5 118.5 c 128,-1,48
 334 151 334 151 342.5 189.5 c 128,-1,49
 351 228 351 228 351 270 c 0,50,51
 351 325 351 325 333.5 357 c 128,-1,52
 316 389 316 389 282 389 c 0,53,54
 252 389 252 389 229.5 370.5 c 128,-1,55
 207 352 207 352 195.5 322 c 128,-1,56
 184 292 184 292 178.5 262.5 c 128,-1,57
 173 233 173 233 173 203 c 0,58,59
 173 151 173 151 191 118.5 c 128,-1,60
 209 86 209 86 243 86 c 0,46,47
EndSplineSet
EndChar

StartChar: ntilde
Encoding: 241 241 176
Width: 543
GlyphClass: 2
Flags: W
LayerCount: 2
Fore
SplineSet
213 253 m 1,0,1
 199 135 199 135 199 72 c 0,2,3
 199 49 199 49 203 15 c 1,4,5
 165 -2 165 -2 119 -2 c 0,6,7
 42 -2 42 -2 42 54 c 0,8,9
 42 59 42 59 62 189.5 c 128,-1,10
 82 320 82 320 82 351 c 0,11,12
 82 395 82 395 51 402 c 1,13,14
 57 440 57 440 86.5 462.5 c 128,-1,15
 116 485 116 485 152 485 c 0,16,17
 237 485 237 485 237 402 c 0,18,19
 237 400 237 400 236.5 394.5 c 128,-1,20
 236 389 236 389 236 386 c 1,21,22
 266 433 266 433 308.5 458 c 128,-1,23
 351 483 351 483 390 483 c 0,24,25
 443 483 443 483 472 450.5 c 128,-1,26
 501 418 501 418 501 366 c 0,27,28
 501 348 501 348 480.5 248.5 c 128,-1,29
 460 149 460 149 460 126 c 0,30,31
 460 86 460 86 494 66 c 1,32,33
 482 30 482 30 453 10 c 128,-1,34
 424 -10 424 -10 390 -10 c 0,35,36
 354 -10 354 -10 329 12.5 c 128,-1,37
 304 35 304 35 304 74 c 0,38,39
 304 106 304 106 323 202.5 c 128,-1,40
 342 299 342 299 342 336 c 0,41,42
 342 392 342 392 309 392 c 0,43,44
 285 392 285 392 255.5 350 c 128,-1,45
 226 308 226 308 213 253 c 1,0,1
496 640 m 0,46,47
 496 599 496 599 451.5 566.5 c 128,-1,48
 407 534 407 534 362 534 c 0,49,50
 339 534 339 534 301 555.5 c 128,-1,51
 263 577 263 577 247 577 c 0,52,53
 227 577 227 577 178 537 c 1,54,55
 147 550 147 550 147 572 c 0,56,57
 147 612 147 612 192.5 645 c 128,-1,58
 238 678 238 678 281 678 c 0,59,60
 304 678 304 678 342 656.5 c 128,-1,61
 380 635 380 635 397 635 c 0,62,63
 418 635 418 635 465 675 c 1,64,65
 476 673 476 673 486 663.5 c 128,-1,66
 496 654 496 654 496 640 c 0,46,47
EndSplineSet
EndChar

StartChar: ograve
Encoding: 242 242 177
Width: 517
GlyphClass: 2
Flags: W
LayerCount: 2
Fore
SplineSet
267 394 m 0,0,1
 232 394 232 394 209.5 336.5 c 128,-1,2
 187 279 187 279 187 206 c 0,3,4
 187 151 187 151 203 115.5 c 128,-1,5
 219 80 219 80 248 80 c 0,6,7
 283 80 283 80 305.5 136.5 c 128,-1,8
 328 193 328 193 328 265 c 0,9,10
 328 322 328 322 312.5 358 c 128,-1,11
 297 394 297 394 267 394 c 0,0,1
220 -10 m 0,12,13
 130 -10 130 -10 77.5 45.5 c 128,-1,14
 25 101 25 101 25 191 c 0,15,16
 25 314 25 314 100.5 399 c 128,-1,17
 176 484 176 484 293 484 c 0,18,19
 386 484 386 484 439 432.5 c 128,-1,20
 492 381 492 381 492 291 c 0,21,22
 492 168 492 168 413.5 79 c 128,-1,23
 335 -10 335 -10 220 -10 c 0,12,13
210 755 m 1,24,25
 228 724 228 724 270.5 690 c 128,-1,26
 313 656 313 656 343.5 629 c 128,-1,27
 374 602 374 602 374 579 c 0,28,29
 374 561 374 561 366.5 549.5 c 128,-1,30
 359 538 359 538 339 523 c 1,31,32
 309 549 309 549 258 580 c 128,-1,33
 207 611 207 611 179.5 633 c 128,-1,34
 152 655 152 655 152 679 c 0,35,36
 152 726 152 726 210 755 c 1,24,25
EndSplineSet
EndChar

StartChar: oacute
Encoding: 243 243 178
Width: 519
GlyphClass: 2
Flags: W
LayerCount: 2
Fore
SplineSet
267 394 m 0,0,1
 232 394 232 394 209.5 336.5 c 128,-1,2
 187 279 187 279 187 206 c 0,3,4
 187 151 187 151 203 115.5 c 128,-1,5
 219 80 219 80 248 80 c 0,6,7
 283 80 283 80 305.5 136.5 c 128,-1,8
 328 193 328 193 328 265 c 0,9,10
 328 322 328 322 312.5 358 c 128,-1,11
 297 394 297 394 267 394 c 0,0,1
220 -10 m 0,12,13
 130 -10 130 -10 77.5 45.5 c 128,-1,14
 25 101 25 101 25 191 c 0,15,16
 25 314 25 314 100.5 399 c 128,-1,17
 176 484 176 484 293 484 c 0,18,19
 386 484 386 484 439 432.5 c 128,-1,20
 492 381 492 381 492 291 c 0,21,22
 492 168 492 168 413.5 79 c 128,-1,23
 335 -10 335 -10 220 -10 c 0,12,13
465 629 m 0,24,25
 440 614 440 614 353.5 577.5 c 128,-1,26
 267 541 267 541 248 523 c 1,27,28
 222 548 222 548 222 579 c 0,29,30
 222 600 222 600 248.5 620 c 128,-1,31
 275 640 275 640 310 655.5 c 128,-1,32
 345 671 345 671 387 697.5 c 128,-1,33
 429 724 429 724 453 753 c 1,34,35
 470 742 470 742 482 721 c 128,-1,36
 494 700 494 700 494 681 c 0,37,38
 494 647 494 647 465 629 c 0,24,25
EndSplineSet
EndChar

StartChar: ocircumflex
Encoding: 244 244 179
Width: 517
GlyphClass: 2
Flags: W
LayerCount: 2
Fore
SplineSet
267 394 m 0,0,1
 232 394 232 394 209.5 336.5 c 128,-1,2
 187 279 187 279 187 206 c 0,3,4
 187 151 187 151 203 115.5 c 128,-1,5
 219 80 219 80 248 80 c 0,6,7
 283 80 283 80 305.5 136.5 c 128,-1,8
 328 193 328 193 328 265 c 0,9,10
 328 322 328 322 312.5 358 c 128,-1,11
 297 394 297 394 267 394 c 0,0,1
220 -10 m 0,12,13
 130 -10 130 -10 77.5 45.5 c 128,-1,14
 25 101 25 101 25 191 c 0,15,16
 25 314 25 314 100.5 399 c 128,-1,17
 176 484 176 484 293 484 c 0,18,19
 386 484 386 484 439 432.5 c 128,-1,20
 492 381 492 381 492 291 c 0,21,22
 492 168 492 168 413.5 79 c 128,-1,23
 335 -10 335 -10 220 -10 c 0,12,13
335 719 m 1,24,25
 374 693 374 693 399 674 c 128,-1,26
 424 655 424 655 447 627.5 c 128,-1,27
 470 600 470 600 470 578 c 0,28,29
 470 562 470 562 451.5 544 c 128,-1,30
 433 526 433 526 404 519 c 1,31,32
 385 547 385 547 364 569.5 c 128,-1,33
 343 592 343 592 331 600 c 2,34,-1
 319 608 l 1,35,36
 216 527 216 527 193 527 c 0,37,38
 176 527 176 527 167 534.5 c 128,-1,39
 158 542 158 542 146 565 c 1,40,41
 233 654 233 654 335 719 c 1,24,25
EndSplineSet
EndChar

StartChar: otilde
Encoding: 245 245 180
Width: 518
GlyphClass: 2
Flags: W
LayerCount: 2
Fore
SplineSet
267 394 m 0,0,1
 232 394 232 394 209.5 336.5 c 128,-1,2
 187 279 187 279 187 206 c 0,3,4
 187 151 187 151 203 115.5 c 128,-1,5
 219 80 219 80 248 80 c 0,6,7
 283 80 283 80 305.5 136.5 c 128,-1,8
 328 193 328 193 328 265 c 0,9,10
 328 322 328 322 312.5 358 c 128,-1,11
 297 394 297 394 267 394 c 0,0,1
220 -10 m 0,12,13
 130 -10 130 -10 77.5 45.5 c 128,-1,14
 25 101 25 101 25 191 c 0,15,16
 25 314 25 314 100.5 399 c 128,-1,17
 176 484 176 484 293 484 c 0,18,19
 386 484 386 484 439 432.5 c 128,-1,20
 492 381 492 381 492 291 c 0,21,22
 492 168 492 168 413.5 79 c 128,-1,23
 335 -10 335 -10 220 -10 c 0,12,13
493 640 m 0,24,25
 493 599 493 599 448.5 566.5 c 128,-1,26
 404 534 404 534 359 534 c 0,27,28
 336 534 336 534 298 555.5 c 128,-1,29
 260 577 260 577 244 577 c 0,30,31
 224 577 224 577 175 537 c 1,32,33
 144 550 144 550 144 572 c 0,34,35
 144 612 144 612 189.5 645 c 128,-1,36
 235 678 235 678 278 678 c 0,37,38
 300 678 300 678 339 656.5 c 128,-1,39
 378 635 378 635 394 635 c 0,40,41
 415 635 415 635 462 675 c 1,42,43
 473 673 473 673 483 663.5 c 128,-1,44
 493 654 493 654 493 640 c 0,24,25
EndSplineSet
EndChar

StartChar: odieresis
Encoding: 246 246 181
Width: 541
GlyphClass: 2
Flags: W
LayerCount: 2
Fore
SplineSet
267 394 m 0,0,1
 232 394 232 394 209.5 336.5 c 128,-1,2
 187 279 187 279 187 206 c 0,3,4
 187 151 187 151 203 115.5 c 128,-1,5
 219 80 219 80 248 80 c 0,6,7
 283 80 283 80 305.5 136.5 c 128,-1,8
 328 193 328 193 328 265 c 0,9,10
 328 322 328 322 312.5 358 c 128,-1,11
 297 394 297 394 267 394 c 0,0,1
220 -10 m 0,12,13
 130 -10 130 -10 77.5 45.5 c 128,-1,14
 25 101 25 101 25 191 c 0,15,16
 25 314 25 314 100.5 399 c 128,-1,17
 176 484 176 484 293 484 c 0,18,19
 386 484 386 484 439 432.5 c 128,-1,20
 492 381 492 381 492 291 c 0,21,22
 492 168 492 168 413.5 79 c 128,-1,23
 335 -10 335 -10 220 -10 c 0,12,13
194 530 m 0,24,25
 159 530 159 530 140 551 c 128,-1,26
 121 572 121 572 121 603 c 0,27,28
 121 640 121 640 146.5 669.5 c 128,-1,29
 172 699 172 699 215 699 c 0,30,31
 249 699 249 699 268.5 676 c 128,-1,32
 288 653 288 653 288 621 c 0,33,34
 288 585 288 585 263 557.5 c 128,-1,35
 238 530 238 530 194 530 c 0,24,25
422 530 m 0,36,37
 387 530 387 530 368 551 c 128,-1,38
 349 572 349 572 349 603 c 0,39,40
 349 640 349 640 374.5 669.5 c 128,-1,41
 400 699 400 699 443 699 c 0,42,43
 477 699 477 699 496.5 676 c 128,-1,44
 516 653 516 653 516 621 c 0,45,46
 516 585 516 585 491 557.5 c 128,-1,47
 466 530 466 530 422 530 c 0,36,37
EndSplineSet
EndChar

StartChar: divide
Encoding: 247 247 182
Width: 574
GlyphClass: 2
Flags: W
LayerCount: 2
Fore
SplineSet
281 359 m 128,-1,1
 250 359 250 359 228 380.5 c 128,-1,2
 206 402 206 402 206 437 c 0,3,4
 206 469 206 469 228 491.5 c 128,-1,5
 250 514 250 514 281 514 c 0,6,7
 311 514 311 514 332.5 491.5 c 128,-1,8
 354 469 354 469 354 437 c 0,9,10
 354 402 354 402 333 380.5 c 128,-1,0
 312 359 312 359 281 359 c 128,-1,1
509 260 m 0,11,12
 509 235 509 235 495 217.5 c 128,-1,13
 481 200 481 200 458 200 c 0,14,15
 441 200 441 200 376.5 205.5 c 128,-1,16
 312 211 312 211 282 211 c 0,17,18
 169 211 169 211 66 200 c 1,19,20
 62 221 62 221 62 242 c 0,21,22
 62 265 62 265 74.5 283.5 c 128,-1,23
 87 302 87 302 113 302 c 0,24,25
 117 302 117 302 180.5 297 c 128,-1,26
 244 292 244 292 290 292 c 0,27,28
 434 292 434 292 503 302 c 1,29,30
 509 290 509 290 509 260 c 0,11,12
281 -6 m 128,-1,32
 250 -6 250 -6 228 16 c 128,-1,33
 206 38 206 38 206 72 c 0,34,35
 206 104 206 104 228 126.5 c 128,-1,36
 250 149 250 149 281 149 c 0,37,38
 311 149 311 149 332.5 126.5 c 128,-1,39
 354 104 354 104 354 72 c 0,40,41
 354 37 354 37 333 15.5 c 128,-1,31
 312 -6 312 -6 281 -6 c 128,-1,32
EndSplineSet
EndChar

